<svg xmlns="http://www.w3.org/2000/svg" viewBox="0 0 163.86 162.87"><defs><style>.cls-1{fill:#fff;}</style></defs><g id="Camada_2" data-name="Camada 2"><g id="Layer_1" data-name="Layer 1"><path class="cls-1" d="M162.43,137.16c0,.87.39.55.46.69C162.8,136.39,162.32,137.19,162.43,137.16Z"/><polygon class="cls-1" points="161.48 122.78 161.65 123.04 161.23 120.92 161.48 122.78"/><path class="cls-1" d="M161.49,109.34c-.71,1.27.12,4.87-.14,7.26l-.16.4.57,1.08C161.67,115.17,161.29,111.39,161.49,109.34Z"/><path class="cls-1" d="M163,102.17c-.27.44-.24-1.55-.08,1.67a1.94,1.94,0,0,1,.07-.3C163,103.25,163,102.85,163,102.17Z"/><path class="cls-1" d="M163,103.54c0,1.42.23-.93,0,0Z"/><path class="cls-1" d="M162.86,97l.25,1.87c.16-.39.2-2.05.32-1.43C163.29,95.52,163.13,95.92,162.86,97Z"/><path class="cls-1" d="M162.34,95.23l.1,1A1.35,1.35,0,0,0,162.34,95.23Z"/><path class="cls-1" d="M162.66,98.25l-.22-2c-.11.27-.34.3.08.94C162.31,97,162.51,97.38,162.66,98.25Z"/><path class="cls-1" d="M162.56,99.41c-.16,1-.26,2.4-.5.53C162.15,103.5,162.66,103,162.56,99.41Z"/><path class="cls-1" d="M160.75,108.65l-.21,1.4.24,1.21C160.66,110.66,161,108.57,160.75,108.65Z"/><path class="cls-1" d="M163.23,85.39c-.15-.12-.41.62-.6.76l.17,1.38C162.91,86.82,163,85.48,163.23,85.39Z"/><path class="cls-1" d="M162.63,86.15l-.26-2.06C162.34,85.93,162.46,86.27,162.63,86.15Z"/><polygon class="cls-1" points="161.54 94.9 162.09 98.29 161.54 94.25 161.54 94.9"/><polygon class="cls-1" points="163.25 77.52 163.6 78.69 163.07 76.6 163.25 77.52"/><path class="cls-1" d="M163.19,72.3c.29.86.49-1.19.67-.28a20.92,20.92,0,0,0-.53-3.71A15.39,15.39,0,0,1,163.19,72.3Z"/><path class="cls-1" d="M163,66.47c.07.58.2,1.18.33,1.84A11.64,11.64,0,0,0,163,66.47Z"/><path class="cls-1" d="M162.44,80.58a3.09,3.09,0,0,0,.44-1.62l-.43.81C162.45,80,162.45,80.3,162.44,80.58Z"/><path class="cls-1" d="M162.44,79.8v0c0-.88,0-1.49,0-1.75C162.47,78.24,162.46,78.78,162.44,79.8Z"/><path class="cls-1" d="M162.44,80.79v-.21A.18.18,0,0,0,162.44,80.79Z"/><path class="cls-1" d="M161.93,89.5c-.24-1.21-.49-3.73-.86-1.29C161.37,89.08,161.57,87.68,161.93,89.5Z"/><path class="cls-1" d="M161.91,81.79l-.1,2.19c.11,0,.28-.44.39.16Z"/><polygon class="cls-1" points="161.77 80.72 161.91 81.79 161.94 80.98 161.77 80.72"/><path class="cls-1" d="M162.6,70.22a19.93,19.93,0,0,1-.23-3.14c-.08,1.25-.13,2.54-.13,3.77C162.38,71,162.62,71.57,162.6,70.22Z"/><path class="cls-1" d="M162.48,74.88a1.36,1.36,0,0,0,0-.21C162.42,74.8,162.41,74.9,162.48,74.88Z"/><path class="cls-1" d="M162.37,55.57c0,.07-.05.12-.07.19l.07,0Z"/><path class="cls-1" d="M162.16,71.06a5.71,5.71,0,0,0,.16,2c0-.7-.07-1.45-.08-2.25C162.18,70.77,162.14,70.76,162.16,71.06Z"/><path class="cls-1" d="M162.8,63.27c-.09.49-.16,1-.23,1.63A4.57,4.57,0,0,0,162.8,63.27Z"/><path class="cls-1" d="M162.58,74.35a.68.68,0,0,0,0,.14C162.69,74.18,162.64,74.22,162.58,74.35Z"/><path class="cls-1" d="M162.58,74.35a10.47,10.47,0,0,0-.26-1.25c0,.57.08,1.11.14,1.57A1.66,1.66,0,0,1,162.58,74.35Z"/><path class="cls-1" d="M159.63,52.09c.4.16.76,2.64.34,4.78.3,2.1,1.6.72,2.33-1.11-.18-.07-.34-.07-.57-2.23-.22.76-.51,4.8-.86,3-.21-2.86.14-2.34.35-3.74-.5,1.19-.72-3.64-1.45-3l.26,2.51C159.91,52.3,159.73,51.39,159.63,52.09Z"/><path class="cls-1" d="M162.26,59.88l.05.89a16.86,16.86,0,0,1,.53-3.08c-.19-1.48-.34-1.79-.47-1.89l-.05,4.38Z"/><path class="cls-1" d="M162.31,64.77c-.43-.7-.62-2.84-1.08-1.53,0,2.62.36,1.83.54,3.39-.1-4.21.24,1.21.49-1.83.07.83.09,1.57.11,2.28,0-.76.12-1.49.2-2.18l0,.09v0h0c-.06.18-.09.24-.06,0,0,0,0-.06,0-.08a.52.52,0,0,1-.16-.19c.09-1.22.11-.2.16.19,0,0,0,0,.07.05v0l-.23-4.22C162.24,61.66,162.26,62.78,162.31,64.77Z"/><path class="cls-1" d="M160.15,86c0-.14.06-.13.09-.14C160.19,85.55,160.16,85.44,160.15,86Z"/><path class="cls-1" d="M160.41,84.22a4,4,0,0,1,.18,1.56c-.13.86-.2,0-.35,0,.12.6.31,2.11.52.22l-.06-.3a11.87,11.87,0,0,1,.75-3.59A6,6,0,0,0,160.41,84.22Z"/><path class="cls-1" d="M161.25,74.37,161,70.85l-.37,1.8.23-.1C160.8,74.55,161.07,74.12,161.25,74.37Z"/><polygon class="cls-1" points="162.59 55.17 163.04 55.64 162.4 53.61 162.59 55.17"/><polygon class="cls-1" points="162.53 50.6 162.93 50.77 162.69 49.56 162.53 50.6"/><path class="cls-1" d="M5.18,76.19l.11,1C5.25,76.73,5.22,76.42,5.18,76.19Z"/><path class="cls-1" d="M5.2,68.71,5,68.53C5.12,68.87,5.2,69,5.2,68.71Z"/><path class="cls-1" d="M85.31.84c-1.5-.37-3.19-.95-3-.5l.46.43A11.22,11.22,0,0,1,85.31.84Z"/><path class="cls-1" d="M10.09,9.52l.41-.2.49-1Z"/><path class="cls-1" d="M10.61,11.5l-.71.58-.5.4a2.7,2.7,0,0,0-.22.19A18.11,18.11,0,0,0,10.61,11.5Z"/><path class="cls-1" d="M5.64,117l.44,1.21C6.08,116.36,5.85,117.19,5.64,117Z"/><path class="cls-1" d="M151.29,5.21a15.11,15.11,0,0,0-3-2q.56.38,1,.72l.81.68C150.61,5,151,5.24,151.29,5.21Z"/><path class="cls-1" d="M.57,73.25c.08.63.17.9.27.88C.76,73.48.68,73.11.57,73.25Z"/><path class="cls-1" d="M144.39,1.71a6.29,6.29,0,0,1,.7.32,15,15,0,0,1,3.2,1.18,8.38,8.38,0,0,0-1.8-1A6.54,6.54,0,0,0,144.39,1.71Z"/><path class="cls-1" d="M117.22,158.05l.34,0C117.59,158,117.44,158,117.22,158.05Z"/><path class="cls-1" d="M158.21,150.76l-.43.75c-.18.28-.41.57-.62.86A7.24,7.24,0,0,0,158.21,150.76Z"/><path class="cls-1" d="M162.72,32.22c0,1,.05.15,0,0Z"/><path class="cls-1" d="M161,36.93c0-.21-.11-.36-.21-.39A.7.7,0,0,1,161,36.93Z"/><path class="cls-1" d="M134.09,3.39H134C134.29,3.47,134.24,3.46,134.09,3.39Z"/><path class="cls-1" d="M162.53,33.67c.05-.36.09-.78.13-1.23A12.26,12.26,0,0,0,162.53,33.67Z"/><path class="cls-1" d="M162.73,33.48c0,.33,0,.6,0,.85S162.81,34.34,162.73,33.48Z"/><path class="cls-1" d="M162.7,30.87c0,.55,0,1.07,0,1.57,0-.19.05-.27.06-.22C162.72,31.93,162.71,31.53,162.7,30.87Z"/><path class="cls-1" d="M37.84,159.21l.2,0C39,159.07,38.59,159.1,37.84,159.21Z"/><path class="cls-1" d="M60.09,5.34l.11,0-.14,0Z"/><path class="cls-1" d="M56.61,5.66a6.64,6.64,0,0,1,3.45-.36L58.9,4.05Z"/><path class="cls-1" d="M5.3,94.1l.39-2.45c.64,3,.42,5.09,1,2.79-1.36-.34-.14-9.5-1.5-9.84L5.45,83c0,.46.07.54,0,1,.65-3.13-1-2.32-.79-6.36.11-1.41.31-2.39.47-1.43l-.34-3.14c0-.91.26-.69.24.22L5,68.49l0,0c-.22-.69-.54-2.23-.68-3,.19-1.21.14.61.31.3l-.33-2.65c.35-1.08.69,1.12.64,3,1.36-2.48-.34-2.2.45-7.54l.18,2.5c.77-1.61.49-3.56,1-6.39C6.3,55.38,5.34,60.37,5,57.5a11.18,11.18,0,0,0-.12-3.43c.48,0,.36-1.53.33-3.42l.64.13c-.18-2.05-.51-1.89-.79-3.09.06-2.29.55-2.76,1-3.3.1-3.65-.79,2.53-.91-1.8a43.77,43.77,0,0,0-.4-8.81c.22-2.13.39.37.57-.39L4.78,31.5c0-.46.17-.31.25-.23-.2-1.59-.64-.13-.81-2.63-.34-.32-.13-1.66.17-3.17.18-.73.27-1.53.47-2.3a12.31,12.31,0,0,0,.24-2.3c.35-.63.3.43.59.28.06-.48.11-.9.15-1.25S6,19.24,6,19c.13-.53.19-.94.3-1.3.25-.71.3-1.41.9-3l.28-.34a6.78,6.78,0,0,1,.66-.71l1-1c-.79.66-.93.41-.71-.32a6.2,6.2,0,0,1,.62-1.3,9.79,9.79,0,0,1,1-1.53,9,9,0,0,0-1.7,1,23.58,23.58,0,0,1,2.69-3c.45-.21.25.21-.09.81l.48-.56c1.27-.65.88.1.33,1a13.92,13.92,0,0,0-1.3.59,6.61,6.61,0,0,0-.5,1.27c-.06.37,0,.63.17.69a3.86,3.86,0,0,1,.74-1c-.1.24-.14.41,0,.38s.32-.39.66-.92h.53l.55,0V9.47l.63-.39c.19-.11.4-.25.64-.38l.78-.38a13.07,13.07,0,0,1,1.46-.65l.68-.25A21.27,21.27,0,0,1,21.29,4.7a19.57,19.57,0,0,1,6.9-1.29c-1.44.52-.31.86-.39,1.47a4,4,0,0,0-1.41-.23,8.8,8.8,0,0,0-1.74.16c-1.22.16-2.54.54-3.9.78,1.42-.26,1.17.16.83.29l.73-.21A12.06,12.06,0,0,1,24,5.28c.62-.1,1.21-.22,1.71-.29l.83-.09c-.12.51,1.14.38,2.53.59-1.05-1,4-.67,6.17-1,.13.33-.39.68-3,.59,2.93.76,3.79-1.17,6.66-.53-.64,0-1,0-1.25.13,1.51-.3,5.22-.07,4.35.23h-.65c4.3.12,13.1,0,13.74-.84a3.29,3.29,0,0,1-.82,1.2l7.68-2.86c-.68.73,1.92,2.47-1.65,2.88a18.11,18.11,0,0,0,4.45,0c-.7-.11-1.74-1.06-.79-1.13a34.6,34.6,0,0,0,5.06,1.13C67.87,5.14,69,4,70.69,4c-.26.17.14,1.13-.47,1.25l4.12-1.13c-1,.21-.18,1,.74,1.27-.42-.22,3.57,0,4.66-.09L78,5.07c4.65.17,4.59-1.58,9.21-1.52-.56.23-1.38,1.43,1,1.57A24.42,24.42,0,0,1,97,1.91l.78.33L101,1.86a84.66,84.66,0,0,1-10.42,3.4c1.74.26.48.39,3.09.36.92.31-1.42.47-2.19.49l6.07.19c-.27-.67,4.65-.67,4.41-1.23l-6.59.7c-.27-.67,3.81-1.91,8.11-1.79,1.1.27-.81,1.19-.73,1.42a17.79,17.79,0,0,1,4.48-.28l-1.82.36c2.39.25,3.91-.89,6.79-.25,1,0,3,.87,3.13.47-1.62-.77-1.93-3.14-.85-3.72.35,0,5.21.74,6.35,1.11,1.63.61-2.46,1.44-1.07,2,.06-.18,1-.41,1.34-.48,1,.16-.43.57,1.84.49.38-.68,4.61.06,1.07-.58,2.22-.19,2.36.14,5,.11-.83-.44,2.34-1.5,4.56-1.69-.13.17.37.4.61.5A27.64,27.64,0,0,1,145,5.15c.15.16.69.42,1,.7s.55.52.11.48l.94.2a4.22,4.22,0,0,1,1.34.56c.89.89.27.54-.4.18s-1.46-.63-.8.05c.17-.17.91.15,1.84.57a13.31,13.31,0,0,1,1.4.79,13.18,13.18,0,0,1,1.29.82c0-.44-.81-1.11-1.83-1.76a15.62,15.62,0,0,0-3.19-1.39c.16-.36,1.11-.5,2.47-.06.34.1.72.22,1.12.37s.8.38,1.23.61a16.32,16.32,0,0,1,2.68,1.8c2.66,2.61.67,1.54,1.19,1.94.51.69,1,1.28,1.36,1.77s.68,1,1,1.35c.63.75,1,1.35,1.47,1.88a7.44,7.44,0,0,1,1.14,1.87,10.76,10.76,0,0,1,.82,3.26c-.17,2.38-1,.29-1.34.87-.13-.71-.34-1.32-.45-1.89s-.21-1.1-.35-1.58-.23-.95-.35-1.41a7.62,7.62,0,0,0-.55-1.33l.42,1.15c.15.59.31,1.19.31,1.19-.45-.83-1.39-2.5-1.79-3.48.17.44.48,1.32,1,2.42.21.57.41,1.21.66,1.89s.38,1.44.58,2.21c.75,3.11.44,6.75.28,9.3.18.9.37,2.47.58,1.73l-.07-1.62c.43-1.48.6,3,.8,1a32.4,32.4,0,0,1,.54,7.64l-.62.57A6.29,6.29,0,0,0,161,37c.27,1.27-.83,4.68,0,6.07l.42-2.14a35.12,35.12,0,0,1,.77,7.57c.6-1.23-.07-.63.64-2.55-.89,1.67,0-6.91-.89-4.23.82-2,.35-3.41,1-6-.21.08-.39.91-.29-1.35a4.1,4.1,0,0,1-.18-.5c0-.07,0-.1,0-.16l0,.13c0-.1,0-.11,0,.05a3.77,3.77,0,0,1-.3,1.15c-.47-1.12-.45-4.73-.69-5.95.09-1.35.23.56.44-.17l-.36-1.82c.49-.12.66-3.75,1-.41,0,.1-.1-3.1-.1-3.1a15.89,15.89,0,0,0-.26-3.14,11.1,11.1,0,0,0-.9-2.8c-.36-1.5-2-3.28-1.07-2.25l-.38-.69L159.5,14l-.52-.76c-.36-.51-.69-1-1-1.39l-.5-.6.06-.1a19,19,0,0,0-2.46-2.79,29.19,29.19,0,0,0-3-2.35,54.86,54.86,0,0,0-7-4c-.8-.21-1.64-.32-2.58-.54L141,1.26A18,18,0,0,0,139.08,1l-.51-.41c-1.14,0-2.51-.09-3.82-.15a8.72,8.72,0,0,0-2.87.1c-2.06-1-9.26-.22-12.62-.41l-.13.51c-2.31,0-4.52.11-7.39.32l.18.44c-2.48.37-6.36-.31-10.27-.27a4.59,4.59,0,0,1,2,0c-4.67-1-9.86.74-14.1,0A7.75,7.75,0,0,1,87,1.1l.26,0h-.43c-.47-.07-1-.16-1.47-.23.44.1.87.19,1.23.24-.81,0-2.05.06-3.26.17L82.77.77h-.28c-1.19-.17-1,.23-.32.6a10.79,10.79,0,0,0-1.6.29c-1-.78-3.18.26-4.5-.57-.81.4-6.09.3-6.73,1.15,0-.11-.4-.16.25-.17a15.34,15.34,0,0,0-3.9,0l-.58-.61-3,.82c-1.79-.37-2.53-.59-.75-1.06-4.29.72-3.48.27-7.13,1l.17-.4c-1.3,0-3.39.55-4.18.22-2.91-.75-14.44-.1-21.94-.8.73.58-.14.45-1.23.29-.54-.08-1.14-.17-1.63-.19s-.91.1-1,.33c-.47-.26-1.64-.35-.32-.66-.53.07-1,.09-1.48.16l-1.31.2a17.31,17.31,0,0,0-2.26.4l-1,.24c-.33.11-.64.24-.95.37a6.63,6.63,0,0,0-1.8,1.08c-.55,0,.65-.76.2-.73A4.78,4.78,0,0,1,14,3.63c-.47,0,.45-.48,1-.88a7.67,7.67,0,0,0-3.29,2.44,1.69,1.69,0,0,0-.17,1.51c-.48.24-.88.46-1.24.68a6.82,6.82,0,0,0-.89.73A5.15,5.15,0,0,0,8.22,9.89c-.66.35-1.71,1.09,0-.89l-1.4,1.44c-.3.35-.6.74-.92,1.15A9.73,9.73,0,0,0,5,12.86C3.8,14.59,3.17,16.42,3.4,16.59a7.58,7.58,0,0,0-.81,2.26,25.1,25.1,0,0,0-.8,3.28c-.07.43-.14.86-.22,1.38s-.05,1.14-.08,1.94l.15-.88c.68,1.3.11,2.56.2,5l-.08-.07c-.56,5.56.26,2.4-.37,7.89l.48-.3c1,.51-.61,4.86-.21,8L1.93,44C2.28,45.73.53,48.85.4,50.6.31,51,.25,50,.19,49.46c-.61,4.58.63.6.77,4C.62,54.09.1,52.66,0,55c-.28,1.14,1.1,6.65.45,9.78.26-.69.52-1.37.71.21.1,2.43-1,6.56-.16,8.75-.07.31-.14.43-.2.44.21,1.85.35,6,.8,7.14C0,83,2.44,92.8.91,92.76L1,98.47l-.15-.15a17.22,17.22,0,0,0,.63,6.22c-.1.84-.25.22-.33.15A32.46,32.46,0,0,0,1.66,115l-.49.46c.28,1.22-.78,7.71-.2,12.93-.06,0-.15-.16-.23-.57a62,62,0,0,1-.24,9.51c-.22,3.26.4,6.25,1.6,7.08A25.54,25.54,0,0,0,4,148.12a5.62,5.62,0,0,1-.66-2c0-.22.17-.08.37.15.39.48,1,1.23.72.21.19.46.45,1,.63,1.47s.34,1,.48,1.34c.24.71.18,1-.51-.08a2.38,2.38,0,0,1-.11-.38c-.64-.19.06,1.3,1,2.76s2.24,2.8,1.95,3a27.22,27.22,0,0,0,6.21,4.81A25.12,25.12,0,0,0,21.38,162c.64.1,1.28.26,1.92.31l1.93.14c1.23.06,2.39.07,3.58.1,2.35.06,4.69.1,7,.11l-1.06-.74L38,162c.85.17,1.14.57-1.16.54a7.2,7.2,0,0,0,3.93-.51c4.5.3-1.76.86-.38.87l1.88-.05-.43-.09a13.14,13.14,0,0,1,4.43-.58c1.75.15.89.45,1.58.48,0,.05.23.08,1.06,0l4.07.07-1.63-.58c1.8-.29,3.82,0,2-.63,2.75,1,15.17.37,16.86.68a44.26,44.26,0,0,1,8.1-.36c-.77-.12-1.23-.77,1.44-.69-1,1.34,4.87.58,7,1.54-1.92-.64,7.57-.16,4.55-1.06,2.22.11.14.5,1.82.81,5.29-.51,11.65.34,18.19.17.1-.18-1-.45.41-.71l3.45.88c1.29-.09,1.19-1,3.55-.41-.34-.14-.83-.37,0-.42,3.2.21,6.44.27,9.69.27l4.9,0,2.46,0c.82,0,1.62,0,2.52-.08a28.27,28.27,0,0,0,18.72-8.8c-1.49,1.29-.66.29.18-.89-.63.71-.33-.28-.63-.27l.62-.66c.36-.41.79-1,1.24-1.58a15.75,15.75,0,0,0,1.12-1.68c.3-.47.49-.79.49-.79a3.7,3.7,0,0,1,.22-1.46c.09-.32.21-.65.31-1l.27-1.09c.09-.36.18-.73.26-1.07s.09-.68.12-1a2.2,2.2,0,0,0-.1-1.19l-.17,1.82c-.2-1.27-.68-.47-1.36.45a14.3,14.3,0,0,1-1,1.31c-.32.34-.67.51-.86.36,0,1.29-.89,2.72-2,4.1a30.91,30.91,0,0,0-3.45,4.56c-.78.45.34-.72-.17-.56a5.15,5.15,0,0,1-1,1.45,6.29,6.29,0,0,1-.93.74,7.74,7.74,0,0,1-1.27.79l.16-.22c-.67.4-1.26.83-1.88,1.12s-1.19.59-1.77.8l-1.7.56-1.7.35a16.23,16.23,0,0,1-1.74.2,12.89,12.89,0,0,1-1.88.06h-1l-1.18-.05-2.63-.11.56.47a14.55,14.55,0,0,1-2.72-.33c-1.86.72,4.55,0,2.86.84-2.15-1-11.43,0-12.88-1.11-2.49,0,.73.54-1.76.54l-.66-.3-.63.38c-1.64-.06-2.46-.43-2.52-.68.4,0,1.13-.07,1.55-.09-2.12-.35-6,.12-6.7,0l2.39.18c-6.8.28-15.11-.11-21.68.5l.5.22c-5,.41-4-.25-9.53-.06l.2,0a19.86,19.86,0,0,1-4.08.31c1.39-.26-2.62-.51-.79-.8-5.45.45-2.7.35-6.29,1.18l-.83-.37a11.45,11.45,0,0,1-4.08.61c2.26-.32-1.75-.56.77-1-5.77-.81-8.57.82-11.22-.36-2.65,1,5,.57,3.51.79,1.25.33-2.19.76-4,.66s-3.13-1.31-7.77-1.29c.46,0,.49-.08,1-.07-1.74-.26-3.4.35-5.53-.07-1.2.62-2.77,0-3.11.75l4.25-.18c-2.41.21-4.67,1.13-8.65.69a12.54,12.54,0,0,1,2.31-.49c-1.17-.24-2.24.15-3.45-.09.35-.79,5.18-.17,7.76-.77-1.25-.34-4.89.57-3.59-.29-1.87,1.09-4.57-.14-7.71.7l.2-.48a14.16,14.16,0,0,1-2.44.29l1.66-.62c-2.53.52-5-.4-7-.3,2.23.14,2.52.27,2.45.46s-.53.42.55.59a13.25,13.25,0,0,1-1.89.07,5.24,5.24,0,0,1-1.24-.14,5.83,5.83,0,0,1-1.49-.66,12.37,12.37,0,0,0-1.5-.89l-.57-.23c-.2-.1-.42-.21-.67-.31-.49-.22-1.1-.4-1.79-.74a7.2,7.2,0,0,1,.73.37,8.48,8.48,0,0,1,.8.42c.45.28.65.51,0,.38l-.86-.41c-.3-.15-.57-.35-.84-.52a5.6,5.6,0,0,1-1.24-1c-1.78-1-1.68-.9-1.4-.48s.88.9,0,.55c-.85-1.29-1.85-1-3.38-2.15l.33-.35a14.42,14.42,0,0,0-1.59-1.67,1.18,1.18,0,0,0-.67-.36,1,1,0,0,1-.61-.3,3.82,3.82,0,0,1-.5-.59c-.18-.29-.39-.67-.64-1.17l.77.62a5.15,5.15,0,0,0,.54.41l.26.17s-1.36-1.82-1.36-1.82l.71.12a9.37,9.37,0,0,1-2.25-5c-.09.31-.32.29-.6-.07a3.62,3.62,0,0,1-.44-.81,9.79,9.79,0,0,1-.31-1.37c0-.76.17-.56.24-.57s.06-.19,0-1.71a3.9,3.9,0,0,1,.5,2.72c.18.11.4.61.57.72a7,7,0,0,0,0-1.28,12.1,12.1,0,0,1-.13-1.35c0-.45-.08-.88-.12-1.27s0-.83,0-1.12a11.5,11.5,0,0,1-.09,1.27c0,.05-.19-1.17-.35-2.38l-.34-2.43c.18-.76.33-.16.47.44,0-1-.27-1.66-.31-3.1.39.37.79.28,1,2.33l-.44-4.62c.17-.31.47-2.37.62-1.77.23-2.56-.77-6.29-.46-9.68a4.45,4.45,0,0,1-.21-1.25c.09-3.19.57-6,0-9.8l.7-2.15c-.16-3-.89,2.91-1.15-2-.23-3.49.6-1.3.79-2.52a20.87,20.87,0,0,1-.5-8C5.35,92.27,5.25,93.11,5.3,94.1ZM5,57.57c.1.71.41,2.12.13,2.64C4.57,59.4,4.83,58.78,5,57.57ZM14.85,7.16A6,6,0,0,1,13,8.23,6.58,6.58,0,0,1,14.85,7.16Zm147,14,0-.07C161.59,19.36,161.68,20,161.86,21.17Zm.2,3.6c.09.36.15.33.21.17a9.32,9.32,0,0,1-.24-2A4.43,4.43,0,0,0,162.06,24.77ZM48.19,162.46l-.64-.13C49,162.19,48.59,162.32,48.19,162.46Z"/><path class="cls-1" d="M10.55,11.25a.44.44,0,0,1-.38,0C10.06,11.53,10.12,11.6,10.55,11.25Z"/><path class="cls-1" d="M5.56,116.82v.11a.26.26,0,0,0,.09.11Z"/><path class="cls-1" d="M121,5.29A5.11,5.11,0,0,1,119.71,5C119.68,5.16,120,5.26,121,5.29Z"/><path class="cls-1" d="M162.94,42.25l-.12-2.1a8.78,8.78,0,0,1-.16,1.89C162.77,42,162.93,41.59,162.94,42.25Z"/><path class="cls-1" d="M160,60.48c.06.3,0,.65.06,1l.23-.08C160.23,60,160.05,59.13,160,60.48Z"/><path class="cls-1" d="M161.34,44.19c-.41.17-.27,1.49-.19,3a1.13,1.13,0,0,1,0-.26C161.71,47.32,161.53,45.75,161.34,44.19Z"/><path class="cls-1" d="M161.16,47.49c0,.45,0,.91,0,1.36C161.4,49,161.22,48.3,161.16,47.49Z"/><path class="cls-1" d="M162.39,29c-.1.7.52.44.35.83C163.26,30.64,162.12,25.21,162.39,29Z"/><polygon class="cls-1" points="160 45.38 160.5 44.86 160.1 44.03 160 45.38"/><path class="cls-1" d="M160.37,33.77l-.14,2.35c.08,0,.13.26.17.63A13.73,13.73,0,0,0,160.37,33.77Z"/><path class="cls-1" d="M160.4,36.75a11.31,11.31,0,0,0,.08,1.89C160.48,38.23,160.46,37.35,160.4,36.75Z"/><polygon class="cls-1" points="159.85 42.17 159.96 41.48 159.99 39.81 159.85 42.17"/><path class="cls-1" d="M153.89,9.86s-2-1.66-2-1.66c-.31,0,.16.5.91,1.1C153.35,9.6,154.05,10.27,153.89,9.86Z"/><path class="cls-1" d="M157.1,16.94a3,3,0,0,1-.14-1.16l-.58.22Z"/><path class="cls-1" d="M153,11.12a3,3,0,0,1-.51-.34l-.75-.47c-.41-.23-.49-.22.64.8C152.63,11.16,154.39,12.87,153,11.12Z"/><polygon class="cls-1" points="117.05 3.59 117.7 3.58 117.61 2.56 117.05 3.59"/><path class="cls-1" d="M83,6c3,.24.72-.63,3.47-.33.71-.24-2.25-.25-1.52-.45C83.1,5.5,82.13,5.36,83,6Z"/><path class="cls-1" d="M84.93,5.25c.3,0,.61-.09.94-.16A6.56,6.56,0,0,0,84.93,5.25Z"/><path class="cls-1" d="M161.72,143.75a8.92,8.92,0,0,0,.35-1l.28-1.06-.28.67c-.14.33-.29.65-.29.65Z"/><path class="cls-1" d="M161.61,139.6l.67-.46-.53-1.29A5.76,5.76,0,0,1,161.61,139.6Z"/><path class="cls-1" d="M6.3,52.14,6.14,52a4.16,4.16,0,0,0-.21,1.68Z"/><polygon class="cls-1" points="5.81 78.65 5.83 78.19 5.24 79.05 5.81 78.65"/><path class="cls-1" d="M6.56,100.9c0-.9-.11-2-.08-2.88C6.58,100,5.83,101.15,6.56,100.9Z"/><path class="cls-1" d="M103.67,88c.53,0,.34-.38.42-.46C103.21,87.62,103.7,88.09,103.67,88Z"/><polygon class="cls-1" points="95.04 88.93 95.19 88.76 93.92 89.18 95.04 88.93"/><path class="cls-1" d="M85.85,89.44a.53.53,0,0,0,.21-.31,8.71,8.71,0,0,0,2.5,0,13.73,13.73,0,0,1,2.77-.07l.23.17.65-.58L89,88.87a29.55,29.55,0,0,1-3.15.1C85.88,89.15,85.87,89.3,85.85,89.44Z"/><path class="cls-1" d="M84.3,95.1c.14-.14.2.1.21.12s0,0,0-.19,0-.2,0-.35,0-.16,0-.26,0-.1,0-.16,0-.2,0-.31c0,.17,0,.23-.07.32S84.32,94.69,84.3,95.1Z"/><path class="cls-1" d="M84.32,94.27c0-.75-.07-.51-.1-.19a.93.93,0,0,0,0,.31S84.26,94.41,84.32,94.27Z"/><path class="cls-1" d="M84.48,98.2l-.25-1.12c-.16.24-.2,1.23-.32.86C84.05,99.09,84.21,98.86,84.48,98.2Z"/><path class="cls-1" d="M85,99.26l-.11-.58C84.83,98.79,84.8,98.94,85,99.26Z"/><path class="cls-1" d="M84.67,97.45l.22,1.23c.12-.16.35-.18-.08-.56C85,98.22,84.82,98,84.67,97.45Z"/><path class="cls-1" d="M84.78,96.76c.16-.63.25-1.44.5-.32C85.18,94.3,84.68,94.61,84.78,96.76Z"/><path class="cls-1" d="M86.58,90.6a2.73,2.73,0,0,0,.14-.81l.13.08.64-.24a3.25,3.25,0,0,1-.94,0C86.5,90.08,86.46,90.54,86.58,90.6Z"/><path class="cls-1" d="M84.11,105.18c.15.07.4-.38.6-.46l-.18-.83C84.43,104.32,84.33,105.12,84.11,105.18Z"/><path class="cls-1" d="M84.71,104.72,85,106C85,104.85,84.87,104.65,84.71,104.72Z"/><polygon class="cls-1" points="85.79 99.46 85.24 97.43 85.8 99.86 85.79 99.46"/><polygon class="cls-1" points="84.09 109.91 83.74 109.21 84.27 110.46 84.09 109.91"/><path class="cls-1" d="M84.15,113c-.29-.51-.49.72-.67.17a7.93,7.93,0,0,0,.53,2.23A5.47,5.47,0,0,1,84.15,113Z"/><path class="cls-1" d="M84.33,116.54a9.42,9.42,0,0,0-.32-1.1A4.45,4.45,0,0,0,84.33,116.54Z"/><path class="cls-1" d="M84.89,108.07a1.42,1.42,0,0,0-.43,1l.43-.49Z"/><path class="cls-1" d="M84.9,108.54h0c0,.53,0,.9,0,1.06C84.87,109.47,84.88,109.15,84.9,108.54Z"/><path class="cls-1" d="M84.9,107.94a.57.57,0,0,0,0,.13S85,108,84.9,107.94Z"/><path class="cls-1" d="M85.41,102.71c.23.73.49,2.24.85.78C86,103,85.76,103.8,85.41,102.71Z"/><path class="cls-1" d="M85.43,107.34l.1-1.32c-.12,0-.28.27-.4-.09Z"/><polygon class="cls-1" points="85.56 107.98 85.43 107.34 85.39 107.83 85.56 107.98"/><path class="cls-1" d="M84.73,114.29a6.93,6.93,0,0,1,.24,1.89,21.72,21.72,0,0,0,.12-2.27C85,113.81,84.72,113.48,84.73,114.29Z"/><path class="cls-1" d="M84.85,111.49l0,.13C84.91,111.54,84.92,111.48,84.85,111.49Z"/><polygon class="cls-1" points="84.96 123.09 85.04 122.98 84.97 122.95 84.96 123.09"/><path class="cls-1" d="M85.17,113.79a2.07,2.07,0,0,0-.15-1.23c0,.42.07.87.07,1.35C85.15,114,85.19,114,85.17,113.79Z"/><path class="cls-1" d="M84.53,118.47c.09-.3.17-.63.24-1C84.63,117.78,84.42,118.37,84.53,118.47Z"/><path class="cls-1" d="M84.76,111.81s0,0,0-.08C84.65,111.91,84.69,111.89,84.76,111.81Z"/><path class="cls-1" d="M84.76,111.81a4.38,4.38,0,0,0,.26.75,7.81,7.81,0,0,0-.14-.94A.88.88,0,0,1,84.76,111.81Z"/><path class="cls-1" d="M87.7,125.18c-.39-.1-.76-1.58-.33-2.87-.3-1.26-1.6-.43-2.33.67.17,0,.33,0,.57,1.34.21-.46.5-2.89.86-1.79.2,1.72-.14,1.41-.35,2.25.5-.71.72,2.19,1.44,1.81l-.25-1.51C87.42,125.06,87.6,125.6,87.7,125.18Z"/><path class="cls-1" d="M85.08,120.5l0-.53a7.06,7.06,0,0,1-.54,1.85c.2.89.34,1.07.48,1.13l0-2.63Z"/><path class="cls-1" d="M85,117.57c.43.42.61,1.7,1.08.91,0-1.57-.36-1.1-.55-2,.11,2.53-.24-.73-.48,1.1a11.78,11.78,0,0,1-.11-1.37c-.06.46-.12.9-.2,1.31a.14.14,0,0,0,0-.06h0c0-.11.09-.14.06,0s0,0,0,0a.56.56,0,0,1,.16.12c-.09.73-.12.11-.16-.12l-.07,0h0L85,120A16.76,16.76,0,0,0,85,117.57Z"/><path class="cls-1" d="M87.19,104.84c0,.08-.07.07-.1.08S87.18,105.15,87.19,104.84Z"/><path class="cls-1" d="M86.93,105.88a1.57,1.57,0,0,1-.19-.94c.13-.52.21,0,.35,0-.11-.36-.31-1.26-.52-.13l.06.18a4.89,4.89,0,0,1-.74,2.15A3.56,3.56,0,0,0,86.93,105.88Z"/><path class="cls-1" d="M86.09,111.8l.21,2.11.37-1.08-.22.06C86.54,111.69,86.26,112,86.09,111.8Z"/><polygon class="cls-1" points="84.75 123.33 84.29 123.05 84.94 124.27 84.75 123.33"/><polygon class="cls-1" points="84.8 126.08 84.41 125.97 84.64 126.7 84.8 126.08"/><path class="cls-1" d="M65.05,53.1l0-.68A4,4,0,0,0,65.05,53.1Z"/><path class="cls-1" d="M64.86,57.79l.19.11C65,57.7,64.87,57.61,64.86,57.79Z"/><path class="cls-1" d="M69.75,107.2c.37-.9,1-1.91.5-1.8l-.43.27A4.33,4.33,0,0,1,69.75,107.2Z"/><path class="cls-1" d="M50.37,77.82l-.13.27c.15.22.29.42.41.61C50.57,78.43,50.47,78.13,50.37,77.82Z"/><path class="cls-1" d="M48.57,77.18,48.85,76A7.86,7.86,0,0,0,48.57,77.18Z"/><path class="cls-1" d="M78.68,31l.57-.72C78.06,30.76,78.68,30.74,78.68,31Z"/><path class="cls-1" d="M73.45,137.93a10.85,10.85,0,0,0-1.94-.26C72.45,137.92,73.21,138.29,73.45,137.93Z"/><path class="cls-1" d="M69.55,55.16c-.07-.36-.15-.52-.24-.51C69.37,55,69.44,55.23,69.55,55.16Z"/><path class="cls-1" d="M70.53,137.67c0,.05.06.07.09.1l.31-.08a.39.39,0,0,1,.15,0h.43l-.27-.06-.12,0,0,0a.47.47,0,0,0-.15-.06C70.83,137.48,70.72,137.52,70.53,137.67Z"/><path class="cls-1" d="M92.73,68.49a1.29,1.29,0,0,1,.21.06C93,68.49,92.87,68.48,92.73,68.49Z"/><path class="cls-1" d="M103.16,82.7c0-.26.06-.67.11-1.07A4.66,4.66,0,0,0,103.16,82.7Z"/><path class="cls-1" d="M84.61,136.65c0-.18,0,0,0,0Z"/><path class="cls-1" d="M86.33,134.29c0,.12.11.22.21.23A.43.43,0,0,1,86.33,134.29Z"/><path class="cls-1" d="M67.2,136.5v-.05C67.11,136.63,67.13,136.6,67.2,136.5Z"/><path class="cls-1" d="M84.81,136.25a1.12,1.12,0,0,1-.13.37.28.28,0,0,0,.06-.08S84.78,136.49,84.81,136.25Z"/><path class="cls-1" d="M84.61,136.36c0-.2,0-.36,0-.51S84.53,135.85,84.61,136.36Z"/><path class="cls-1" d="M84.64,136.89a.61.61,0,0,1,0-.27s-.05,0-.07,0S84.62,136.77,84.64,136.89Z"/><path class="cls-1" d="M108.58,45.26a1.36,1.36,0,0,1,0,.17C108.72,46.23,108.69,45.88,108.58,45.26Z"/><path class="cls-1" d="M65.25,93.21s0,0,0,0a.43.43,0,0,1,0,0Z"/><path class="cls-1" d="M64.74,92.75a4,4,0,0,1,.43-.24c.27,0,.21.36.11.67a7.26,7.26,0,0,0,.63-.59c.31-.32.62-.7.62-.7-.35,0-.71.13-.71,0C65.42,92.16,65.07,92.46,64.74,92.75Z"/><path class="cls-1" d="M68,41.85s-1,1.32-1,1.32a9.35,9.35,0,0,1,.23-1.39l.31-.9c.12-.41,0-.44-.59.14.49.41-.13,1.89-.72,3.39s-.92,3.06-.26,3.33l-.49,1c.07-.29,0-.36.08-.64-1,1.88.56,1.68.08,4.18-.21.87-.48,1.48-.57.86v.31c0,.19.06.44.09.7l.13,1c0,.57-.28.43-.23-.15v1.52l0,1.45,0,0a13.39,13.39,0,0,1,.69,1.8c-.2.73-.15-.37-.32-.18l.33,1.59c-.35.65-.69-.67-.64-1.77-1.36,1.48.34,1.32-.45,4.52l-.17-1.5c-.77,1-.49,2.14-1,3.84.25-.4,1.21-3.4,1.54-1.67a4,4,0,0,0,.13,2.06c-.24,0-.34.28-.36.55a2.62,2.62,0,0,0,0,.54l-.64-.27c.18.35.51.56.8,1.08a.34.34,0,0,1-.06.17,2.38,2.38,0,0,1-1.15-.92c-.2,0-.07.15.13.37s.52.48,0,.54a1.78,1.78,0,0,0-.52-.09c-.34,0-.79,0-1.19.06-.82.08-1.69.24-2.78.43-1.28-.22.23-.39-.23-.57L58.08,69c-.27,0-.18-.17-.14-.25-.95.2-.08.64-1.58.81-.2.36-1,.1-1.92-.15a9.57,9.57,0,0,0-4.25-.08c-.81-.18,0-.39-.36-.63a5.22,5.22,0,0,0-1.38.26c.12,1.24.19,1.88.3,2.56S49,72.9,49.27,74c0,0,0,.14-.06.36a7,7,0,0,1-.15.72c-.1.45-.21.89-.21.89.48-1.31,1,.37,1.52,1.83.23-.46.43-.86.53-1.13L51.24,79c-.1.29-.32,0-.59-.33.05.16.11.31.16.43-.24.83-.61.4-1-.2l.4-.84c-.39-.58-.82-1.12-1.2-1a2.56,2.56,0,0,1,.18.77c-.11-.16-.2-.25-.27-.18s.08.32.24.7l-.71.54.28.13-.45,3.06c.36,1.09.81,2.11,1.2,3.3.1.3.19.6.28.92s.17.74.25,1.09a20.38,20.38,0,0,1,.34,2.33c-.26-.24-.47-.18-.7,0a5.28,5.28,0,0,1-.77.81A5.35,5.35,0,0,0,49,87.87c-.06-.5-.13-1-.21-1.59A6.52,6.52,0,0,1,48.76,85c-.06.94-.36.73-.46.49,0,0,0,.21.09.51,0,.15.06.32.1.51s.07.56.11.83c.14,1.11.29,2.23.29,2.23-.5.16-.38,1.21-.59,2.69.29-.54.46-.51.58-.2,1.25-.29,3.65-.18,4.93-.4.1.33-.4.68-2.73.59A4.24,4.24,0,0,0,54,92l.29-.12.22-.1a2.2,2.2,0,0,1,.45-.17,1.81,1.81,0,0,1,1.11.08c-.39,0-.6,0-.75.13.9-.3,3.13-.07,2.6.23h-.38a46.29,46.29,0,0,0,5,0,6.92,6.92,0,0,0,1.77-.28,2.65,2.65,0,0,0,1-.51c-.07.11-.86,1-1,1.2a3.39,3.39,0,0,1,1.73-.8,2.48,2.48,0,0,1,2.07,1.25c-.36-.13-1,.41-1.56.6s-1.12.18-1.32-.21a2.53,2.53,0,0,0-.12.56,1.2,1.2,0,0,0,0,.32c0,.07,0,.09,0,.22s0,.3.08.46c.1-.46,1.06-.92,1.12-.47a15,15,0,0,0-1.13,3c.16-.63,1.31.07,1.27,1.07-.17-.16-1.13.08-1.25-.28l1.13,2.47c-.21-.62-1-.11-1.28.45.22-.26,0,2.14.09,2.8l.27-1c-.17,2.79,1.58,2.76,1.52,5.53a.87.87,0,0,0-1.57.58c.57.65,2.77,2.86,3.21,5.32l-.33.47.38,1.88a38.32,38.32,0,0,1-3.4-6.26c-.26,1-.39.29-.36,1.86-.31.55-.47-.85-.49-1.31l-.2,3.64c.67-.16.68,2.79,1.24,2.65l-.7-4c.67-.16,1.91,2.29,1.79,4.88-.27.66-1.2-.49-1.42-.44a6.5,6.5,0,0,1,.28,2.69l-.36-1.1c-.26,1.44.89,2.35.25,4.08,0,.6-.87,1.78-.47,1.89.77-1,3.14-1.17,3.72-.52a30.41,30.41,0,0,1-1.12,3.82c-.6,1-1.43-1.48-1.95-.64.19,0,.41.58.49.8-.16.63-.57-.26-.49,1.1.68.23-.06,2.77.58.65.19,1.33-.14,1.41-.11,3,.44-.5,1.49,1.4,1.69,2.74-.17-.08-.4.22-.5.36,0,1.55-.15,2.77-.24,4.11.89.08,1.88.14,3.13.14a6.41,6.41,0,0,0,.83.28c.34.11.47.23.22.38a3.86,3.86,0,0,1,1.49-.37c1.52.59-1.75.09-.6.8.1-.4,2-.55,3.15-.79-.34-.62-2.58-.12-3.7.13,0-.85,1.94-1.73,4.61-2.12,2.11-.21.91.54,1.28.42a7.22,7.22,0,0,0,3.59-.6,4.46,4.46,0,0,1,1.22-.36,4,4,0,0,1,.8,0,4.57,4.57,0,0,1,.5,0l.32.09c.42.27.57.53.54.78s-.17.48,0,.68c-1.61.2-2.62-.35-3.76-.32L82,140a5.49,5.49,0,0,1-2.33.16c.89.38,4.53.21,7.85.35,0-.79.1-1.52.19-2.18-.18-.7-.37-1.65-.59-1.25l.08,1c-.22.33-.37-.19-.49-.57s-.21-.68-.31-.23c-.08-.27-.17-.53-.25-.77s-.16-.71-.23-1.08a8.18,8.18,0,0,1-.06-2.49l.61-.35c-.18,0-.36,1.2-.18,1.72-.27-.77.83-2.81,0-3.65l-.42,1.29a13.12,13.12,0,0,1-.77-4.55c-.61.74.07.38-.64,1.53.88-1,0,4.15.89,2.54-.82,1.19-.35,2.05-1,3.6.2,0,.39-.55.29.81a2.16,2.16,0,0,1,.18.3s0,.06,0,.1a.24.24,0,0,0,0-.08c0,.06,0,.06,0,0a1.72,1.72,0,0,1,.31-.69,17.77,17.77,0,0,1,.69,2.57c-.1.41-.23-.35-.45-.24,0,0,.36.86.36.89a.37.37,0,0,0-.12-.07c-.29-.19-.67-.35-.87-.5s-.24-.27-.07-.39l-.57,0a2.38,2.38,0,0,0-.56-.24,3.39,3.39,0,0,0-.62,0,3.94,3.94,0,0,0-.73.09c-.81-.1-2,.5-1.34.15l-2.68.27,0-.11c-1.33,0-2.69.16-4.1.25a17.25,17.25,0,0,1-2.16,0l-.55,0-.25,0L71,138a.88.88,0,0,1-.37-.24,2.67,2.67,0,0,1-1,.18,3.47,3.47,0,0,1,0-.39l.2-.2.19-.18c-.07-.12,0-.42.09-.62l0-.07s0,0,0-.15,0-.35,0-.5a1.18,1.18,0,0,0-.16-.66c1-1.24.23-5.57.42-7.58l-.51-.08a32,32,0,0,0-.32-4.44l-.45.1c-.37-1.48.32-3.82.27-6.17.18.16.13.76,0,1.18,1-2.81-.74-5.92,0-8.47a3,3,0,0,1,0-1.54.65.65,0,0,0,0,.16v-.26c.08-.28.17-.57.24-.88a3.94,3.94,0,0,0-.24.74,14.63,14.63,0,0,0-.18-2l.49-.31c0-.06,0-.1,0-.17.18-.71-.23-.57-.59-.19a4.77,4.77,0,0,0-.29-1c.78-.58-.26-1.91.57-2.7-.41-.49-.3-3.66-1.16-4,.12,0,.17-.24.17.15a5.46,5.46,0,0,0,0-2.35l.61-.34-.13-.28c-.07-.18-.18-.35-.28-.64-.21-.61-.41-1.1-.41-1.1.37-1.44.59-2.39,1.06-1a28.42,28.42,0,0,1-.52-3.2,22.27,22.27,0,0,0-2.84.48l.35-.4c-1.1,0-3,.55-3.3.22a19,19,0,0,0-5.21-.42H56l-1.77,0a7.63,7.63,0,0,1-1.77-.24l.09-.4c-.59.74-.46.31-.29-.16s.36-.87-.1-.82c.28-.23.44-.49.68-.22a1,1,0,0,1-.06-.35q0-.37,0-.72c0-.46,0-.87.08-1.25a4.16,4.16,0,0,0-.35-2.25c.28-.27.4.49.57.25-.06-.18-.24-.73-.08-1s.24.34.36.7c0-2.34-.9-2.58-1.7-2.75a2.67,2.67,0,0,0-.2-2.64c.26-.42.54-1.11.63.35,0-.2,0-.62.07-1.13s0-1,.06-1.51a2.07,2.07,0,0,0-.39-1.53c.14,0,.08-.47,0-.76a.19.19,0,0,0,.08,0,22.09,22.09,0,0,0,2.57,0s-.38-.1-.38-.1c.18-.39.64-.43,1.08-.39a9.63,9.63,0,0,0,1.76.12l0,.08c3.34.56,1.45-.26,4.74.37l-.18-.48c.16-.52.89-.36,1.82-.13a11.57,11.57,0,0,0,3.87.34l-1-.27a5.66,5.66,0,0,1,2.47.42,5.86,5.86,0,0,0,1.12-2.61c.09-.34.14.65.21,1.23.3-2.19.14-2.45-.11-2.48a.53.53,0,0,1-.4-.22,1.38,1.38,0,0,1-.17-.44c0-.1,0-.23-.06-.37s0-.26,0-.42c.34-.38.86.49.93-.89.27-.69-1.1-4-.45-5.88-.26.42-.53.83-.72-.12a14.41,14.41,0,0,1,.35-2.68,3.8,3.8,0,0,0-.12-2.49c.08-.18.15-.24.22-.24,0-.27-.09-.62-.11-1s0-.8,0-1.2A7.72,7.72,0,0,0,69,50.49c.94-.33,1-2,1.3-3.44.07-.37.11-.75.2-1.08a7.15,7.15,0,0,1,.31-.87c.22-.49.47-.75.82-.58a3.86,3.86,0,0,1,.19-.46l.5-1,.51-1c.16-.24.28-.4.28-.4l.08.15a7.73,7.73,0,0,0,1.66-3.07c.39-.28.26.08.29.16.55-.49,1.06-.78,1.42-1.09s.65-.56,1-.79c.58-.47,1-1.1,1.92-2l.47.31a2,2,0,0,1,.88-.47l1.7-.49c.65-.18,1.4-.29,2.12-.52a16.49,16.49,0,0,0,2.17-.67.5.5,0,0,1-.27.29c1.55-.64,3.6-.46,5.31-.31s3.31.32,4-.58l2.32-.37c-3-.24.47-.77-.75-1.11,1.19-.07,3,.64,1.58.68l-.22-.09c-.58.94,3.71.41,3.58,1.11l1.83.17,1.23.15c.09,0,.22,0,.27.06l0,.33,0,.62,0,.61,0,.29,0,.43c-.13,2.88-.27,5.72-.29,8.5l.73-.64,0,1.89c-.09.16-.23.24-.35.19s-.21-.07-.2-.85a1.29,1.29,0,0,0-.12.63,1.19,1.19,0,0,0,.16.38,3.69,3.69,0,0,0,.47.68c-.15.75-.36.36-.54,0s-.32-.68-.33-.52l0,.48.09-.05a4.75,4.75,0,0,1,.51,1.12,1.31,1.31,0,0,1-.63.07c-.69-.14-.55-.45-.76-.48,0,0-.09-.07-.3,0l-.64,0-1.22,0,1,.58c-1.08.28-2.3,0-1.17.62-.84-.49-3.07-.6-5.34-.58a16.39,16.39,0,0,0-1.73.11,13.66,13.66,0,0,0-1.57.24,12.65,12.65,0,0,0-1.24.3c-.35.07-.61.15-.76.18A17,17,0,0,0,89,50.05a9.08,9.08,0,0,0-1.87,2.46c.19-.22.46-.32.57-.17s0,.53-.29,1.33c-.51-.54-1,.21-1.26,1.27a12.31,12.31,0,0,1-.92,3c.63-1.12.14,4.6,1,2.78-.11,1.33-.5.08-.81,1.09a20,20,0,0,1,.1,4.34c0,.42,0,.85-.08,1.28,0,.59,0,1.19-.08,1.8-.06,1.22-.1,2.5-.12,3.79.91,0,1.85,0,2.8,0,.15-.17-.59-.44.7-.7,0,0,.6.22,1.32.43l1,.31c.26.08.34.13.36.13.77-.08.71-1,2.13-.4-.2-.15-.5-.37,0-.43a55.12,55.12,0,0,0,6.44.28c1,0,2.36,0,2.79-.06l2-.07c-.06.51-.12,1-.2,1.56s-.16.89-.34,1.91a36.87,36.87,0,0,1-1.34,5.13c.47-1,.42-.3.33.5.15-.51.43.07.68,0l-1.08,3.16c.58.67-.4,3.48.18,3.9l0-1c.56,1.46,1.89-1.7,2.82-1.38-.65-1.64,1.76-3.87.88-6.53.27-.53.25.51.51.24a4,4,0,0,1,0-2.87l.08.18c.07-.63.14-1.2.21-1.74.12-.75.22-1.46.33-2.14.22-1.39.48-2.74.77-4.31-1.56-.1-3.46-.22-6.1-.32l.23.23.22.24-.87-.06-.41-.08-.62-.19c-.56.36.12.37.82.39l.63,0a3.54,3.54,0,0,1,.55.06c.27.06.3.16-.07.36a2.59,2.59,0,0,0-.88-.28,6.09,6.09,0,0,0-1-.14c-.71-.07-1.56-.07-2.39-.08-1.66,0-3.28-.06-3.71-.61-1.5,0,.44.55-1.06.54l-.4-.29-.37.38c-1-.06-1.48-.43-1.52-.69a6,6,0,0,0,.93-.09,6.21,6.21,0,0,0-2.43,0l.47.18a9.74,9.74,0,0,1-1.25.1c0-1,0-2,0-3a38.86,38.86,0,0,0-.36-5l-.22.3a8.29,8.29,0,0,1,0-2.73c.11-.6.19-1.25.33-2.69l0,.11a3.4,3.4,0,0,1,.27-2.05c0,.38.22.1.47,0s.46-.29.41.11a4.45,4.45,0,0,1,.45-1,4.11,4.11,0,0,0,.2-.44A2.37,2.37,0,0,1,91.61,51l.55.17a2.2,2.2,0,0,1,.59-.62,3.53,3.53,0,0,1,1.36-.54c-1.16.55,1,.39-.23,1.05a14.37,14.37,0,0,0,3.71-.23,3.25,3.25,0,0,1,2.67.32c1.59-1-3-.57-2.11-.79-.75-.33,1.32-.76,2.4-.66a4.56,4.56,0,0,1,1.71.66,5.87,5.87,0,0,0,1.24.44,16.09,16.09,0,0,0,2.64.19c-.42,0-.42.07-.84.07a8.32,8.32,0,0,0,1.93,0,13.65,13.65,0,0,1,2-.09,5,5,0,0,1,.14-.94,4.89,4.89,0,0,1-.31-1.9c0-.52-.05-1-.44-1.23l.18,3.62c-.21-2.28-1.13-4.48-.68-6.7a4.68,4.68,0,0,1,.48,1.39c.24-.72-.15-1.35.09-2.08.4.11.44.88.46,1.83,0,.32,0,.65,0,1s0,.75,0,1.13a13.23,13.23,0,0,0,.27,2.2,9.67,9.67,0,0,0-.06-2.6c-.08-.85-.09-1.4.34-.74a3.47,3.47,0,0,1-.31-.73,1.78,1.78,0,0,1-.14-.5,5,5,0,0,1,0-1.09,4.92,4.92,0,0,0-.25-2.61l.48.13a5.43,5.43,0,0,1-.29-1.47l.62,1c-.53-1.52.46-2.94.17-4.41,0,3.07-.57.69-.92,2-.31-1.89,0-2.44.36-3,.36-.89.77-2.21.65-5.85a11,11,0,0,1-.14,2.13c-.11.67-.25,1-.36.33.05-.68.12-1.48.21-2.27v-.15c0-.05,0-.11,0-.1l-.22-.06-.41-.11a5.46,5.46,0,0,1-.66-.23c-2.47-.17-2.3,0-1.87.16s1.12.41.11.47a2.63,2.63,0,0,0-1.82-.24l-1,.19a4,4,0,0,1-.84.16l0-.49c-1.63-.31-1.85,0-2,.21s-.34.47-1.78.24l1.26-.63L99,29.13l.34-.54a8.86,8.86,0,0,1-3.8,0c.37.35-.24.87-1.67.84-1-.32.56-.45-1.48-.44a1.57,1.57,0,0,1,1.85-.18c.1-.15.46-.29.56-.44a9.71,9.71,0,0,0-3.45-.12,4,4,0,0,1,.85.08l-1.55.4-1,.27c-.28.07-.47.14-.47.14-.5-.12-.13-.32.24-.5-.63.12-1,.4-2,.55.19-.42.07-.81,1.39-1.15l-1.48.39c-.37.11-.74.19-1,.29l-.45.16c-.22-.13-1.63-.13-1.27-.36a8,8,0,0,0-2.86,1.06c-.51.24-1,.54-1.53.81a8.56,8.56,0,0,1-1.6.66,2.14,2.14,0,0,1-.65.59c-.47.24-1,.45-1.43.66s-.92.5-1.38.78a8.21,8.21,0,0,0-2.55,2.37,5.35,5.35,0,0,0-.76.26l-.76.31c-.63.81-.12.58.27.5s.67,0-.32,1.27c-1.19,2-1,.34-1.63.89l-.35,1c-.11.39-.22.82-.38,1.25a8.47,8.47,0,0,1-.6,1.31,6.46,6.46,0,0,1-.82,1.33A9,9,0,0,1,68,41.85Zm-3,22.64c-.1-.43-.41-1.28-.13-1.59C65.5,63.39,65.23,63.76,65.07,64.49ZM49.44,81.05a1.92,1.92,0,0,1,.1-1.35A3.78,3.78,0,0,1,49.44,81.05ZM83.74,138v0C83.34,137.81,83.48,137.89,83.74,138Zm.92.21c0-.07,0-.14-.09-.21,0,.13-.16.13-.39.1A.37.37,0,0,0,84.66,138.19Zm19.49-91,.25.13C104,47.42,104.07,47.29,104.15,47.15Z"/><path class="cls-1" d="M48.78,77.27a.43.43,0,0,1,.26-.18C49,76.92,48.87,76.92,48.78,77.27Z"/><path class="cls-1" d="M78.58,31.11l.07,0a.26.26,0,0,0,0-.11Z"/><path class="cls-1" d="M65.29,128.65a2.18,2.18,0,0,1,.25-.78C65.42,127.84,65.33,128,65.29,128.65Z"/><path class="cls-1" d="M84.4,131.1l.12,1.26a3.06,3.06,0,0,1,.16-1.14C84.57,131.25,84.4,131.49,84.4,131.1Z"/><path class="cls-1" d="M87.38,120.14c-.06-.18,0-.39-.07-.57l-.22.05C87.11,120.41,87.28,121,87.38,120.14Z"/><path class="cls-1" d="M86,129.93c.4-.1.27-.89.19-1.78a.85.85,0,0,1,0,.16C85.62,128.05,85.81,129,86,129.93Z"/><path class="cls-1" d="M86.18,128a5.61,5.61,0,0,1,0-.82C85.94,127,86.12,127.46,86.18,128Z"/><path class="cls-1" d="M85,137.43c.1-.1-.52-.41-.36-.38-.26-.19-.1,0,.09.34S85.08,138,85,137.43Z"/><polygon class="cls-1" points="87.34 129.21 86.83 129.53 87.24 130.02 87.34 129.21"/><path class="cls-1" d="M87,136.19l.14-1.41c-.09,0-.14-.16-.17-.38C86.92,135.27,86.82,136.22,87,136.19Z"/><path class="cls-1" d="M86.94,134.4a4.12,4.12,0,0,0-.09-1.14A8.48,8.48,0,0,0,86.94,134.4Z"/><polygon class="cls-1" points="87.49 131.14 87.38 131.56 87.34 132.56 87.49 131.14"/><path class="cls-1" d="M76.28,139.84l-1.55.14c-.15.18.27.28.84.21C75.94,140.07,76.51,140,76.28,139.84Z"/><path class="cls-1" d="M80.94,141.21a1.32,1.32,0,0,1-.68-.38l-.05.62Z"/><path class="cls-1" d="M76.44,141.36c-.15.17-2.24.49-.28.45C76.31,141.64,77.86,141.5,76.44,141.36Z"/><polygon class="cls-1" points="67 126.27 67 126.66 68.02 126.6 67 126.27"/><path class="cls-1" d="M64.56,105.8c-.24,1.82.63.43.32,2.08.24.43.25-1.35.46-.91C65.09,105.87,65.23,105.29,64.56,105.8Z"/><path class="cls-1" d="M65.34,107a5,5,0,0,0,.16.57A3.53,3.53,0,0,0,65.34,107Z"/><polygon class="cls-1" points="102.07 86.89 101.71 88.03 102.15 87.32 102.07 86.89"/><path class="cls-1" d="M102.53,89.23l-.68.19.5.77A1.76,1.76,0,0,1,102.53,89.23Z"/><path class="cls-1" d="M63.77,67.17l.15,0c.09,0,.13,0,.16,0s0,0,0-.34l-.06.14a.35.35,0,0,1-.06.14l-.06,0Z"/><polygon class="cls-1" points="64.61 51.44 64.56 51.73 65.21 51.26 64.61 51.44"/><path class="cls-1" d="M69.47,37.24c-.4.51-.73,1.19-1.13,1.7C69.07,37.74,70.15,37.55,69.47,37.24Z"/></g></g></svg>