<svg xmlns="http://www.w3.org/2000/svg" viewBox="0 0 163.86 162.87"><defs><style>.cls-1{fill:#383e33;}</style></defs><g id="Camada_2" data-name="Camada 2"><g id="Layer_1" data-name="Layer 1"><path class="cls-1" d="M162.43,137.16c0,.87.39.55.46.69C162.8,136.39,162.32,137.19,162.43,137.16Z"/><polygon class="cls-1" points="161.48 122.78 161.65 123.04 161.23 120.92 161.48 122.78"/><path class="cls-1" d="M161.49,109.34c-.71,1.27.12,4.87-.14,7.27l-.16.39.57,1.08C161.67,115.17,161.29,111.39,161.49,109.34Z"/><path class="cls-1" d="M163,102.17c-.27.44-.24-1.55-.08,1.67a1.94,1.94,0,0,1,.07-.3C163,103.25,163,102.85,163,102.17Z"/><path class="cls-1" d="M163,103.54c0,1.42.23-.93,0,0Z"/><path class="cls-1" d="M162.86,97l.25,1.87c.16-.39.2-2.05.32-1.43C163.29,95.52,163.13,95.92,162.86,97Z"/><path class="cls-1" d="M162.34,95.24l.1,1A1.33,1.33,0,0,0,162.34,95.24Z"/><path class="cls-1" d="M162.66,98.25l-.22-2c-.11.27-.34.3.08.94C162.31,97,162.51,97.38,162.66,98.25Z"/><path class="cls-1" d="M162.56,99.41c-.16,1-.26,2.4-.5.53C162.15,103.5,162.66,103,162.56,99.41Z"/><path class="cls-1" d="M160.75,108.65l-.21,1.4.24,1.21C160.66,110.66,161,108.57,160.75,108.65Z"/><path class="cls-1" d="M163.23,85.39c-.15-.12-.41.62-.6.76l.17,1.38C162.91,86.82,163,85.48,163.23,85.39Z"/><path class="cls-1" d="M162.63,86.15l-.26-2.06C162.34,85.93,162.46,86.27,162.63,86.15Z"/><polygon class="cls-1" points="161.54 94.9 162.09 98.29 161.54 94.25 161.54 94.9"/><polygon class="cls-1" points="163.25 77.52 163.6 78.68 163.07 76.6 163.25 77.52"/><path class="cls-1" d="M163.19,72.3c.29.86.49-1.19.67-.28a20.92,20.92,0,0,0-.53-3.71A15.39,15.39,0,0,1,163.19,72.3Z"/><path class="cls-1" d="M163,66.47c.07.58.2,1.18.33,1.84A11.64,11.64,0,0,0,163,66.47Z"/><path class="cls-1" d="M162.44,80.58a3.09,3.09,0,0,0,.44-1.62l-.43.81C162.45,80,162.45,80.3,162.44,80.58Z"/><path class="cls-1" d="M162.44,79.8v0c0-.88,0-1.49,0-1.75C162.47,78.24,162.46,78.78,162.44,79.8Z"/><path class="cls-1" d="M162.44,80.79v-.21A.18.18,0,0,0,162.44,80.79Z"/><path class="cls-1" d="M161.93,89.5c-.24-1.21-.49-3.73-.86-1.29C161.37,89.08,161.57,87.68,161.93,89.5Z"/><path class="cls-1" d="M161.91,81.79l-.1,2.19c.11,0,.28-.44.39.16Z"/><polygon class="cls-1" points="161.77 80.72 161.91 81.79 161.94 80.98 161.77 80.72"/><path class="cls-1" d="M162.6,70.22a19.93,19.93,0,0,1-.23-3.14c-.08,1.25-.13,2.54-.13,3.77C162.38,71,162.62,71.57,162.6,70.22Z"/><path class="cls-1" d="M162.48,74.88a1.36,1.36,0,0,0,0-.21C162.42,74.8,162.41,74.9,162.48,74.88Z"/><path class="cls-1" d="M162.37,55.57c0,.07-.05.12-.07.19l.07,0Z"/><path class="cls-1" d="M162.16,71.06a5.71,5.71,0,0,0,.16,2c0-.7-.07-1.45-.08-2.25C162.18,70.77,162.14,70.76,162.16,71.06Z"/><path class="cls-1" d="M162.8,63.27c-.09.49-.16,1-.23,1.63A4.57,4.57,0,0,0,162.8,63.27Z"/><path class="cls-1" d="M162.58,74.35a.68.68,0,0,0,0,.14C162.69,74.18,162.64,74.22,162.58,74.35Z"/><path class="cls-1" d="M162.58,74.35a10.47,10.47,0,0,0-.26-1.25c0,.57.08,1.11.14,1.57A1.66,1.66,0,0,1,162.58,74.35Z"/><path class="cls-1" d="M159.63,52.09c.4.16.76,2.64.34,4.78.3,2.1,1.6.72,2.33-1.11-.18-.07-.34-.07-.57-2.23-.22.76-.51,4.8-.86,3-.21-2.86.14-2.34.35-3.74-.5,1.19-.72-3.64-1.45-3l.26,2.51C159.91,52.3,159.73,51.39,159.63,52.09Z"/><path class="cls-1" d="M162.26,59.88l.05.89a16.86,16.86,0,0,1,.53-3.08c-.19-1.48-.34-1.79-.47-1.89l-.05,4.38Z"/><path class="cls-1" d="M162.31,64.77c-.43-.7-.62-2.84-1.08-1.53,0,2.62.36,1.83.54,3.39-.1-4.21.24,1.21.49-1.83.07.83.09,1.57.11,2.28,0-.76.12-1.5.2-2.18l0,.09v0h0c-.06.18-.09.24-.06,0,0,0,0-.06,0-.08a.52.52,0,0,1-.16-.19c.09-1.22.11-.2.16.19,0,0,0,0,.07.05v0l-.23-4.22C162.24,61.66,162.26,62.78,162.31,64.77Z"/><path class="cls-1" d="M160.15,86c0-.14.06-.13.09-.14C160.19,85.55,160.16,85.44,160.15,86Z"/><path class="cls-1" d="M160.41,84.22a4,4,0,0,1,.18,1.56c-.13.87-.2,0-.35,0,.12.6.31,2.11.52.22l-.06-.3a11.87,11.87,0,0,1,.75-3.59A6,6,0,0,0,160.41,84.22Z"/><path class="cls-1" d="M161.25,74.37,161,70.86l-.37,1.79.23-.1C160.8,74.55,161.07,74.12,161.25,74.37Z"/><polygon class="cls-1" points="162.59 55.17 163.04 55.64 162.4 53.61 162.59 55.17"/><polygon class="cls-1" points="162.53 50.6 162.93 50.77 162.69 49.56 162.53 50.6"/><path class="cls-1" d="M5.18,76.19l.11,1C5.25,76.73,5.22,76.42,5.18,76.19Z"/><path class="cls-1" d="M5.2,68.71,5,68.53C5.12,68.87,5.2,69,5.2,68.71Z"/><path class="cls-1" d="M85.31.83c-1.5-.36-3.19-.94-3-.49l.46.43A12,12,0,0,1,85.31.83Z"/><path class="cls-1" d="M10.09,9.52l.41-.2.49-1Z"/><path class="cls-1" d="M10.61,11.5l-.71.58-.5.4a2.7,2.7,0,0,0-.22.19A18.11,18.11,0,0,0,10.61,11.5Z"/><path class="cls-1" d="M5.64,117l.44,1.21C6.08,116.36,5.85,117.19,5.64,117Z"/><path class="cls-1" d="M151.29,5.21a15.11,15.11,0,0,0-3-2q.56.38,1,.72l.81.68C150.61,5,151,5.24,151.29,5.21Z"/><path class="cls-1" d="M.57,73.25c.08.63.17.9.27.88C.76,73.48.68,73.11.57,73.25Z"/><path class="cls-1" d="M144.39,1.71a6.29,6.29,0,0,1,.7.32,15,15,0,0,1,3.2,1.18,8.23,8.23,0,0,0-1.81-1A6.48,6.48,0,0,0,144.39,1.71Z"/><path class="cls-1" d="M117.22,158.05l.34,0C117.59,158,117.44,158,117.22,158.05Z"/><path class="cls-1" d="M158.21,150.76l-.43.75c-.18.28-.41.57-.62.86A7.24,7.24,0,0,0,158.21,150.76Z"/><path class="cls-1" d="M162.72,32.22c0,1,.05.15,0,0Z"/><path class="cls-1" d="M161,36.93c0-.21-.11-.36-.21-.39A.7.7,0,0,1,161,36.93Z"/><path class="cls-1" d="M134.09,3.39H134C134.29,3.47,134.24,3.46,134.09,3.39Z"/><path class="cls-1" d="M162.53,33.67c.05-.36.09-.78.13-1.23A12.26,12.26,0,0,0,162.53,33.67Z"/><path class="cls-1" d="M162.73,33.48c0,.33,0,.6,0,.85S162.81,34.34,162.73,33.48Z"/><path class="cls-1" d="M162.7,30.87c0,.55,0,1.07,0,1.57,0-.2.05-.27.06-.22C162.72,31.93,162.71,31.53,162.7,30.87Z"/><path class="cls-1" d="M37.84,159.21l.2,0C39,159.07,38.59,159.1,37.84,159.21Z"/><path class="cls-1" d="M60.09,5.34l.11,0-.15,0Z"/><path class="cls-1" d="M56.61,5.66a6.61,6.61,0,0,1,3.44-.36L58.9,4.05Z"/><path class="cls-1" d="M5.3,94.1l.39-2.44c.64,3,.42,5.08,1,2.79-1.36-.35-.14-9.51-1.5-9.84L5.45,83c0,.46.07.54,0,1,.65-3.14-1-2.33-.79-6.37.11-1.41.31-2.39.47-1.43l-.34-3.14c0-.91.26-.69.24.22L5,68.49l0,0c-.22-.69-.54-2.23-.68-3,.19-1.21.14.61.31.3l-.33-2.65c.35-1.08.69,1.12.64,3,1.36-2.47-.34-2.2.45-7.54l.18,2.5c.77-1.61.49-3.56,1-6.39C6.3,55.39,5.34,60.37,5,57.5a11.18,11.18,0,0,0-.12-3.43c.48,0,.36-1.53.33-3.42l.64.13c-.18-2.05-.51-1.89-.79-3.09.06-2.29.55-2.76,1-3.29.1-3.66-.79,2.52-.91-1.81a43.77,43.77,0,0,0-.4-8.81c.22-2.13.39.37.57-.39L4.78,31.5c0-.46.17-.31.25-.23-.2-1.59-.64-.13-.81-2.63-.34-.32-.13-1.66.17-3.17.18-.73.27-1.53.47-2.3a12.3,12.3,0,0,0,.24-2.29c.35-.64.3.42.59.27.06-.48.11-.89.15-1.25S6,19.24,6,19c.13-.53.19-.94.3-1.29.25-.71.3-1.42.9-3l.28-.34a6.78,6.78,0,0,1,.66-.71l1-1c-.79.66-.93.41-.71-.32a6.45,6.45,0,0,1,.62-1.3,9.79,9.79,0,0,1,1-1.53,9,9,0,0,0-1.7,1,24.29,24.29,0,0,1,2.68-3c.46-.21.26.21-.08.81l.48-.56c1.27-.65.88.1.33,1a13.92,13.92,0,0,0-1.3.59,6.87,6.87,0,0,0-.5,1.27c-.06.37,0,.63.17.69a3.86,3.86,0,0,1,.74-1c-.1.24-.14.41,0,.38s.32-.39.66-.92h.53l.55,0V9.47l.63-.39c.19-.11.4-.25.64-.38l.78-.38a13.07,13.07,0,0,1,1.46-.65l.68-.25A21,21,0,0,1,21.29,4.7a19.57,19.57,0,0,1,6.9-1.29c-1.44.52-.31.86-.39,1.48a3.75,3.75,0,0,0-1.41-.24,8.8,8.8,0,0,0-1.74.16c-1.22.16-2.54.54-3.9.78,1.42-.26,1.17.16.83.29l.73-.2A10.66,10.66,0,0,1,24,5.28c.62-.1,1.21-.22,1.71-.29l.83-.09c-.12.51,1.14.38,2.53.59-1.05-1,4-.67,6.17-1,.13.33-.39.68-3,.59,2.93.76,3.79-1.17,6.66-.53-.64,0-1,0-1.25.13,1.51-.3,5.22-.07,4.35.23h-.65c4.3.12,13.1,0,13.74-.84a3.29,3.29,0,0,1-.82,1.2l7.68-2.86c-.68.73,1.92,2.47-1.65,2.88a18.64,18.64,0,0,0,4.45,0c-.7-.11-1.74-1.06-.79-1.13a34.3,34.3,0,0,0,5.06,1.13C67.87,5.14,69,4,70.69,4c-.26.17.14,1.13-.47,1.25l4.12-1.13c-1,.21-.18,1,.74,1.27-.42-.22,3.57,0,4.66-.09L78,5.07c4.65.17,4.59-1.58,9.21-1.52-.56.23-1.38,1.43,1,1.57A24.42,24.42,0,0,1,97,1.91l.78.33,3.13-.38a83.91,83.91,0,0,1-10.41,3.4c1.74.26.48.39,3.09.36.92.31-1.42.47-2.19.49l6.07.2c-.27-.68,4.65-.68,4.41-1.24l-6.59.7c-.27-.67,3.81-1.91,8.11-1.79,1.1.27-.81,1.19-.73,1.42a17.79,17.79,0,0,1,4.48-.28l-1.82.36c2.39.25,3.91-.89,6.79-.25,1,0,3,.87,3.13.47-1.62-.77-1.93-3.14-.85-3.72.34,0,5.21.74,6.35,1.11,1.63.61-2.46,1.44-1.07,2,.06-.18,1-.41,1.34-.48,1,.16-.43.57,1.84.49.38-.68,4.61.06,1.07-.58,2.22-.19,2.36.14,5,.11-.83-.44,2.34-1.5,4.56-1.69-.13.17.37.4.61.5A27.64,27.64,0,0,1,145,5.15c.15.16.68.42,1,.7s.55.52.11.48l.94.2a4.22,4.22,0,0,1,1.34.56c.89.89.27.54-.4.18s-1.46-.63-.8.05c.17-.17.91.15,1.84.57a13.31,13.31,0,0,1,1.4.79,13.18,13.18,0,0,1,1.29.82c0-.44-.81-1.11-1.83-1.76a15.62,15.62,0,0,0-3.19-1.39c.16-.36,1.11-.5,2.47-.06.34.1.72.22,1.12.37s.8.38,1.23.61a16.32,16.32,0,0,1,2.68,1.8c2.66,2.61.66,1.54,1.19,1.94.51.69,1,1.28,1.36,1.77s.68,1,1,1.35c.63.75,1,1.35,1.47,1.88a7.44,7.44,0,0,1,1.14,1.87,10.76,10.76,0,0,1,.82,3.26c-.17,2.38-1,.29-1.34.87-.13-.72-.34-1.32-.45-1.89s-.21-1.1-.35-1.58-.23-.95-.35-1.41a7.62,7.62,0,0,0-.55-1.33l.42,1.15.31,1.19c-.45-.83-1.39-2.5-1.79-3.48.17.44.48,1.32,1,2.42.21.57.41,1.21.66,1.89s.38,1.44.58,2.21c.75,3.11.44,6.75.28,9.3.18.9.37,2.47.58,1.73l-.07-1.62c.43-1.48.6,3,.8,1a32.4,32.4,0,0,1,.54,7.64l-.62.57A6.29,6.29,0,0,0,161,37c.27,1.27-.83,4.68,0,6.07l.42-2.14a35.12,35.12,0,0,1,.77,7.57c.6-1.23-.07-.63.64-2.55-.89,1.67,0-6.91-.89-4.23.82-2,.35-3.41,1-6-.21.08-.39.91-.29-1.35a4.1,4.1,0,0,1-.18-.5c0-.07,0-.09,0-.16l0,.13c0-.1,0-.11,0,.05a3.77,3.77,0,0,1-.3,1.15c-.47-1.12-.45-4.73-.69-5.95.09-1.35.23.56.44-.17l-.36-1.82c.49-.12.66-3.75,1-.41,0,.1-.1-3.1-.1-3.1a15.89,15.89,0,0,0-.26-3.14,11.1,11.1,0,0,0-.9-2.8c-.36-1.5-2-3.28-1.07-2.25l-.38-.69L159.5,14l-.52-.76c-.36-.51-.69-1-1-1.39l-.5-.6.06-.1a19,19,0,0,0-2.46-2.79,29.19,29.19,0,0,0-3-2.35,54.86,54.86,0,0,0-7-4c-.8-.21-1.64-.32-2.58-.54L141,1.26A18,18,0,0,0,139.08,1l-.51-.41c-1.14,0-2.51-.09-3.82-.15a8.72,8.72,0,0,0-2.87.1c-2.06-1-9.26-.22-12.62-.41l-.13.51c-2.31,0-4.52.11-7.39.32l.18.44c-2.48.37-6.36-.31-10.27-.27a4.59,4.59,0,0,1,2,0c-4.68-1-9.86.74-14.1,0A7.75,7.75,0,0,1,87,1.1l.26,0h-.43L85.31.83a9.79,9.79,0,0,0,1.23.24c-.81,0-2.05.07-3.26.18L82.77.77h-.28c-1.19-.17-1,.23-.32.6a11.2,11.2,0,0,0-1.61.29c-1-.78-3.17.26-4.49-.57-.82.4-6.09.3-6.73,1.15,0-.11-.4-.16.25-.17a15.42,15.42,0,0,0-3.91,0l-.57-.61-3,.82c-1.79-.37-2.53-.59-.75-1.06-4.29.72-3.48.27-7.14,1l.18-.4c-1.3,0-3.39.55-4.18.22-2.92-.75-14.44-.1-21.94-.8.73.58-.14.45-1.23.29-.54-.08-1.14-.17-1.63-.19s-.91.1-1,.33c-.48-.25-1.64-.35-.32-.66-1.05.09-2,.24-2.79.36a17.31,17.31,0,0,0-2.26.4l-1,.24c-.33.11-.64.24-.95.37a6.89,6.89,0,0,0-1.8,1.08c-.55,0,.65-.76.2-.73A4.78,4.78,0,0,1,14,3.63c-.47,0,.45-.48,1-.88a7.75,7.75,0,0,0-3.29,2.44,1.66,1.66,0,0,0-.17,1.51c-.48.24-.88.46-1.24.68a6.82,6.82,0,0,0-.89.73A5.15,5.15,0,0,0,8.22,9.89c-.66.35-1.71,1.09,0-.89l-1.4,1.44c-.3.35-.6.74-.92,1.15A9.73,9.73,0,0,0,5,12.86C3.8,14.59,3.17,16.42,3.4,16.59a7.58,7.58,0,0,0-.81,2.26,25.1,25.1,0,0,0-.8,3.28c-.07.43-.14.86-.22,1.38s-.05,1.14-.08,1.94l.15-.88c.68,1.3.11,2.56.2,5l-.08-.07c-.56,5.56.26,2.4-.37,7.89l.48-.3c1,.51-.61,4.86-.21,8L1.93,44C2.28,45.73.53,48.85.4,50.6.31,51,.25,50,.19,49.47c-.61,4.57.63.59.77,4C.62,54.09.1,52.66,0,55c-.28,1.14,1.1,6.65.45,9.78.26-.69.52-1.37.71.21.1,2.43-1,6.56-.16,8.75-.07.31-.14.43-.2.44.21,1.86.35,6,.8,7.15C0,83,2.44,92.81.91,92.76L1,98.47l-.15-.15a17.18,17.18,0,0,0,.63,6.22c-.1.84-.25.23-.33.16A32.41,32.41,0,0,0,1.66,115l-.49.47c.28,1.21-.78,7.7-.2,12.92-.06,0-.15-.15-.23-.57a62,62,0,0,1-.24,9.51c-.22,3.26.4,6.25,1.6,7.08A25.54,25.54,0,0,0,4,148.12a5.62,5.62,0,0,1-.66-2c0-.22.17-.07.37.15.39.48,1,1.23.72.21.19.46.45,1,.63,1.47s.34,1,.48,1.35c.24.7.18,1-.51-.08a2.85,2.85,0,0,1-.11-.39c-.64-.19.06,1.3,1,2.76s2.24,2.8,1.95,3a27.22,27.22,0,0,0,6.21,4.81A25.12,25.12,0,0,0,21.38,162c.64.1,1.28.26,1.92.31l1.93.14c1.23.06,2.39.07,3.58.1,2.35.06,4.69.1,7,.11l-1.06-.73L38,162c.84.17,1.13.57-1.17.54a7.2,7.2,0,0,0,3.93-.51c4.5.3-1.76.86-.38.87l1.88-.05-.43-.09a13.14,13.14,0,0,1,4.43-.58c1.75.15.89.46,1.58.48,0,.06.23.08,1.06,0l4.07.07-1.63-.58c1.8-.29,3.83,0,2-.62,2.75,1,15.17.36,16.86.67a44.26,44.26,0,0,1,8.1-.36c-.77-.12-1.23-.77,1.44-.69-1,1.34,4.87.58,7,1.54-1.92-.64,7.57-.15,4.55-1.06,2.22.11.14.5,1.82.81,5.29-.51,11.66.34,18.19.17.1-.18-1-.45.41-.71l3.45.88c1.29-.09,1.19-1,3.55-.41-.34-.14-.83-.37,0-.42,3.2.21,6.44.28,9.69.27l4.9,0,2.46,0c.82,0,1.62,0,2.52-.08a28.27,28.27,0,0,0,18.72-8.8c-1.49,1.29-.66.29.18-.89-.63.71-.33-.28-.63-.27l.62-.66c.36-.41.79-1,1.24-1.58a15.75,15.75,0,0,0,1.12-1.68c.3-.47.49-.79.49-.79a3.7,3.7,0,0,1,.22-1.46c.09-.32.21-.65.31-1l.27-1.09c.09-.36.18-.73.26-1.07s.09-.67.12-1a2.22,2.22,0,0,0-.1-1.19l-.17,1.82c-.2-1.27-.68-.47-1.36.45a14.3,14.3,0,0,1-1,1.31c-.32.34-.67.51-.86.36,0,1.29-.89,2.72-2,4.1a30.91,30.91,0,0,0-3.45,4.56c-.78.45.34-.72-.16-.56a5.42,5.42,0,0,1-1,1.45,6.29,6.29,0,0,1-.93.74,7.74,7.74,0,0,1-1.27.79l.16-.22c-.67.4-1.26.83-1.88,1.12s-1.19.59-1.77.8l-1.7.56-1.7.35a16.23,16.23,0,0,1-1.74.2,12.89,12.89,0,0,1-1.88.06h-1l-1.18-.05-2.63-.11.56.47a14.55,14.55,0,0,1-2.72-.33c-1.86.72,4.55,0,2.86.84-2.15-1-11.43,0-12.88-1.11-2.49,0,.73.54-1.76.54l-.66-.3-.63.38c-1.64-.06-2.46-.43-2.52-.68.4,0,1.13-.07,1.55-.09-2.12-.35-6,.12-6.7,0l2.39.19c-6.8.27-15.1-.12-21.68.49l.5.22c-5,.41-4-.25-9.53,0l.2-.06a19.18,19.18,0,0,1-4.08.31c1.39-.26-2.62-.51-.79-.8-5.45.45-2.7.35-6.29,1.18l-.83-.37a11.45,11.45,0,0,1-4.08.61c2.26-.32-1.75-.56.78-1-5.78-.81-8.58.82-11.23-.36-2.65,1,5,.57,3.51.79,1.25.33-2.19.76-4,.66s-3.13-1.31-7.77-1.29c.46,0,.49-.08,1-.07-1.74-.26-3.4.35-5.53-.07-1.2.62-2.77,0-3.11.75l4.25-.18c-2.41.21-4.67,1.14-8.65.69a12.54,12.54,0,0,1,2.31-.49c-1.17-.23-2.24.15-3.45-.09.35-.79,5.18-.17,7.76-.77-1.25-.34-4.89.57-3.59-.29-1.87,1.09-4.57-.13-7.71.7l.2-.48a14.16,14.16,0,0,1-2.44.29l1.66-.61c-2.53.51-5-.41-7-.31,2.23.14,2.52.27,2.45.46s-.53.42.55.59a13.25,13.25,0,0,1-1.89.07,5.24,5.24,0,0,1-1.24-.14,5.83,5.83,0,0,1-1.49-.66,12.37,12.37,0,0,0-1.5-.89l-.57-.23c-.2-.1-.42-.21-.67-.31-.49-.22-1.1-.4-1.79-.74a7.2,7.2,0,0,1,.73.37,8.48,8.48,0,0,1,.8.42c.45.28.65.51,0,.38l-.86-.41c-.3-.15-.57-.35-.84-.52a5.6,5.6,0,0,1-1.24-1c-1.78-1-1.68-.89-1.4-.48s.88.9,0,.55c-.85-1.29-1.85-1-3.38-2.15l.33-.35a14.42,14.42,0,0,0-1.59-1.67,1.18,1.18,0,0,0-.67-.36,1,1,0,0,1-.61-.3,3.82,3.82,0,0,1-.5-.59c-.18-.29-.39-.67-.64-1.17l.77.62a5.15,5.15,0,0,0,.54.41l.26.17s-1.36-1.82-1.36-1.82l.71.12a9.37,9.37,0,0,1-2.25-5c-.09.31-.32.3-.6-.07a3.62,3.62,0,0,1-.44-.81,9.79,9.79,0,0,1-.31-1.37c0-.76.17-.56.24-.57s.06-.18,0-1.71a3.9,3.9,0,0,1,.5,2.72c.18.11.4.61.57.72a7,7,0,0,0,0-1.28,12.1,12.1,0,0,1-.13-1.35c0-.45-.08-.88-.12-1.27s0-.82,0-1.12a11.5,11.5,0,0,1-.09,1.27c0,.05-.19-1.17-.35-2.38l-.34-2.43c.18-.76.33-.16.47.44,0-1-.27-1.66-.31-3.1.39.37.79.28,1,2.33l-.44-4.62c.17-.31.47-2.37.62-1.77.23-2.56-.77-6.29-.46-9.68a4.45,4.45,0,0,1-.21-1.25c.09-3.19.57-6,0-9.8l.7-2.15c-.16-3-.89,2.91-1.15-2-.23-3.5.6-1.31.79-2.53a20.87,20.87,0,0,1-.5-8C5.35,92.28,5.25,93.11,5.3,94.1ZM5,57.57c.1.71.41,2.12.13,2.64C4.57,59.4,4.83,58.78,5,57.57ZM14.85,7.16A6,6,0,0,1,13,8.23,6.58,6.58,0,0,1,14.85,7.16Zm147,14,0-.07C161.59,19.36,161.68,20,161.86,21.17Zm.2,3.6c.09.36.15.33.21.17a9.32,9.32,0,0,1-.24-2A4.43,4.43,0,0,0,162.06,24.77ZM48.19,162.46l-.64-.13C49,162.19,48.59,162.32,48.19,162.46Z"/><path class="cls-1" d="M10.55,11.26a.46.46,0,0,1-.38,0C10.06,11.53,10.12,11.6,10.55,11.26Z"/><path class="cls-1" d="M5.56,116.82v.11a.26.26,0,0,0,.09.11Z"/><path class="cls-1" d="M121,5.29A5.11,5.11,0,0,1,119.71,5C119.68,5.16,120,5.26,121,5.29Z"/><path class="cls-1" d="M162.94,42.25l-.12-2.1a8.78,8.78,0,0,1-.16,1.89C162.77,42,162.93,41.59,162.94,42.25Z"/><path class="cls-1" d="M160,60.48c.06.3,0,.65.06,1l.23-.08C160.23,60,160.05,59.13,160,60.48Z"/><path class="cls-1" d="M161.34,44.19c-.41.17-.27,1.49-.19,3a1.13,1.13,0,0,1,0-.26C161.71,47.32,161.53,45.75,161.34,44.19Z"/><path class="cls-1" d="M161.16,47.49c0,.45,0,.91,0,1.36C161.4,49,161.22,48.3,161.16,47.49Z"/><path class="cls-1" d="M162.39,29c-.1.7.52.44.35.83C163.26,30.64,162.12,25.21,162.39,29Z"/><polygon class="cls-1" points="160 45.38 160.5 44.86 160.1 44.03 160 45.38"/><path class="cls-1" d="M160.37,33.77l-.14,2.35c.08,0,.13.26.17.63A13.73,13.73,0,0,0,160.37,33.77Z"/><path class="cls-1" d="M160.4,36.75a11.31,11.31,0,0,0,.08,1.89C160.48,38.23,160.46,37.35,160.4,36.75Z"/><polygon class="cls-1" points="159.85 42.17 159.96 41.47 159.99 39.81 159.85 42.17"/><path class="cls-1" d="M153.89,9.86s-2-1.66-2-1.66c-.31,0,.16.49.91,1.1C153.35,9.6,154.05,10.27,153.89,9.86Z"/><path class="cls-1" d="M157.1,16.94a3,3,0,0,1-.14-1.16l-.58.22Z"/><path class="cls-1" d="M153,11.12a3.34,3.34,0,0,1-.52-.34l-.74-.47c-.41-.23-.49-.22.64.8C152.63,11.16,154.39,12.87,153,11.12Z"/><polygon class="cls-1" points="117.05 3.59 117.7 3.58 117.61 2.56 117.05 3.59"/><path class="cls-1" d="M83,6c3,.24.72-.63,3.47-.33.71-.24-2.25-.25-1.52-.45C83.1,5.5,82.13,5.36,83,6Z"/><path class="cls-1" d="M84.93,5.25c.3,0,.61-.09.94-.16A5.33,5.33,0,0,0,84.93,5.25Z"/><path class="cls-1" d="M161.72,143.75a9.8,9.8,0,0,0,.35-1l.28-1.06-.28.67c-.14.33-.29.65-.29.65Z"/><path class="cls-1" d="M161.61,139.6l.67-.46-.53-1.29A5.76,5.76,0,0,1,161.61,139.6Z"/><path class="cls-1" d="M6.3,52.14,6.14,52a4.16,4.16,0,0,0-.21,1.68Z"/><polygon class="cls-1" points="5.81 78.65 5.83 78.2 5.24 79.05 5.81 78.65"/><path class="cls-1" d="M6.56,100.9c0-.9-.11-2-.08-2.88C6.58,100,5.83,101.15,6.56,100.9Z"/><path class="cls-1" d="M80.83,68.64c-.14,0-.09.38-.11.46C81,69,80.83,68.54,80.83,68.64Z"/><polygon class="cls-1" points="83.31 67.91 83.25 68.07 83.68 67.71 83.31 67.91"/><path class="cls-1" d="M85.58,68.4c0-.74-.85-.09-1.19-.44l0-.17-.3.52C84.55,68.34,85.29,68.13,85.58,68.4Z"/><path class="cls-1" d="M86.2,70.26c0-.29.31-.15-.22-.17,0,0,0,0,0,.08A.61.61,0,0,1,86.2,70.26Z"/><path class="cls-1" d="M86,70.17c-.21-.06.06.27,0,0Z"/><path class="cls-1" d="M87,70.4l-.37.11c0,.17.21.32.08.39C87,70.9,87.06,70.72,87,70.4Z"/><path class="cls-1" d="M87.49,70.05l-.19,0C87.3,70.15,87.33,70.19,87.49,70.05Z"/><path class="cls-1" d="M86.91,70.14l.39-.06c0-.12.1-.34-.17,0C87.24,69.91,87.1,70.06,86.91,70.14Z"/><path class="cls-1" d="M86.79,70c-.1-.21-.28-.37.11-.5C86.3,69.36,86.22,69.85,86.79,70Z"/><path class="cls-1" d="M85.91,67.73l-.18-.27-.28.18C85.59,67.55,85.86,67.94,85.91,67.73Z"/><path class="cls-1" d="M88.46,71.57a4.31,4.31,0,0,0,.2-.58l-.28,0C88.43,71.18,88.56,71.37,88.46,71.57Z"/><path class="cls-1" d="M88.66,71l.42,0C88.84,70.76,88.73,70.84,88.66,71Z"/><polygon class="cls-1" points="87.88 69.36 87.13 69.61 87.98 69.4 87.88 69.36"/><polygon class="cls-1" points="89.46 72.25 89.11 72.43 89.68 72.19 89.46 72.25"/><path class="cls-1" d="M90.15,72.67c-.28.14-.17.5-.39.55a1.25,1.25,0,0,0,.76,0C90.3,73.17,90.19,73,90.15,72.67Z"/><path class="cls-1" d="M91,73.13a1.84,1.84,0,0,0-.43.06A1,1,0,0,0,91,73.13Z"/><path class="cls-1" d="M89.53,71.3a.65.65,0,0,0,0,.51l.14-.43Z"/><path class="cls-1" d="M89.63,71.37h0l.21.19Z"/><path class="cls-1" d="M89.5,71.28l0,0S89.54,71.24,89.5,71.28Z"/><path class="cls-1" d="M88.53,70.1c.28-.1.79-.1.6-.63C88.86,69.64,89,70,88.53,70.1Z"/><path class="cls-1" d="M89.66,70.74l-.27-.27c0,.1-.08.27-.23.32Z"/><path class="cls-1" d="M89.88,70.73h-.22l.09.11Z"/><path class="cls-1" d="M90.76,72.44a.71.71,0,0,1,.54.16,1.79,1.79,0,0,0-.38-.51C90.81,72.18,90.59,72.31,90.76,72.44Z"/><path class="cls-1" d="M90.25,71.88h0S90.29,71.82,90.25,71.88Z"/><path class="cls-1" d="M92.62,73.93l0-.08-.06.05Z"/><path class="cls-1" d="M90.94,72c-.06-.17-.2-.15-.35-.09a.75.75,0,0,1,.33.17S91,72,90.94,72Z"/><path class="cls-1" d="M91.46,73.32a1.27,1.27,0,0,0,0-.34C91.4,73.13,91.37,73.38,91.46,73.32Z"/><path class="cls-1" d="M90.26,72h0C90.22,72.11,90.24,72.07,90.26,72Z"/><path class="cls-1" d="M90.26,72a1.44,1.44,0,0,0,.33-.08.78.78,0,0,0-.3,0A.3.3,0,0,1,90.26,72Z"/><path class="cls-1" d="M95.11,72.64a.53.53,0,0,1-.85-.47c-.49-.1-1.26,1-1.6,1.68a.59.59,0,0,1,.67-.09c.1-.24-.18-.94.31-1,.51.24.18.41.17.73.24-.49,1,.07,1.46-.46l-.49-.22C94.86,72.78,95.11,72.81,95.11,72.64Z"/><path class="cls-1" d="M92.22,73.33l-.13-.07A1.38,1.38,0,0,1,92,74a.76.76,0,0,0,.56-.09l-.45-.56Z"/><path class="cls-1" d="M91.62,72.8c.39-.25.78-.11.94-.61-.36-.28-.48,0-.81,0,.61.39-.31,0-.09.56a1,1,0,0,1-.36-.16,1.71,1.71,0,0,1,.13.38v0h0c0-.06,0-.09,0,0h0l.13-.1c.09.2-.05.1-.13.1l0,0h0a3.31,3.31,0,0,1,.33.14l.32.17A1,1,0,0,0,91.62,72.8Z"/><path class="cls-1" d="M90,68.87a.29.29,0,0,1,0,.1C90,69,90,68.93,90,68.87Z"/><path class="cls-1" d="M90.09,69.26c-.08,0-.21.14-.34,0s.1-.18.17-.3c-.16,0-.49.07-.3.42l.08,0a1.36,1.36,0,0,1,.15,1A3.15,3.15,0,0,0,90.09,69.26Z"/><path class="cls-1" d="M91.07,70.94l.32.1.3.12v-.5l-.13.19C91.32,70.57,91.21,70.83,91.07,70.94Z"/><path class="cls-1" d="M92.5,74.11l-.39.25.35-.09.35-.09Z"/><polygon class="cls-1" points="93 74.65 92.67 74.88 92.98 74.88 93 74.65"/><path class="cls-1" d="M70.53,100.65h-.25A.73.73,0,0,0,70.53,100.65Z"/><path class="cls-1" d="M71.93,101.4l.12-.16C71.94,101.31,71.88,101.37,71.93,101.4Z"/><path class="cls-1" d="M93.81,91.46c-.44,0-1-.1-.67.13l.4.19A.35.35,0,0,1,93.81,91.46Z"/><path class="cls-1" d="M84.22,100.73l.11.12c0-.16.07-.31.1-.45A3,3,0,0,1,84.22,100.73Z"/><path class="cls-1" d="M84.34,102.53l-.45-.22A1.34,1.34,0,0,0,84.34,102.53Z"/><path class="cls-1" d="M63.71,95.17l-.52,0C63.45,95.55,63.52,95.27,63.71,95.17Z"/><path class="cls-1" d="M96.1,81.42a1,1,0,0,0-.18.55C96.13,81.7,96.47,81.44,96.1,81.42Z"/><path class="cls-1" d="M73.21,96.9a.31.31,0,0,0-.25.15C73.09,97,73.18,97,73.21,96.9Z"/><path class="cls-1" d="M96,82.56l.09-.11a1.12,1.12,0,0,1-.14-.48C95.78,82.17,95.65,82.38,96,82.56Z"/><path class="cls-1" d="M69.46,67h.09C69.52,67,69.49,67,69.46,67Z"/><path class="cls-1" d="M78.61,68.26a1.77,1.77,0,0,1-.29.07C78.37,68.36,78.46,68.34,78.61,68.26Z"/><path class="cls-1" d="M94.41,77.22c-.1-.12-.06,0,0,0Z"/><path class="cls-1" d="M95.56,75.71a.38.38,0,0,0,.22,0A.53.53,0,0,1,95.56,75.71Z"/><path class="cls-1" d="M98.69,84.19v0C98.78,84.15,98.76,84.16,98.69,84.19Z"/><path class="cls-1" d="M94.48,76.93a.85.85,0,0,0,0,.23A.56.56,0,0,0,94.48,76.93Z"/><path class="cls-1" d="M94.31,77.05c0-.06,0-.1,0-.14S94.18,77,94.31,77.05Z"/><path class="cls-1" d="M94.52,77.4a.61.61,0,0,1-.07-.24s0,.06,0,.06Z"/><path class="cls-1" d="M61.66,81.09l.05,0C61.56,80.83,61.57,80.92,61.66,81.09Z"/><path class="cls-1" d="M94.14,97.91s0,0,0,0h0Z"/><path class="cls-1" d="M93.8,98.64c-.11-.63.06-.69.31-.76l-1-.78.34.76Z"/><path class="cls-1" d="M67.32,98.57l.15.65c-.89.08-1.12-.42-1.08.34.48-.5.87-.15,1.32.12s.9.56,1.31,0l.12.44c-.08-.07-.13,0-.21-.08.2.94,1-.56,1.57,0,.2.24.28.52,0,.55l.73,0c.16.1,0,.3-.15.19l1,.33,0,0a6.42,6.42,0,0,1,.84-.36c.15.29-.17.08-.18.27,0,0,.62-.08.62-.1.09.41-.47.58-.8.36,0,1.47.54-.13,1.33,1l-.57,0c.07.84.57.73,1,1.39-.09-.29-.8-1.56-.11-1.67a.55.55,0,0,0,.72.11c-.13.46.21.43.61.5l-.18.61c.48-.07.52-.4.83-.62.45.19.46.69.5,1.11.77.22-.39-.86.54-.84.6.32,1.1.18,1.88-.17.43.24-.1.39,0,.58l.43-.49c.1,0,.06.17,0,.25.34-.18.06-.64.57-.79.08-.35.33-.06.65.17s.73.45,1,0c.16.18-.06.4,0,.64A3.32,3.32,0,0,0,83.23,102l.66.33c-.52-.41,0-1.06.33-1.58-.19-.21-.35-.39-.44-.47l.32-.22a3.1,3.1,0,0,0,.31-.25c.1.09.08.32,0,.61l.1-.18c.3.17.25.56.14,1a3.4,3.4,0,0,1-.34-.32,2.46,2.46,0,0,0-.11,1.22.53.53,0,0,1,.23-.21.37.37,0,0,0,0,.27c0,.06.1-.09.19-.27l.32.65v-.29l1.13.18c.57-.85.81-2.12,1.72-2.75,0,.59.27.82.49,1.4-.54-.5-.75.56-1.39.65.32,0,.35.26.31.39l.84-.94c.16.48.36.29.71.35-.59-.83.48-1,.74-1.42.17.29.23.64-.3.8.88.41.19-1.35,1-1.08-.11.08-.19.06-.16.24.12-.41.88-.58.88-.24l-.11.07c.85-.3,2.24-1.51,1.81-2.23a9.68,9.68,0,0,1,.6,1l-.08-.49c0-.31-.14-.71-.23-1.11-.18-.79-.41-1.54-.41-1.54.39.63,2,1.55,1.7,2.35a.85.85,0,0,0,.67-.65c-.18,0-1-.52-.9-.7.94.22.55.06,1.51.06-.26,0-.93-.92-.69-1.12.1.15.86.73.87.91l-.13-.69c-.07-.33-.17-.67-.17-.67,0,.29.71.64,1.08.69-.23-.07.47-.58.52-.84l-.43.14c.74-.67-.71-1.67-.21-2.37.15.21,1.07,1,1.45.66l-1.09-1.39a4.46,4.46,0,0,1-.94-1.62l.36,0s-.09-.64-.11-.65A10.68,10.68,0,0,1,98.1,93c.41-.18.39.1.62-.4.36,0,.27.49.21.65l.77-1.1c-.62-.24-.18-1.19-.74-1.36a5,5,0,0,1,.05.77v.78a1.94,1.94,0,0,1-.85-1,1.52,1.52,0,0,1-.1-1.29c.33-.11,1.06.59,1.27.67-.17-.2-.11-1,.07-1l.2.48c.42-.4-.54-1,.22-1.43.09-.18,1-.39.62-.52a8.87,8.87,0,0,1-3.65-.76,12.2,12.2,0,0,1,1.34-.87c.64-.21,1.33.74,1.88.58a1.06,1.06,0,0,1-.43-.37c.19-.18.55.19.54-.28-.66-.19.2-.93-.54-.31-.13-.46.24-.44.25-1-.45.11-1.47-.6-1.65-1a1,1,0,0,0,.51-.09A11,11,0,0,0,99,82c.17-.09.33-.51.64-.37-.14-.11-.39-.19-.45-.44.51-.58.18.56.83.09-.4,0-.65-.6-1-.92-.58.22,0,.84.32,1.18a2.75,2.75,0,0,1-2.32-1.08c-.32-.55.48-.38.34-.45-.19-1.2-1.61-.57-1.38-1.62.37-.53,1-.38,1.33-.59.4.43,0,.87.07,1.2l.13-.49c.21.1.43.42.33.64.41-.47-.51-2-.56-3.07-.24-.08-.54-.26-.67,0l.2.23c-.27.43-.79-.23-.8.19-.46-.21-1-.36-1.11-.92l.47-.4c-.15.11-.13.49.11.52-.34,0,.27-1.14-.54-.92l-.16.54c-.47-.16-1.22-.17-1.35-.62-.37.52.12.05-.27.7.59-.74.56,1,1.11.09-.53.71,0,.65-.4,1.35.18-.1.28-.31.35.06h.19v0s0,0,0,0a.83.83,0,0,1,.18-.32c.49,0,.75.5,1.07.59,0,.24-.26,0-.4.21l.46.13c-.4.22-.48.84-.9.46l.14.44a.66.66,0,0,0,.15.85c0,.23.61.38.23.3l.45.62-.11,0a9.22,9.22,0,0,0,.46,1,1,1,0,0,1-.17,1.21,1,1,0,0,1,.17.87l-.38.09c.16.3-.43.88,0,1-1,.25-.38,1.38-.65,1.88l.5.12a2.64,2.64,0,0,0,0,1.22l.44.1c.27.52-.65.9-.82,1.51-.14-.11,0-.24.09-.31-.58.17-.57.58-.56,1s.09.94-.44,1c0,.23-.07.31-.23.35a.07.07,0,0,0,0,0l-.05.06-.32.07a.86.86,0,0,0,.31,0A1.27,1.27,0,0,0,94,92l-.44-.2s0,0,0,0c-.26.05.09.26.45.38a1,1,0,0,0,.07.38c-.72-.33-.12.59-.91.26.25.37-.41,1,.12,1.61-.08-.06-.16-.06-.09-.14-.23.1-.46.2-.44.53l-.49-.36s.06.24.1.47l.09.47c-.49-.07-.72-.15-.82-.7-.07,1-.24.6-.29,1.56L91.11,96c-.17.14-.16.78-.46.6-.79-.28-2.2,1.27-3.66,1.13.67,1-.73-.28-.46.58-.16-.24-.38-.33-.27-.62-.51.47-1-.09-1.22.73-.15-.25,0-.42-.09-.56,0,.07-.12.28-.23.13s0-.24.09-.38c-.58.19-.46,1-.34,1.83-.42-.28-.56-.21-.72.34-.17-.24-.41-.48,0-.63-.25,0-1.45-.16-1.42.46-.09-.16-.34,0-.4,0a3.68,3.68,0,0,0-1.1,0l.14.09c-.2.79-.44.18-.87.25v-.08c-.94-.62-.45.27-1.35-.46v.48c-.23,1-.78-.73-1.38-.42l.15.3c-.4.32-.55-1.57-.78-1.75,0-.1.13-.11.23-.16-.56-.76-.24.59-.84.59,0-.35.37-.79,0-.94-.06-.33-1.38.68-1.64-.12,0,.29,0,.58-.31.65-.43-.11-.58-1.36-1.28-.79a.38.38,0,0,1,0-.22c-.36,0-1-.21-1.46.07.31-.76-.17-.89-.68-1s-1-.17-.49-.77l-.78-.57.13-.1a1,1,0,0,0-1.2-.3c0-.18.16-.2.22-.24-.41-.87-.46-.88-1.55-1l.35-.36c-.4,0-.1-1.49-1-1.94a.36.36,0,0,1,.24,0c-.47-.31-.45-1-.47-1.51s-.1-.93-1-.81a3.29,3.29,0,0,1-.32-.24l-.3-.26c.09.9-.78.09-1,.54-.2-.34.29-1.06.49-.66l-.07.1c1-.11,0-1.16.68-1.27-.38-1.67.11-3.33.29-4.81l-.75.1.13-.55c.19-.12.59-.1.5.27.45-.14-.24-.68-.39-.73.4-.7.79.44.84.21v-.31l-.1.05c-.25-.3-.58-.39-.42-.84.22-.25.48,0,.54-.14s.08,0,.06-.16l.23-.63-.62.09c-.21-.38.22-.62-.51-.51.56-.08.88-.64,1.1-1.22s.47-1.14.67-1.2A1.4,1.4,0,0,1,66.71,75c-.17,0-.76-.24-.44-.6,1,.88,1-.37,2-.06-.35-.07-.19-.34-.06-.63s.26-.54-.26-.65c.34-.21.39.32.82.32a1.59,1.59,0,0,1,1-1,6,6,0,0,0,1.37-.85c-.09-.15-.4-.26-.36-.61l.5.18.48.19c.12-.19-.4-1,.28-.66-.13-.09-.32-.24-.23-.36a13.71,13.71,0,0,0,3.1-1.32,4.33,4.33,0,0,1,1.62-.47,2.84,2.84,0,0,1,1.75.36c-.34-.3-.16-.36.07-.41-.16,0-.06-.43-.13-.66l.51.26c.25.12.5.27.5.27.11-.66,1-.09,1.06-.72l-.3.12c.39-.76-.66-1.62-.69-2.58-.22.43-.58.13-1-.07s-.89-.36-1.2.3c-.23-.16.1-.33,0-.53-.15.43-.37.57-.89.51l0-.11c-1.31.41-2,.21-3.55.55l.29.39a1.06,1.06,0,0,1-.65-.07c0,.82.87-.36.87.52-.39-.36-.93-.11-1.45.12s-1,.49-1.42.09c-.46.26.41.39,0,.65L70,67.19l.09.39a.78.78,0,0,1-.82-.29c.08,0,.16-.2.23-.26-.58,0-1,.84-1.17.83l.52-.15a6.9,6.9,0,0,1-.85.75l-.87.79a4.43,4.43,0,0,0-1.33,1.85l.24.07c-.38,1-.72.48-1.27,1.49l0-.07a1.33,1.33,0,0,1-.22.87c-.07-.39-.72.18-.76-.3-.23,1.2,0,.67.33,1.7l-.4,0c.19.38.34.48.18,1-.08-.55-.67.07-.81-.58a1.18,1.18,0,0,0-.63,1.27c0,.4,0,.69-.63.75.78.85.9-.76,1-.4.39-.11.56.68.34,1S61.66,78,61.43,79c0-.09,0-.11,0-.21-.34.3.14.77-.34,1.12.57.36-.13.57.64.77l0-.89c.12.54,1,1.12.4,1.83a1.36,1.36,0,0,1-.41-.52c-.26.21.07.47-.18.69-.8-.16,0-1.07-.53-1.71-.37.21.41,1.11-.4.71.51.28.44.5.33.77a.72.72,0,0,0,.2.92l-.48-.07c.07.11.29.34.26.53l-.59-.38c.5.56-.53,1-.2,1.59-.06-1.11.55-.25.9-.71.67,1.29-1.23.79-.9,2.33-.1-.2.24-.81.47-.5a2.39,2.39,0,0,1-.43.91c.25,1,.46-.23.81.16-.52.42.31.45.56.83l-.47.09c-.07,1.17,1,.07.91,1.12l-.75-.25.3.47-.56,0c.56.46.46.66.53,1.24a.69.69,0,0,1,1,.23c-.15.42-.5,0-.19.62-.33,0-.75-.07-.44-.51-.16,0-.34,0-.5,0-.18.47.27.92.36,1.16a.54.54,0,0,1,0-.31,4.46,4.46,0,0,0,.5.35l.53.32c-.09.22-.28.17-.46.11.14.17.4.2.57.45-.38.11-.73.32-1.1,0l.84.71c-.13.14-.15.68-.35.64.12.61,1.36.79,1.55,1.54a.43.43,0,0,1,.33.09c.34.59.34,1.42,1.32,1.65l-.19.82c.56.36.21-1.07,1.12-.49.68.36-.22.63-.16,1,.54,0,1.47-.13,1.62.76C67.58,98.88,67.52,98.67,67.32,98.57Zm6.88,3.51c-.17,0-.56.24-.57-.06C74,101.56,74,101.85,74.2,102.08Zm11.23-.68c-.06.18-.24.14-.46,0A.49.49,0,0,1,85.43,101.4Zm10-22.77h0C95.38,78.93,95.42,78.82,95.44,78.63Zm0-.58a.22.22,0,0,0-.2,0c.12,0,.18.1.19.24C95.55,78.26,95.6,78.16,95.45,78.05Zm-30.24,1.8-.15.07C65,79.65,65.09,79.75,65.21,79.85Z"/><path class="cls-1" d="M84.33,102.32a.91.91,0,0,1-.11-.25C84.18,102.16,84.19,102.25,84.33,102.32Z"/><path class="cls-1" d="M63.81,95.16s0,0,0,0l-.09,0Z"/><path class="cls-1" d="M100.3,87a.6.6,0,0,1-.29.23C100.13,87.24,100.24,87.19,100.3,87Z"/><path class="cls-1" d="M93.44,76l.28.21c-.11-.13,0-.23,0-.34C93.6,75.91,93.5,76.05,93.44,76Z"/><path class="cls-1" d="M93.81,71.66c-.09,0-.09-.09-.17-.08l-.15.16C93.66,71.91,93.91,71.91,93.81,71.66Z"/><path class="cls-1" d="M94.6,74.81c.33-.26.09-.38-.14-.53,0,0,0,0,0,0C94,74.59,94.32,74.68,94.6,74.81Z"/><path class="cls-1" d="M94.42,74.24a.46.46,0,0,1-.16-.18C94.06,74.17,94.28,74.16,94.42,74.24Z"/><path class="cls-1" d="M94.94,77.53c0-.14-.51.16-.39,0C94,77.67,95.46,78,94.94,77.53Z"/><polygon class="cls-1" points="95.59 73.87 95.23 74.24 95.65 74.14 95.59 73.87"/><path class="cls-1" d="M96.38,75.91l-.07-.45a.18.18,0,0,1-.2,0C96.22,75.68,96.25,76,96.38,75.91Z"/><path class="cls-1" d="M96.11,75.44c-.07-.12-.15-.23-.26-.25A.78.78,0,0,0,96.11,75.44Z"/><polygon class="cls-1" points="96.04 74.3 96.02 74.47 96.16 74.75 96.04 74.3"/><path class="cls-1" d="M97.85,80.29l.22.44c.17,0,.26-.13.16-.29S98,80.19,97.85,80.29Z"/><path class="cls-1" d="M98.82,78.53c-.07.16-.17.2-.31.32l.6-.16Z"/><path class="cls-1" d="M99.33,79.93c.18,0,.61.66.46,0C99.63,79.91,99.37,79.44,99.33,79.93Z"/><polygon class="cls-1" points="98.48 87.42 98.5 87.3 97.5 87.09 98.48 87.42"/><path class="cls-1" d="M97.89,94.72c.56-.42-.44-.48.13-.81-.13-.25-.47.27-.56,0C97.47,94.4,97.24,94.5,97.89,94.72Z"/><path class="cls-1" d="M97.46,93.94a1.1,1.1,0,0,0,0-.25A.83.83,0,0,0,97.46,93.94Z"/><polygon class="cls-1" points="79.84 68.7 80.17 68.89 79.95 68.56 79.84 68.7"/><path class="cls-1" d="M80.44,67.91l.09.65.19-.6C80.64,68,80.5,68.06,80.44,67.91Z"/><path class="cls-1" d="M75,103.68l.07-.15c0-.18-.11-.21-.3-.29Z"/><polygon class="cls-1" points="69.75 100.93 69.83 101 69.97 100.4 69.75 100.93"/><path class="cls-1" d="M65.36,98.5c.12.17.4.23.54.39C65.48,98.67,65.83,97.94,65.36,98.5Z"/><path class="cls-1" d="M112.76,77.2c0-.39-.38-.25-.46-.31C112.39,77.55,112.87,77.18,112.76,77.2Z"/><polygon class="cls-1" points="113.71 83.69 113.54 83.57 113.96 84.53 113.71 83.69"/><path class="cls-1" d="M113.7,89.75c.72-.57-.11-2.19.14-3.27l.16-.18-.57-.49A19.72,19.72,0,0,1,113.7,89.75Z"/><path class="cls-1" d="M112.16,93c.28-.2.24.7.08-.75a.5.5,0,0,1-.07.13A4.51,4.51,0,0,1,112.16,93Z"/><path class="cls-1" d="M112.17,92.37c0-.64-.23.42,0,0Z"/><path class="cls-1" d="M112.33,95.32l-.24-.84c-.17.18-.21.93-.32.65C111.9,96,112.06,95.81,112.33,95.32Z"/><path class="cls-1" d="M112.86,96.12l-.11-.43C112.68,95.76,112.66,95.88,112.86,96.12Z"/><path class="cls-1" d="M112.53,94.76l.22.93c.12-.13.35-.14-.08-.43C112.88,95.34,112.68,95.15,112.53,94.76Z"/><path class="cls-1" d="M112.64,94.24c.15-.48.25-1.09.5-.24C113,92.39,112.54,92.63,112.64,94.24Z"/><path class="cls-1" d="M114.44,90.07l.21-.64-.24-.54C114.53,89.16,114.22,90.1,114.44,90.07Z"/><path class="cls-1" d="M112,100.57c.16.05.41-.29.6-.35l-.17-.62C112.28,99.92,112.19,100.52,112,100.57Z"/><path class="cls-1" d="M112.56,100.22l.26.93C112.86,100.32,112.73,100.17,112.56,100.22Z"/><polygon class="cls-1" points="113.65 96.27 113.1 94.74 113.66 96.57 113.65 96.27"/><polygon class="cls-1" points="111.94 104.12 111.59 103.59 112.13 104.53 111.94 104.12"/><path class="cls-1" d="M112,106.48c-.29-.39-.5.53-.68.12a5.34,5.34,0,0,0,.53,1.68A3.21,3.21,0,0,1,112,106.48Z"/><path class="cls-1" d="M112.19,109.1a5.86,5.86,0,0,0-.33-.82A3.13,3.13,0,0,0,112.19,109.1Z"/><path class="cls-1" d="M112.75,102.74a1,1,0,0,0-.43.73l.42-.37C112.74,103,112.75,102.86,112.75,102.74Z"/><path class="cls-1" d="M112.76,103.09h0c0,.4,0,.67,0,.79C112.72,103.79,112.73,103.55,112.76,103.09Z"/><path class="cls-1" d="M112.75,102.64v.1S112.8,102.68,112.75,102.64Z"/><path class="cls-1" d="M113.26,98.71c.24.55.5,1.69.86.58C113.83,98.9,113.62,99.53,113.26,98.71Z"/><path class="cls-1" d="M113.28,102.19l.1-1c-.11,0-.27.2-.39-.07Z"/><polygon class="cls-1" points="113.42 102.67 113.28 102.19 113.25 102.56 113.42 102.67"/><path class="cls-1" d="M112.59,107.41a4,4,0,0,1,.23,1.42,10.91,10.91,0,0,0,.13-1.7C112.81,107.05,112.57,106.81,112.59,107.41Z"/><path class="cls-1" d="M112.71,105.31s0,.07,0,.09S112.78,105.3,112.71,105.31Z"/><polygon class="cls-1" points="112.82 114.02 112.89 113.94 112.82 113.92 112.82 114.02"/><path class="cls-1" d="M113,107a1.21,1.21,0,0,0-.16-.92,6.59,6.59,0,0,1,.08,1C113,107.16,113.05,107.17,113,107Z"/><path class="cls-1" d="M112.39,110.55a6.28,6.28,0,0,0,.23-.73C112.49,110,112.28,110.47,112.39,110.55Z"/><path class="cls-1" d="M112.61,105.55v-.06C112.5,105.62,112.55,105.61,112.61,105.55Z"/><path class="cls-1" d="M112.61,105.55a3.24,3.24,0,0,0,.26.56,4.46,4.46,0,0,0-.14-.71A.44.44,0,0,1,112.61,105.55Z"/><path class="cls-1" d="M115.39,115.7a.5.5,0,0,1-.19-.32,2,2,0,0,1-.14-.55,2.68,2.68,0,0,1,.16-1.39c-.29-1-1.6-.33-2.32.5a.31.31,0,0,1,.26.15s.09.19.14.25a1,1,0,0,1,.14.32c.26.08.52-1.92.89-1.06a4.63,4.63,0,0,1,.06.72.48.48,0,0,1-.09.29c-.1.13-.25.18-.37.37.27-.13.42.19.48.64s0,1,.39,1l.18-.58a5.16,5.16,0,0,0,.06-.59C115.16,115.51,115.19,116,115.39,115.7Z"/><path class="cls-1" d="M112.94,112.08l0-.4a4.35,4.35,0,0,1-.54,1.39c.19.67.34.8.47.85l.06-2Z"/><path class="cls-1" d="M112.88,109.87c.44.32.62,1.28,1.09.69,0-1.18-.36-.82-.55-1.53.11,1.9-.24-.55-.49.83a8,8,0,0,1-.11-1c0,.34-.12.67-.2,1l0,0h0c0-.09.08-.11,0,0s0,0,0,0a.48.48,0,0,1,.16.08c-.09.56-.11.09-.16-.08l-.06,0h0l.24,1.91A9.78,9.78,0,0,0,112.88,109.87Z"/><path class="cls-1" d="M115.05,100.31c0,.06-.07.06-.1.06S115,100.54,115.05,100.31Z"/><path class="cls-1" d="M114.79,101.09a.9.9,0,0,1-.19-.7c.13-.39.2,0,.35,0-.12-.27-.31-1-.52-.1l.06.14c-.15.76-.69,1.75-.75,1.62A3.09,3.09,0,0,0,114.79,101.09Z"/><path class="cls-1" d="M114,105.54l.21,1.59.37-.81-.22,0C114.39,105.46,114.12,105.65,114,105.54Z"/><path class="cls-1" d="M112.6,114.2l-.45-.21.1.15.1.14s.08,0,.12.07a1.88,1.88,0,0,1,.31.18l-.08-.14-.07-.08Z"/><path class="cls-1" d="M112.52,115l-.34-.21a1.58,1.58,0,0,1,.13.26A.8.8,0,0,0,112.52,115Z"/><path class="cls-1" d="M55,74.51l.89-.11C55.5,74.44,55.23,74.47,55,74.51Z"/><path class="cls-1" d="M49.53,74.49l-.08.19C49.6,74.57,49.67,74.49,49.53,74.49Z"/><path class="cls-1" d="M64.9,115.67c-.68-.37-1.44-.94-1.35-.5l.2.44A2.48,2.48,0,0,1,64.9,115.67Z"/><path class="cls-1" d="M45.81,100.93l-.13.2c.14.17.28.32.41.46C46,101.39,45.91,101.17,45.81,100.93Z"/><path class="cls-1" d="M44,100.45l.28-.89A4.09,4.09,0,0,0,44,100.45Z"/><path class="cls-1" d="M57.33,92.8l.58.29C57.65,92.39,57.55,92.78,57.33,92.8Z"/><path class="cls-1" d="M94.43,115.78a6.18,6.18,0,0,0-1.46-.26C93.68,115.77,94.24,116.15,94.43,115.78Z"/><path class="cls-1" d="M50.43,79.12a.7.7,0,0,0,.31-.27C50.57,78.93,50.46,79,50.43,79.12Z"/><path class="cls-1" d="M91.28,115.52a2.83,2.83,0,0,0,.31.11,5.44,5.44,0,0,1,1.38-.11A2.07,2.07,0,0,0,91.28,115.52Z"/><path class="cls-1" d="M104.43,93a1.09,1.09,0,0,1,.1-.11S104.45,92.88,104.43,93Z"/><path class="cls-1" d="M110.79,78.79a1.39,1.39,0,0,1-.38,0A.58.58,0,0,0,110.79,78.79Z"/><path class="cls-1" d="M107.26,115.44c.43,0,.07,0,0,0Z"/><path class="cls-1" d="M109.38,117.15a.28.28,0,0,0-.17.21A.37.37,0,0,1,109.38,117.15Z"/><path class="cls-1" d="M86.92,118.22h0C87,118.31,87,118.29,86.92,118.22Z"/><path class="cls-1" d="M107.91,115.63a3.71,3.71,0,0,0-.55-.13A2.74,2.74,0,0,0,107.91,115.63Z"/><path class="cls-1" d="M107.83,115.43l.38,0C108.26,115.4,108.21,115.35,107.83,115.43Z"/><path class="cls-1" d="M106.65,115.46a4.11,4.11,0,0,1,.71,0c-.09,0-.13,0-.1-.06Z"/><path class="cls-1" d="M78.41,110l.09,0C78.93,109.91,78.75,109.93,78.41,110Z"/><path class="cls-1" d="M53.52,120.17l0,0H53.5Z"/><path class="cls-1" d="M52,120.5a1.48,1.48,0,0,1,1.55-.36L53,118.89Z"/><path class="cls-1" d="M55.49,83.75l.43-1c.59,1.22.34,2,.92,1.15-.66-.08-.71-1-.61-2l0-.35.09-.71c0-.48.15-.9.17-1.26.08-.73,0-1.17-.37-1.1l.62-1.34c-.11.35,0,.37-.13.73.56-1.17.57-1.61.39-1.87s-.48-.37-.42-1l-.16,0H55.6c-.85-.11-1.44-.31-.58-.47l-2.53.34c-.64,0-.39-.26.28-.24L51,74.67l-1.55,0,0,0a7.21,7.21,0,0,1-1,.37l-.94.31c-.88-.19.35-.14.1-.31L46,75.38c-.48-.18-.43-.35-.05-.47a5.56,5.56,0,0,1,1.77-.17,2.53,2.53,0,0,0-2-.5,6.4,6.4,0,0,1-2.26.25,7.16,7.16,0,0,1-.21,1.37c0-.57-.09-1.15-.09-1.67l.26-.08L43,73.94a3.47,3.47,0,0,0-.44,1.75,25.33,25.33,0,0,1-.36,2.76c.13-.27.43-1.39.74-2s.64-.67.81.46a5.76,5.76,0,0,0,.12,2.45c-.24-.05-.33.21-.36.66,0,.21,0,.54,0,.76s0,.38,0,.6l-.63-.06c.18.92.51.85.79,1.39a1.53,1.53,0,0,1-1,1.49c-.1,1.65.79-1.14.91.81a9.11,9.11,0,0,0,.4,4c-.22,1-.39-.17-.57.18l.51.85c0,.21-.17.14-.25.11.2.71.64.06.81,1.18.71.31-1,2.32-.23,3.72-.18.34-.39-.17-.64-.07a14.1,14.1,0,0,0,1.09,3.22l-.42,1.34c.48-1,1.05.27,1.52,1.37.23-.35.43-.65.53-.85l.34,1.76c-.1.21-.32,0-.59-.25,0,.12.11.23.15.32-.23.63-.6.3-1-.15l.4-.63c-.39-.43-.82-.84-1.2-.75a1.59,1.59,0,0,1,.18.58c-.11-.12-.21-.19-.27-.14s.08.25.24.53l-.71.4.28.1-.45,2.3c.72,1.65,1.78,3.08,2.07,5.69-.52-.65-.85-.14-1.47-.18.65-.71-.28-2-.15-3.37-.07.7-.36.55-.46.37l.59,2.41c-.5,0-.38.52-.59,1.15,1-.48.67,1.8,1,2.78-.34.06-.68-.18-.6-1.38a1.23,1.23,0,0,0,.22,1.52,2.13,2.13,0,0,1,.39.66,1.43,1.43,0,0,1-.06.94c0-.19,0-.35,0-.46a.26.26,0,0,0-.12-.21,3.14,3.14,0,0,1,.15.78c.07.32.06.66.12,1,.1.59.18,1-.07.87l-.14-.39a4.74,4.74,0,0,0,1.28,2.08,4.94,4.94,0,0,0,2.46,1.22,7.67,7.67,0,0,0,1.26,0,4.67,4.67,0,0,0,.81-.17c.44-.13.74-.29.82-.5a4.87,4.87,0,0,1-.37,1.19l3.46-2.86c-.3.73.87,2.47-.74,2.88a3.65,3.65,0,0,0,2,0c-.32-.1-.79-1.05-.36-1.12a9.89,9.89,0,0,0,2.28,1.13c-.47-.16,0-1.31.8-1.27-.11.17.06,1.13-.21,1.25L60,119c-.46.2-.08,1,.33,1.27-.19-.22,1.61,0,2.11-.09l-.79-.26c2.1.17,2.08-1.59,4.16-1.53-.25.24-.62,1.43.44,1.57.48-.57,2.15-2.77,4-3.21l.35.33,1.42-.38a27.19,27.19,0,0,1-4.7,3.4c.78.27.21.39,1.39.36.42.31-.64.47-1,.49l2.74.2c-.12-.67,2.1-.68,2-1.24l-3,.7c-.12-.67,1.72-1.91,3.66-1.79.5.27-.37,1.2-.33,1.42a3.77,3.77,0,0,1,2-.28l-.82.36c1.08.26,1.76-.89,3.06-.24.45,0,1.34.86,1.42.46a4.13,4.13,0,0,1-.39-3.71,17.22,17.22,0,0,1,2.87,1.11c.74.6-1.11,1.43-.48,1.95,0-.19.44-.41.6-.48.48.15-.19.56.83.48.17-.68,2.08.06.49-.57,1-.2,1.06.13,2.24.11-.38-.44,1-1.5,2-1.7-.06.18.17.4.28.5,2,.07,3.15.38,5.06.38.18.17,1.1.37.71.66a2.38,2.38,0,0,1,1.12-.37c1.14.59-1.32.09-.45.8.08-.39,1.53-.54,2.37-.79-.26-.61-1.94-.12-2.78.13,0-.85,1.46-1.73,3.46-2.12,1.59-.21.69.54,1,.42,3,.15,2.55-1.47,5-.86,1,.54,0,1.07.27,1.46-1.3.2-2-.34-2.87-.32l1.08.25a3,3,0,0,1-1.75.16c.83.48,5,.09,7.35.54.41-.18,1.12-.37.78-.58l-.73.07c-.67-.43,1.38-.6.45-.8a6.82,6.82,0,0,1,3.45-.54l.26.61c0-.17-.9-.36-1.29-.17.29-.14.82.07,1.35.21s1,.21,1.19-.22l-.38-.18-.23-.15-.15-.06c.83-.31,1-1,1.43-1.28-.29-.11-.31-.12-.33-.08s-.08.09-.39-.17c.35.32.11.47-.18.53a.62.62,0,0,0-.33.08s-.1.07-.08.13a1.17,1.17,0,0,0,.14.27c-.06-.2-.36-.33-.54-.41a3.54,3.54,0,0,0-.62-.16,3.65,3.65,0,0,1-1.45-.48c0,.2.41.39-.61.29a1.41,1.41,0,0,1-.23.18l-.07,0,.06,0s0,0,0,0a1.16,1.16,0,0,1,.52.31c-.5.47-2.13.45-2.68.69-.61-.09.25-.23-.08-.45l-.82.36c-.08-.45-1.62-.74-.19-1l-1.28,0a4.73,4.73,0,0,0-2.45-.16c-.61-.1-1.53.5-1,.15l-2,.28,0-.12c-2,0-4.11.75-6.38-.06a7.86,7.86,0,0,1-2.49.12l-.22-.39c-.86.14-2.59-.39-3,0-.93-1-4.18-.23-5.69-.42l-.06.51a18.35,18.35,0,0,0-3.34.32l.08.45c-1.12.37-2.87-.32-4.63-.27.12-.18.56-.13.88,0-2.11-1-4.45.74-6.36,0a1.64,1.64,0,0,1-1.16,0,.21.21,0,0,0,.12,0h-.2c-.21-.08-.42-.17-.66-.24a2.35,2.35,0,0,0,.56.24,8.21,8.21,0,0,0-1.47.18l-.24-.48h-.12c-.54-.18-.43.23-.15.59a3,3,0,0,0-.72.29c-.44-.78-1.43.26-2-.57-.37.41-2.75.31-3,1.16,0-.11-.18-.17.12-.17A3.12,3.12,0,0,0,56,117l-.26-.61-1.33.82c-.8-.37-1.14-.59-.34-1.06-1.93.73-1.57.28-3.22,1l.08-.39a5.9,5.9,0,0,0-1,.23,1.87,1.87,0,0,1-.4.09.24.24,0,0,1-.23-.13c-.19-.2-.51-.37-.84-.65a2.6,2.6,0,0,1-.82-1.2,1.76,1.76,0,0,1-.06-.4,3.34,3.34,0,0,1,0-.47c0-.5,0-1,.05-1.49a19.66,19.66,0,0,1,.31-2.79c-1.16.66.53-1.57-.38-1.7.28-.2.43-.67.67-.12-.27-1.73.44-2.59-.32-3.79.28-.19.4.37.57.2-.06-.14-.24-.55-.08-.73s.23.25.35.52c0-1.76-.89-1.94-1.69-2.07a1.6,1.6,0,0,0-.2-2c.26-.31.54-.83.63.26,0-.61.38-3.76-.26-3.82.16-.2.05-.86,0-1,0-1.38.09-1.5,0-2.86l-.1.38c-.77-.54-.18-1.13-.27-2.23L47,91c.56-2.51-.27-1.08.37-3.56l-.48.14c-1-.23.61-2.2.21-3.64l-.27.52c-.35-.78,1.4-2.19,1.53-3,.09-.17.14.27.21.51.31-1,.15-1.1-.1-1.1a.56.56,0,0,1-.67-.42c.34-.05.86.24.92,0,.18,0-.31-.52-.53-1.27.1-.12.4-.15.68.08-.21-.26-.57-.52-.28-.71a1,1,0,0,1,.52.1l.27.12c.1.05.39.09.47.13.33.16.5.22,1-.19a.21.21,0,0,1,0,.2,4.36,4.36,0,0,1,.65-.19l.43-.11.23-.06.12,0s0,0,0,.05.13.28.29.28c-1,.87-.92,1.24-.82,2,0,.08,0,.15,0,.26s0,.31,0,.46a4.72,4.72,0,0,1,0,.77c-.06.44-.18.73-.57.7,0,0,0,.69,0,1.38s.09,1.37.09,1.37l-.16-.06a5.69,5.69,0,0,0,.25,1.92,4,4,0,0,0,.65,1c0,.41-.23.14-.31.12,0,.64,0,1.14.09,1.56a4.42,4.42,0,0,0,.28,1,7.39,7.39,0,0,0,1.27,2l-.4.36a9.15,9.15,0,0,1,.68,2.3,8,8,0,0,0,1.83,3.38.39.39,0,0,1-.34-.12,12,12,0,0,1,1.31,1.88c.42.67.8,1.38,1.19,2,.88,1.2,1.71,2.22,2.74,1.87l1.67.89c-1.67-1.66.77-.37.24-1.23.71.53,1.49,1.87.53,1.29l-.08-.18c-.93.49,2.15,2,1.75,2.47,4,2.48,8.27,4.52,12.75,5.09l-.41-.8.75.13a4,4,0,0,0,.52.07l.24,0c.39.19.5.6-.61.5.56.46,1.89-.25,1.91-.4,2.15.4-.87.81-.21.86h.91l-.2-.1a4.21,4.21,0,0,1,2.12-.61c.84.1.45.42.79.44,0,.05.12.07.51,0h.31l.67-.07,1-.12-.86-.45c.81-.41,1.8-.24.82-.76.72.46,2.51.13,4.2-.33l2.27-.83a7.52,7.52,0,0,1,1.33-.48,8,8,0,0,1,1.48-1.11c.52-.35,1.1-.67,1.74-1-.38.08-.89-.37.2-.93.35,1.37,2.21-.8,3.58-.76-1.09.14,2.61-2.55.92-2.23.79-.68.39.32,1.17,0a10.61,10.61,0,0,1,1.24-1.58c.42-.54.91-1.08,1.41-1.63a16,16,0,0,0,1.41-1.8c.22-.31.45-.63.65-1s.36-.71.51-1.08c-.13-.12-.6.23-.54-.49l.76-.55a7.42,7.42,0,0,0,.75-.59c.15-.63-.74-.91.23-1.75-.19.1-.49.24-.39-.16a18,18,0,0,0,1.73-8.46A20.13,20.13,0,0,0,110,83,9.81,9.81,0,0,0,109.9,82l-.09-1a5.47,5.47,0,0,1,0-1.92s0,0,0,0l.11,0,.21.07.41.15c-.68-.34-.51-.37-.2-.39-.28-.08-.38-.43-.63-.67,0,0,.57.17,1,.33s.81.33.81.33a.32.32,0,0,1,.27-.29.71.71,0,0,1,.29,0l.47,0c.64,0,1.25,0,1.38-.32l-.78.11c1-.75-1.4-1.66-1.35-2.62-.7.41-1.57.14-2.86-.13a14.52,14.52,0,0,0-2-.29,4.69,4.69,0,0,0-.93,0l-.39.08-.16.07s0,.11,0,.16a4.36,4.36,0,0,0,.24.41c-.1.39-.54-.79-.74-.71a6.39,6.39,0,0,1,1.16,3.27L106,78.3a23.1,23.1,0,0,1,.59,2.88,3.43,3.43,0,0,1,0,.49l0,.41a7,7,0,0,1,0,.79c0,.52-.09,1.06-.14,1.66s-.22,1.26-.32,2l.48-.2a2,2,0,0,1-.43,1.1c.29.43.4,0,.46-.52s.1-1,.47-.6a2.3,2.3,0,0,0-.52,1.11c-.14.49-.24,1.08-.34,1.65-.21,1.15-.62,2.22-1.19,2.35-.28,1,.64-.12.29.87l-.37.16.26.37c-.3.63-.77.81-1,.74a2.52,2.52,0,0,0,.14-.63c-.57.69-.87,2.27-1.11,2.5l.6-.8a11.52,11.52,0,0,1-.92,2c-.41.65-.78,1.33-1.25,2s-.91,1.26-1.37,1.86a15.45,15.45,0,0,0-1.28,1.79h.31A4.1,4.1,0,0,1,98,103.63c-.2.12-.4.23-.67.42a8.27,8.27,0,0,0-1.06.78l0-.09A3.1,3.1,0,0,1,95,106c.37-.52-1.22.13-.7-.51-1.75,1.54-.77.9-1.8,2.31l-.48-.19a2.26,2.26,0,0,1-1.39,1.26c.81-.62-.92-.28,0-1a6,6,0,0,0-2.74.86c-.68.33-1.23.58-1.89.14-.9,1.27,2.19.05,1.63.41.61.18-.74,1-1.55,1a2.77,2.77,0,0,1-1.34-.47,4.36,4.36,0,0,0-2.15-.4c.19,0,.2-.08.39-.08-.74-.23-1.41.43-2.32,0-.51.6-1.15-.09-1.34.69,0,0,1.84-.08,1.83-.13-.51.15-1,.36-1.62.55a3,3,0,0,1-2.15-.07,4.07,4.07,0,0,1,1-.37c-.47-.24-1,0-1.46-.27.13-.39.67-.32,1.34-.28a4.48,4.48,0,0,0,2-.23c-.5-.36-2.07.48-1.47-.35a1.14,1.14,0,0,1-1.44.3,2.54,2.54,0,0,0-1.85,0l.18-.45a2.41,2.41,0,0,1-1.06,0l.8-.43A2,2,0,0,1,74,108a7.16,7.16,0,0,0-.66-.36,1.75,1.75,0,0,0-.71-.23c1,.36,1.07.46,1,.65s-.34.35.06.63a2.27,2.27,0,0,1-1.37-.34,1.66,1.66,0,0,1-.54-.65,3,3,0,0,0-1.88-1.49c.37.1,1.21.88.57.82a4.52,4.52,0,0,1-1.24-1.16c-1.72-.81,0,.6-.83.46-.29-.84-.93-.28-1.79-.56l.26-.42c-1.68-1.47-1.06.51-2.51-1l1.09,0-1-.47.51-.31a3.71,3.71,0,0,1-2-1.55c0,.42-.73.56-1.42-.18-.26-.7.6,0-.42-1,.45,0,1,0,1,.76.16-.06.43,0,.58-.05-.24-.75-1.17-1.33-1.49-1.71a2.13,2.13,0,0,1,.27.47l-.29-.16-.6-.39-.88-.6c-.05-.36.22-.24.49-.13-.28-.3-.68-.36-1-.86a1.16,1.16,0,0,1,1.36.21l-.24-.19a4.59,4.59,0,0,1-.48-.44L59.14,97c.08-.2-.11-1.05.14-.92a5.09,5.09,0,0,0-1.05-1.48,3.3,3.3,0,0,1-1-1.82c-.1,0-.21-.15-.37-.41a11,11,0,0,1-.31-1.88,5,5,0,0,0-.24-1,5.87,5.87,0,0,0-.41-1l.56-1c-.34-1.16-.71,1.29-1.25-.69-.3-1.43.57-.58.74-1.09a5.65,5.65,0,0,1-.66-1.37,2.6,2.6,0,0,1,.18-1.86A9.58,9.58,0,0,1,55.49,83.75ZM43.72,76.9c-.1-.54-.42-1.86-.13-2C44.14,76,43.88,76.14,43.72,76.9Zm1.16,26.46a1.13,1.13,0,0,1,.1-1A2.33,2.33,0,0,1,44.88,103.36Zm57.58,12.47,0,0C101.71,115.66,102,115.74,102.46,115.83Zm1.48.21c.15-.07.14-.14.08-.2-.11.12-.44.13-.82.09C103.31,116.06,103.5,116.15,103.94,116Zm-20.82-2.77-.31-.11C83.48,113,83.3,113.12,83.12,113.27Z"/><path class="cls-1" d="M44.22,100.52a.45.45,0,0,1,.26-.14C44.4,100.25,44.31,100.25,44.22,100.52Z"/><path class="cls-1" d="M57.22,92.74v.05h.1Z"/><path class="cls-1" d="M81,120.13a1.38,1.38,0,0,1-.59-.25C80.41,120,80.55,120.1,81,120.13Z"/><path class="cls-1" d="M111.44,115.21a.24.24,0,0,1-.13.07l-.47.06a1.69,1.69,0,0,1,.5,0l.11.12C111.43,115.39,111.37,115.23,111.44,115.21Z"/><path class="cls-1" d="M115.24,111.81c-.06-.14,0-.29-.07-.43l-.22,0C115,112,115.14,112.42,115.24,111.81Z"/><path class="cls-1" d="M112.19,116.72c.18.38.59.12.89-.25l-.06.06C112.75,116,112.58,116.42,112.19,116.72Z"/><path class="cls-1" d="M113.15,116.39a2.81,2.81,0,0,0,.29-.31C113.28,115.88,113.33,116.2,113.15,116.39Z"/><path class="cls-1" d="M105.82,115.77c.31.1.2-.52.38-.36C106.55,114.9,104.1,116,105.82,115.77Z"/><path class="cls-1" d="M113.15,117.81a5,5,0,0,1-.43-.37s-.17.48-.18.49A3.14,3.14,0,0,0,113.15,117.81Z"/><path class="cls-1" d="M108,117.79l1.06.14c0-.09.12-.13.28-.17C108.65,117.74,107.93,117.64,108,117.79Z"/><path class="cls-1" d="M109.3,117.76a2.16,2.16,0,0,0,.86-.09A6.14,6.14,0,0,0,109.3,117.76Z"/><path class="cls-1" d="M111.76,118.3s-.32-.1-.32-.1l-.75,0S111.75,118.32,111.76,118.3Z"/><path class="cls-1" d="M96.55,117.69l-1.16.15c-.12.17.2.27.63.21S96.73,117.86,96.55,117.69Z"/><path class="cls-1" d="M100.05,119.07c-.31-.11-.33-.22-.51-.39l0,.63Z"/><path class="cls-1" d="M96.68,119.21c-.12.17-1.69.49-.22.46C96.58,119.49,97.74,119.35,96.68,119.21Z"/><polygon class="cls-1" points="79.23 118.42 79.52 118.42 79.48 117.4 79.23 118.42"/><path class="cls-1" d="M63.85,120.86c1.37.25.32-.63,1.56-.32.33-.24-1-.25-.68-.46C63.9,120.33,63.47,120.19,63.85,120.86Z"/><path class="cls-1" d="M64.73,120.08l.42-.15A1.6,1.6,0,0,0,64.73,120.08Z"/><polygon class="cls-1" points="112.76 79.34 113.64 79.55 113.07 79.21 112.76 79.34"/><path class="cls-1" d="M114.45,78.58l.21.65.53-.59C115,78.67,114.61,78.73,114.45,78.58Z"/><path class="cls-1" d="M42.41,80.74l.16.07c.17-.14.18-.59.21-1.32Z"/><path class="cls-1" d="M57.64,73.88l-.36,0s0,.58-.08.62l.26-.32Z"/><path class="cls-1" d="M56.82,86.42c0-.35-.15-.76-.14-1.11C56.83,86.06,56.09,86.57,56.82,86.42Z"/><path class="cls-1" d="M101.12,51.48c-.1,0-.06.38-.08.45C101.2,51.84,101.11,51.37,101.12,51.48Z"/><polygon class="cls-1" points="102.69 50.52 102.66 50.7 102.9 50.28 102.69 50.52"/><path class="cls-1" d="M104.17,50.53c-.14-.71-.54.12-.8-.14l0-.16-.12.58C103.53,50.71,103.94,50.33,104.17,50.53Z"/><path class="cls-1" d="M105,52.08c0-.28.17-.24-.18-.09l0,.07A.5.5,0,0,1,105,52.08Z"/><path class="cls-1" d="M104.8,52.06c-.15,0,.1.23,0,0Z"/><path class="cls-1" d="M105.52,51.9l-.21.25c0,.16.23.2.16.32C105.68,52.33,105.64,52.17,105.52,51.9Z"/><path class="cls-1" d="M105.71,51.38l-.1.1C105.62,51.55,105.65,51.58,105.71,51.38Z"/><path class="cls-1" d="M105.38,51.71l.23-.23c0-.11,0-.34-.11.08C105.52,51.35,105.48,51.56,105.38,51.71Z"/><path class="cls-1" d="M105.25,51.6c-.11-.16-.26-.26,0-.5C104.8,51.19,104.86,51.7,105.25,51.6Z"/><path class="cls-1" d="M104.24,49.79l-.15-.21-.14.24C104,49.71,104.25,50,104.24,49.79Z"/><path class="cls-1" d="M106.79,52.27c0-.15-.07-.41-.08-.6l-.15.17C106.63,52,106.78,52,106.79,52.27Z"/><path class="cls-1" d="M106.71,51.67l.22-.26C106.73,51.38,106.69,51.5,106.71,51.67Z"/><polygon class="cls-1" points="105.75 50.59 105.38 51.13 105.82 50.58 105.75 50.59"/><polygon class="cls-1" points="107.65 52.29 107.53 52.64 107.75 52.11 107.65 52.29"/><path class="cls-1" d="M108.23,52.23c-.1.29.13.49,0,.67.15,0,.28-.3.4-.53C108.54,52.5,108.4,52.47,108.23,52.23Z"/><path class="cls-1" d="M108.86,52a2.18,2.18,0,0,0-.2.33A.75.75,0,0,0,108.86,52Z"/><path class="cls-1" d="M107.32,51.49a.74.74,0,0,0,.17.43l-.08-.43Z"/><path class="cls-1" d="M107.4,51.48h0l.19,0Z"/><path class="cls-1" d="M107.29,51.48h0C107.31,51.44,107.3,51.43,107.29,51.48Z"/><path class="cls-1" d="M106.34,51c.13-.23.41-.49.14-.86C106.39,50.41,106.54,50.61,106.34,51Z"/><path class="cls-1" d="M107.19,51l-.24-.1a.91.91,0,0,1,0,.4Z"/><polygon class="cls-1" points="107.3 50.81 107.19 50.95 107.27 50.98 107.3 50.81"/><path class="cls-1" d="M108.45,51.65a.44.44,0,0,1,.35-.24.86.86,0,0,0-.42-.13C108.37,51.42,108.31,51.66,108.45,51.65Z"/><path class="cls-1" d="M107.94,51.53l0,0S107.94,51.45,107.94,51.53Z"/><path class="cls-1" d="M110.06,51.42a.31.31,0,0,1,0-.08v.07Z"/><path class="cls-1" d="M108.36,51.21c-.1-.09-.16,0-.22.15a.68.68,0,0,1,.24-.08C108.39,51.22,108.39,51.18,108.36,51.21Z"/><path class="cls-1" d="M109.22,51.84l-.18-.23C109.09,51.74,109.2,52,109.22,51.84Z"/><path class="cls-1" d="M108,51.62s0,0,0,0S108,51.69,108,51.62Z"/><path class="cls-1" d="M108,51.62a1.26,1.26,0,0,0,.14-.26.55.55,0,0,0-.17.14S108,51.58,108,51.62Z"/><path class="cls-1" d="M110.44,48.67c0,.4-.29.77-.52.34a4.44,4.44,0,0,0,.12,2.33.74.74,0,0,1,.24-.57c-.08-.21-.52-.5-.32-.86.31-.21.25.14.41.35-.13-.5.4-.72.33-1.45l-.28.26C110.42,49,110.52,48.78,110.44,48.67Z"/><path class="cls-1" d="M109.59,51.3l-.1.05c.11.07.19.22.34.53a.76.76,0,0,0,.2-.47l-.48,0Z"/><path class="cls-1" d="M109.05,51.35c.08-.43.31-.61.17-1.08-.29,0-.2.36-.37.55.46-.11-.14.24.2.48a.53.53,0,0,1-.25.11,2.12,2.12,0,0,1,.24.2v0h0c0-.06,0-.09,0-.06a0,0,0,0,0,0,0,.78.78,0,0,1,0-.16c.14.09,0,.11,0,.16v.07h0l.46-.23C109.39,51.29,109.27,51.3,109.05,51.35Z"/><path class="cls-1" d="M106.73,49.19a.38.38,0,0,1,0,.1S106.78,49.2,106.73,49.19Z"/><path class="cls-1" d="M106.92,49.45c0,.06-.06.23-.17.19s0-.21,0-.35c-.06.11-.23.31,0,.52l0-.06a1.55,1.55,0,0,1,.4.74A6.24,6.24,0,0,0,106.92,49.45Z"/><path class="cls-1" d="M108,50.29l.38-.21-.19-.38v.23C108,49.84,108,50.12,108,50.29Z"/><polygon class="cls-1" points="110.1 51.63 110.05 52.09 110.27 51.44 110.1 51.63"/><polygon class="cls-1" points="110.6 51.58 110.58 51.97 110.72 51.73 110.6 51.58"/><path class="cls-1" d="M105.63,69.09l-.11.11A.38.38,0,0,0,105.63,69.09Z"/><path class="cls-1" d="M106.45,69.11l0-.19C106.44,69,106.42,69.1,106.45,69.11Z"/><path class="cls-1" d="M112.66,58.53c-.37.17-.94.35-.49.33l.43,0C112.52,58.69,112.57,58.61,112.66,58.53Z"/><path class="cls-1" d="M113.13,66.27l.11.09-.12-.41C113.13,66.05,113.13,66.16,113.13,66.27Z"/><path class="cls-1" d="M113.85,67.92l-.4-.11A.86.86,0,0,0,113.85,67.92Z"/><path class="cls-1" d="M101.16,69.55A2.54,2.54,0,0,1,101,70C101.24,70,101.13,69.76,101.16,69.55Z"/><path class="cls-1" d="M112.63,52.4c-.11.11-.2.18-.21.22C112.65,52.48,113,52.26,112.63,52.4Z"/><path class="cls-1" d="M106,64.48a.39.39,0,0,0-.1.26A.31.31,0,0,0,106,64.48Z"/><path class="cls-1" d="M112.47,52.75l.09,0c-.08,0-.15,0-.14-.08C112.26,52.73,112.16,52.78,112.47,52.75Z"/><path class="cls-1" d="M94.57,52.74s0,0,.05-.05S94.56,52.71,94.57,52.74Z"/><path class="cls-1" d="M100.34,51.08s0,0-.09.06S100.31,51.15,100.34,51.08Z"/><path class="cls-1" d="M111.59,51.86s0,0,0,0Z"/><path class="cls-1" d="M111.85,50.15a.67.67,0,0,0,.08-.2A1.14,1.14,0,0,1,111.85,50.15Z"/><path class="cls-1" d="M115.22,53.18h0C115.3,53.16,115.29,53.17,115.22,53.18Z"/><path class="cls-1" d="M111.61,51.66a.33.33,0,0,0,0,.14Z"/><path class="cls-1" d="M111.54,51.86s0,0,0,0S111.49,51.92,111.54,51.86Z"/><path class="cls-1" d="M111.65,51.85s0,0,0-.05,0,.05,0,.06S111.62,51.84,111.65,51.85Z"/><path class="cls-1" d="M95.71,61.57l0,0C95.57,61.44,95.6,61.49,95.71,61.57Z"/><path class="cls-1" d="M117.17,61.3l0,0,0,0Z"/><path class="cls-1" d="M117.49,61.68c-.54-.17-.47-.26-.36-.38l-1.25.13Z"/><path class="cls-1" d="M103.67,69.21l.27.39c-.33.64-.56.42-.31,1,0-1.36,1-.14,1.08-1.5l.18.29s-.06.07-.11,0c.34.65.25-1,.7-.79a.35.35,0,0,1,.15.47l.35-.34c.1,0,.07.26,0,.24l.53-.11v0a5.43,5.43,0,0,1,.33-.68c.13.19-.07.14,0,.31l.29-.33c.12.35-.12.69-.33.64.28,1.36.25-.34.83.45l-.27.18c.17.77.39.49.7,1-.08-.25-.62-1.21-.31-1.55.09.1.21.15.38-.12,0,.48.16.36.37.33v.64c.22-.18.2-.51.34-.8.25.07.3.56.36,1,.4.1-.28-.79.2-.91.33.24.56,0,1-.4.23.22,0,.39,0,.57l.21-.51s0,.17,0,.25c.17-.2,0-.64.29-.82,0-.35.15-.08.37.15s.59.43.77,0c.15.17,0,.4.08.64a3.12,3.12,0,0,0,.53-.59,3,3,0,0,0,.29-.74l.28.13a.88.88,0,0,0,.28.1c-.48-.29-.32-1-.32-1.54l-.42-.37s.16-.48.15-.48a1.22,1.22,0,0,1,.26.53c0-.06,0-.11,0-.16a1.19,1.19,0,0,1,.48.83l-.35-.26a4.19,4.19,0,0,0,.37,1.15.44.44,0,0,1,.09-.24.53.53,0,0,0,.09.26s0-.11,0-.29l.49.54-.12-.26a2.46,2.46,0,0,0,.46,0l.46-.09a5.22,5.22,0,0,0-.24-1.43,4.18,4.18,0,0,1-.2-1.22,4.2,4.2,0,0,0,1.25.8c-.65-.14-.14.71-.57,1,.21-.13.4.09.44.21a6,6,0,0,0,0-1c.42.29.41.05.71-.06-1-.34-.27-.84-.5-1.26.32.08.64.29.4.65.45-.06.21-.35,0-.57s-.52-.44-.16-.56c0,.09-.08.13.08.21-.2-.28.09-.75.36-.59v.1a2.41,2.41,0,0,0,.1-.59,1.93,1.93,0,0,0,0-.34,1.68,1.68,0,0,0-.06-.24.9.9,0,0,0-.79-.61l1.2.09-2.86-.84c.73.08,2.47-.21,2.88.18.1-.11.22-.25,0-.48a2.45,2.45,0,0,1-1.13.08,4.76,4.76,0,0,0,1.13-.55c-.16.11-1.3,0-1.26-.2a12.32,12.32,0,0,1,1.25.06L116,59.73a2.57,2.57,0,0,0,1.27-.08c-.22.05,0-.39-.09-.51l-.26.19c.17-.51-1.58-.5-1.52-1,.23.06,1.43.15,1.57-.1-.58-.12-2.77-.53-3.21-1l.33-.09-.38-.34a26.05,26.05,0,0,1,3.4,1.14c.26-.19.39-.05.36-.34a.38.38,0,0,1,.49.24l.19-.67c-.67,0-.67-.5-1.23-.48l.7.72c-.67,0-1.91-.41-1.79-.89a6,6,0,0,1,1.42.08c-.23-.06-.44-.44-.28-.49l.36.2c.25-.26-.89-.43-.25-.74,0-.11.87-.33.47-.34a16.2,16.2,0,0,1-3.72.09,5.57,5.57,0,0,1,1.11-.7c.61-.18,1.44.27,2,.12a1.36,1.36,0,0,1-.48-.15c.16-.11.57,0,.49-.2-.68,0,.05-.5-.58-.12-.19-.24.14-.25.11-.54a2.74,2.74,0,0,1-1.69-.5,1.43,1.43,0,0,0,.5-.07,4.26,4.26,0,0,1,.15-.66,1,1,0,0,0,0-.67c.14-.08.25-.41.57-.39-.15,0-.38,0-.45-.19.42-.55.21.34.79-.16-.37.1-.7-.25-1-.33-.5.36.16.5.45.68a4.1,4.1,0,0,1-1.22.2,4.67,4.67,0,0,1-1,0c-.29-.12.39-.4.27-.38-.29-.57-1.35.63-1.21,0a6,6,0,0,1,.86-1.18c.36,0,.14.52.25.65a2,2,0,0,0,0-.34c.2-.09.43,0,.38.18a.4.4,0,0,0,0-.37,2.12,2.12,0,0,0-.33-.36c-.26-.27-.63-.43-.8-.79-.17.1-.4.25-.4.46a1.08,1.08,0,0,1,.18,0c0,.44-.5.44-.4.7-.31.23-.57.63-.71.35l.06-.61c0,.18.09.37.2.22-.12.22-.28-.87-.49-.09l.06.22.06.21c-.24.3-.28.91-.64.73.13.6.07-.07.28.64,0-.89.27.08.24-.86,0,.82.14.35,0,1.07,0-.19.07-.38.12-.26,0-.05.06-.12.07-.16h0v0s0,0,0,0,0-.19,0-.31c.19-.42.42-.36.58-.51,0,.13-.13.19-.19.41l.27-.27c-.2.41-.23.72-.48.89l.09.06c-.1.26-.13.38,0,.26,0,.08.45-.25.17,0l.33,0-.09.07c.06.07.21.09.37.14s.16.22-.18.41c.15,0,.28.08.16.2l-.39.06c.07,0,0,0-.07.15s-.09.27.11.32c-1,.22-.22,1-.41,1.38h.51a1.26,1.26,0,0,0,.32.81l.44,0c.37.28-.31.7-.27,1.13-.17,0-.13-.14,0-.21-1,.51.74,1.08,0,1.54.16.12.1.2,0,.28l0,0a.07.07,0,0,0,0,0l-.24.16a1,1,0,0,0,.24-.13.73.73,0,0,0,.18.35l-.48.06a0,0,0,0,1,0,0c-.17.13.23.1.59,0a1.58,1.58,0,0,0,.29.17c-.77.11.27.35-.56.49.4.09.3.67,1.15.74-.11,0-.16,0-.17,0-.1.15-.19.3,0,.43l-.61.06.82.33a1,1,0,0,1-1.06.08c.72.47.27.38,1,.78l-.4,0c0,.15.55.37.22.46a.73.73,0,0,0-.35.37.81.81,0,0,0-.12.36c-.07.24-.18.56-.61.56.53.25.39.24.22.21s-.37-.08,0,.19a1.78,1.78,0,0,1-.55-.38c.07.32-.45-.1,0,.52-.2-.19-.24-.33-.36-.44,0,.05.11.22,0,.1a1.38,1.38,0,0,1-.2-.29,7,7,0,0,0,.83,1.51c-.34-.25-.34-.19-.21.33-.17-.2-.35-.41-.25-.58-.11.06-.61-.17-.46.46-.07-.15-.13,0-.15.07-.23,0-.25-.08-.47,0l.07.1c-.06.79-.24.18-.5.28v-.08c-.61-.56-.26.26-.86-.37l0,.48c-.06,1-.53-.61-.88-.22l.12.28c-.19.35-.53-1.4-.72-1.53,0-.09.06-.15.12-.21-.5-.61-.06.62-.44.77-.07-.34.09-.86-.16-.92-.12-.28-.73,1.1-1.07.45.07.26.15.52,0,.71s-.72-1-1-.16a.41.41,0,0,1,0-.21c-.2.22-.66.36-.78.8-.19-1.65-1.27.81-1.26-.72l-.63.08,0-.15c-.4-.1-.54.26-.68.63-.1-.1,0-.25,0-.33-.59-.31-.64-.24-1.13.52l0-.49c-.06.14-.33,0-.43-.23s-.24-.28-.46-.08a1.13,1.13,0,0,1,.09-.2.15.15,0,0,1-.26,0,1.89,1.89,0,0,1-.08-.4c0-.21,0-.32-.69.33a3.34,3.34,0,0,1-.52.14c.2.39-.61.51-.69.84-.23-.1.08-.75.29-.63l0,.08c.75-.57-.09-.6.48-1a1.07,1.07,0,0,1-.11-.92l.07-.22a1.11,1.11,0,0,0,.07-.26,5.24,5.24,0,0,0,.1-.77l-.73.12,0-.36c.17-.09.58-.12.55.13.41-.13-.35-.42-.51-.43.3-.49.85.19.87,0l-.05-.2-.09,0c-.3-.16-.61-.18-.58-.48s.45-.1.48-.18.08,0,0-.11l.06-.45-.57.18c-.29-.2,0-.42-.63-.21,1-.31.36-1.67.68-1.85a.74.74,0,0,1-.36-.89c-.13.09-.77.14-.7-.16,1.34.11.59-.53,1.55-.77-.64.21-.16-.83-1.06-.5.1-.24.5,0,.81-.19-.52-.58.34-1.28.16-2-.17,0-.44.11-.7,0l.88-.38c-.08-.09-1-.11-.38-.22-.15,0-.38,0-.42,0a2.29,2.29,0,0,0,.6-1.19c.16-.39.69-.73,1.3-.14-.21-.26-.18-.33-.12-.37a3.58,3.58,0,0,1-.27-.62,4.71,4.71,0,0,1,.56.52c-.1-.69.33-.08.3-.73l-.11.13a2.56,2.56,0,0,0-.22-1.21,6.35,6.35,0,0,1-.5-1.34c-.1.46-.37.22-.73,0s-.79-.22-.77.47c-.22-.11,0-.33-.21-.49,0,.45-.07.58-.47.64l0-.1a6.18,6.18,0,0,1-1,.74,4,4,0,0,0-1.18.94l.46.14c-.17.2-.33.18-.5.24.52.56.38-.62.95,0-.48-.1-.74.29-.87.71s-.29.79-.83.84c-.06.42.55,0,.5.36l-.3.08.37.13c-.09.25-.47.38-.72.39,0-.07-.06-.2-.07-.28a.54.54,0,0,0-.16.33.59.59,0,0,0,0,.22c.06.15.15.27.09.31l.18-.26c.28.74-.11,1.66.49,2.38l.23-.06c.41.55-.25.44-.06,1.05l0,0a.49.49,0,0,1,.31.45c-.26-.15-.51.29-.8.09.44.6.35.29,1.18.69l-.37.09c.33.13.51.14.61.44-.32-.24-.57.2-1-.08-.81.63.82.94-.37,1.23,1,.29.58-.55.79-.38.34-.14.77.24.67.43s-1.31.35-1.29.86c0,0-.08-.06-.07-.11-.27.19.35.38-.07.61.62.13,0,.3.75.34l-.18-.47c.21.27,1.13.52.68,1a1.29,1.29,0,0,1-.48-.25c-.24.13.15.24-.09.38-.79,0-.17-.57-.78-.85-.33.13.58.53-.28.39,1.09.2-.14.5.7.84l-.48,0c.08.06.3.17.29.27l-.62-.18c.27.16.14.22,0,.48s-.28.46-.12.67c-.1-.93.55-.26.86-.64.36.47.07.63-.26.86s-.69.53-.38,1.14c-.12-.16.08-.72.37-.52a1.86,1.86,0,0,1-.28.85c.45.75.38-.3.8-.09-.4.48.4.25.71.42l-.42.25c.21.94,1-.36,1.09.43l-.36.1-.37.07.4.22-.47.28c.61.11.61.26.88.68.14-.33.61-.63.89-.43,0,.38-.4.31.1.54-.27.2-.62.43-.55-.09-.11.11-.28.16-.4.26,0,.48.61.53.8.62a.38.38,0,0,1-.15-.21s1.06-.19,1-.2c0,.22-.11.31-.26.39.17,0,.37-.13.61-.1-.2.35-.32.75-.76.77a4.84,4.84,0,0,0,.5-.05l.47-.08c0,.18.31.58.16.69.45.36,1.39-.57,1.8-.25a.39.39,0,0,1,.13-.21c.35.09.66.57,1.08,0l.23.7c.33-.16-.31-.89.23-1.15.38-.23.14.6.27.79.19-.35.52-1.07.88-.5C103.87,69.26,103.78,69.16,103.67,69.21Zm4-.31c-.07.1-.23.41-.29.13C107.47,68.48,107.54,68.74,107.67,68.9Zm6.53-2.22c0,.17-.1.18-.3.11C114,66.7,114,66.65,114.2,66.68Zm-2-14.94h0C112.11,51.92,112.13,51.85,112.15,51.74Zm0-.27a.48.48,0,0,0-.12.17c.08-.1.12-.1.13,0C112.22,51.5,112.26,51.4,112.15,51.47Zm-13.2,9-.12.07C98.69,60.35,98.81,60.39,99,60.43Z"/><path class="cls-1" d="M113.78,67.73a.92.92,0,0,1-.17-.22A.23.23,0,0,0,113.78,67.73Z"/><path class="cls-1" d="M101.18,69.46h0a.28.28,0,0,0,0,.09Z"/><path class="cls-1" d="M117.12,54.62a.62.62,0,0,1-.25.14C117,54.76,117.09,54.73,117.12,54.62Z"/><path class="cls-1" d="M111.23,52l.08-.12s0-.09,0-.16A1,1,0,0,1,111.23,52Z"/><path class="cls-1" d="M109.52,49c0,.06-.07,0-.1.06v.23C109.57,49.27,109.67,49.09,109.52,49Z"/><path class="cls-1" d="M111.25,50.4c0-.41-.09-.29-.27-.21h0C111,50.76,111.15,50.56,111.25,50.4Z"/><path class="cls-1" d="M111,50.2a.2.2,0,0,1-.15,0C110.78,50.44,110.86,50.26,111,50.2Z"/><path class="cls-1" d="M111.84,51.61c0-.11-.24.46-.18.3C111.39,52.36,112.09,51.45,111.84,51.61Z"/><polygon class="cls-1" points="111.18 49.05 111.22 49.55 111.32 49.16 111.18 49.05"/><path class="cls-1" d="M112.3,49.62l-.18-.2a.26.26,0,0,1-.11.15C112.14,49.63,112.26,49.77,112.3,49.62Z"/><path class="cls-1" d="M112,49.57c-.07,0-.14,0-.19,0A.49.49,0,0,0,112,49.57Z"/><polygon class="cls-1" points="111.54 48.93 111.61 49.05 111.78 49.1 111.54 48.93"/><path class="cls-1" d="M114.15,51.21l.24.15c.17-.06.22-.17.11-.23S114.27,51.08,114.15,51.21Z"/><path class="cls-1" d="M114.68,49.66a1,1,0,0,1-.19.37l.47-.41Z"/><path class="cls-1" d="M115.42,50.37c.15-.07.69.23.42-.18C115.67,50.24,115.37,50,115.42,50.37Z"/><polygon class="cls-1" points="115.42 55.05 115.41 54.98 114.39 54.99 115.42 55.05"/><path class="cls-1" d="M117.86,58.79c.24-.34-.63-.08-.33-.38-.24-.08-.25.24-.45.16C117.33,58.77,117.19,58.88,117.86,58.79Z"/><path class="cls-1" d="M117.08,58.57l-.16-.1A.32.32,0,0,0,117.08,58.57Z"/><polygon class="cls-1" points="100.81 51.52 100.92 51.73 100.83 51.39 100.81 51.52"/><path class="cls-1" d="M100.94,50.75l0,.65.05-.6S101,50.89,100.94,50.75Z"/><path class="cls-1" d="M108.27,70.21v-.16c0-.17-.08-.18-.18-.21Z"/><polygon class="cls-1" points="105.36 69.72 105.41 69.73 105.32 69.15 105.36 69.72"/><path class="cls-1" d="M102.92,70.47c.1,0,.22-.11.32-.08C103,70.49,102.9,69.74,102.92,70.47Z"/><path class="cls-1" d="M47,36.71c.6,0,.39-.4.48-.48C46.41,36.37,47,36.82,47,36.71Z"/><path class="cls-1" d="M38.61,41.15v-.23s-.19.3-.36.62l-.3.64.31-.52A4.31,4.31,0,0,1,38.61,41.15Z"/><path class="cls-1" d="M34.64,48.69a3.63,3.63,0,0,0,.69-1.95c.11-.41.2-.87.35-1.29a4.17,4.17,0,0,1,.59-1.11l.27-.14-.06-.44-.06-.46a11.76,11.76,0,0,0-1.16,2.85C35,47.13,34.83,48.05,34.64,48.69Z"/><path class="cls-1" d="M32.94,53c.28-.25.24.89.09-1a1.83,1.83,0,0,1-.07.17C33,52.39,33,52.62,32.94,53Z"/><path class="cls-1" d="M33,52.22c0-.81-.23.53,0,0Z"/><path class="cls-1" d="M33.12,56l-.25-1.06c-.16.22-.2,1.17-.32.82C32.69,56.81,32.85,56.58,33.12,56Z"/><path class="cls-1" d="M33.64,57l-.1-.55C33.47,56.52,33.44,56.66,33.64,57Z"/><path class="cls-1" d="M33.31,55.25l.23,1.17c.11-.15.34-.17-.08-.54C33.67,56,33.46,55.75,33.31,55.25Z"/><path class="cls-1" d="M33.42,54.58c.16-.59.26-1.37.5-.3C33.83,52.24,33.32,52.54,33.42,54.58Z"/><path class="cls-1" d="M35.31,49.21l.33-.8a2.84,2.84,0,0,1,0-.38l0-.39C35.55,48,35.09,49.24,35.31,49.21Z"/><path class="cls-1" d="M32.75,62.61c.15.07.41-.36.6-.44l-.17-.79C33.07,61.79,33,62.56,32.75,62.61Z"/><path class="cls-1" d="M33.35,62.17l.26,1.18C33.64,62.3,33.52,62.1,33.35,62.17Z"/><polygon class="cls-1" points="34.43 57.16 33.89 55.23 34.44 57.54 34.43 57.16"/><polygon class="cls-1" points="32.73 67.11 32.38 66.44 32.91 67.63 32.73 67.11"/><path class="cls-1" d="M32.79,70.1c-.29-.49-.49.68-.67.15a7.23,7.23,0,0,0,.53,2.13A4.94,4.94,0,0,1,32.79,70.1Z"/><path class="cls-1" d="M33,73.43a9.55,9.55,0,0,0-.33-1.05A3.76,3.76,0,0,0,33,73.43Z"/><path class="cls-1" d="M33.53,65.36a1.33,1.33,0,0,0-.43.93l.43-.47Z"/><path class="cls-1" d="M33.54,65.81h0c0,.51,0,.85,0,1C33.51,66.7,33.52,66.39,33.54,65.81Z"/><path class="cls-1" d="M33.54,65.24a.49.49,0,0,1,0,.12S33.59,65.29,33.54,65.24Z"/><path class="cls-1" d="M34.05,60.26c.23.69.49,2.13.86.73C34.61,60.5,34.41,61.3,34.05,60.26Z"/><path class="cls-1" d="M34.07,64.67l.1-1.26c-.11,0-.28.25-.4-.09Z"/><polygon class="cls-1" points="34.21 65.28 34.07 64.67 34.03 65.13 34.21 65.28"/><path class="cls-1" d="M33.37,71.28a6.39,6.39,0,0,1,.24,1.81,19.86,19.86,0,0,0,.13-2.16C33.6,70.83,33.36,70.52,33.37,71.28Z"/><path class="cls-1" d="M33.49,68.62s0,.09,0,.12S33.57,68.61,33.49,68.62Z"/><polygon class="cls-1" points="33.6 79.67 33.68 79.56 33.61 79.54 33.6 79.67"/><path class="cls-1" d="M33.81,70.81a1.88,1.88,0,0,0-.15-1.17c0,.4.07.83.08,1.29C33.8,71,33.84,71,33.81,70.81Z"/><path class="cls-1" d="M33.18,75.27c.08-.28.16-.6.23-.94C33.28,74.61,33.06,75.17,33.18,75.27Z"/><path class="cls-1" d="M33.4,68.92s0,0,0-.08C33.29,69,33.33,69,33.4,68.92Z"/><path class="cls-1" d="M33.4,68.92a4,4,0,0,0,.26.72,7.11,7.11,0,0,0-.14-.9A.63.63,0,0,1,33.4,68.92Z"/><path class="cls-1" d="M36.35,81.66c-.4-.09-.77-1.51-.34-2.73-.3-1.2-1.6-.42-2.33.63.17,0,.33,0,.57,1.28.21-.44.5-2.75.86-1.7.21,1.64-.14,1.34-.35,2.14.5-.68.72,2.08,1.45,1.72L36,81.57C36.06,81.54,36.24,82.06,36.35,81.66Z"/><path class="cls-1" d="M33.72,77.2l0-.51a6.36,6.36,0,0,1-.53,1.77c.19.84.34,1,.47,1.08l0-2.51Z"/><path class="cls-1" d="M33.67,74.41c.43.4.61,1.62,1.08.87,0-1.5-.36-1-.55-1.94.11,2.41-.24-.69-.48,1a10.68,10.68,0,0,1-.11-1.3c-.06.43-.12.85-.2,1.24l0,0h0c.06-.1.09-.14.06,0s0,0,0,0a.42.42,0,0,1,.16.11c-.09.7-.11.11-.16-.11l-.07,0h0l.23,2.41A15.12,15.12,0,0,0,33.67,74.41Z"/><path class="cls-1" d="M35.83,62.28c0,.08-.07.08-.1.08C35.78,62.52,35.82,62.58,35.83,62.28Z"/><path class="cls-1" d="M35.57,63.28a1.46,1.46,0,0,1-.19-.9c.13-.49.21,0,.35,0-.11-.34-.31-1.2-.52-.12l.06.17c-.15,1-.68,2.22-.74,2A3.35,3.35,0,0,0,35.57,63.28Z"/><path class="cls-1" d="M34.73,68.91l.21,2,.38-1-.23,0C35.18,68.81,34.9,69.05,34.73,68.91Z"/><polygon class="cls-1" points="33.39 79.9 32.93 79.63 33.58 80.79 33.39 79.9"/><polygon class="cls-1" points="33.44 82.51 33.05 82.42 33.29 83.11 33.44 82.51"/><path class="cls-1" d="M122.91,106.24l-.11-.59A4.22,4.22,0,0,0,122.91,106.24Z"/><path class="cls-1" d="M122.89,110.52l.19.11C123,110.43,122.9,110.35,122.89,110.52Z"/><path class="cls-1" d="M59.21,130.92c.86.37,1.82.94,1.72.5l-.26-.44A4,4,0,0,1,59.21,130.92Z"/><path class="cls-1" d="M103.19,128.33l-.25-.13-.58.41Z"/><path class="cls-1" d="M103.8,126.53l1.13.28A6.11,6.11,0,0,0,103.8,126.53Z"/><path class="cls-1" d="M122.45,82.87l-.44-.69C122,83.26,122.24,82.78,122.45,82.87Z"/><path class="cls-1" d="M33.6,109.29a9.8,9.8,0,0,0-.26,1.85C33.59,110.25,34,109.53,33.6,109.29Z"/><path class="cls-1" d="M127.52,107.93c-.08-.36-.17-.52-.26-.51C127.33,107.79,127.41,108,127.52,107.93Z"/><path class="cls-1" d="M33.34,113.29c0-.13.07-.26.11-.39a8.84,8.84,0,0,1-.11-1.76A3.3,3.3,0,0,0,33.34,113.29Z"/><path class="cls-1" d="M79.33,41.6l-.2-.05C79.12,41.61,79.2,41.61,79.33,41.6Z"/><path class="cls-1" d="M54.63,37.22a10,10,0,0,1,1,0A4,4,0,0,0,54.63,37.22Z"/><path class="cls-1" d="M33.25,93c0-.55,0-.09,0,0Z"/><path class="cls-1" d="M35,90.34c.05.11.11.2.21.22A.45.45,0,0,1,35,90.34Z"/><path class="cls-1" d="M36.2,118.79v0C36.27,118.67,36.26,118.7,36.2,118.79Z"/><path class="cls-1" d="M33.45,92.2a6,6,0,0,0-.13.71A4.37,4.37,0,0,0,33.45,92.2Z"/><path class="cls-1" d="M33.25,92.31c0-.19,0-.34,0-.48S33.17,91.82,33.25,92.31Z"/><path class="cls-1" d="M33.28,93.81a6.48,6.48,0,0,1,0-.9c0,.11,0,.15-.07.12C33.26,93.19,33.27,93.42,33.28,93.81Z"/><path class="cls-1" d="M122.09,44.73a.45.45,0,0,1,0-.11C121.62,44.33,121.77,44.49,122.09,44.73Z"/><path class="cls-1" d="M73.64,126.41l-.06,0,.08,0Z"/><path class="cls-1" d="M75.64,126.09a2.32,2.32,0,0,1-2,.36l.66,1.25Z"/><path class="cls-1" d="M122.79,96l-.39,1.39c-.64-1.68-.42-2.9-1-1.59,1.36.2.14,5.43,1.5,5.63l-.29.92c0-.26-.06-.31,0-.57-.65,1.8,1,1.33.79,3.65-.11.8-.3,1.36-.47.81l.34,1.8c0,.52-.26.39-.24-.13l.11,2.74,0,0a13.57,13.57,0,0,1,.69,1.71c-.2.69-.15-.35-.32-.18l.33,1.52c-.35.62-.69-.64-.64-1.69-1.36,1.42.34,1.26-.45,4.32l-.17-1.43c-.79.87-.45,2.25-1.06,3.14a10,10,0,0,0,.82-1c.32-.55.64-.86.81,0a3.07,3.07,0,0,0,0,1.6c-.47-.07-.46.61-.72,1.43l-.59-.26c-.1.87.16.93.2,1.56a1.3,1.3,0,0,1-1.6.67c-.5.57-.21.48.13.46s.69,0,.06.73c-1.14.82-1.68,1.61-3.12,2.67-1,.13,0-.43-.38-.48l-.31.39a2.63,2.63,0,0,1-.35.37c-.21,0-.19-.12-.17-.21-.68.36.12.69-1.08,1-.14.39-.78.17-1.64-.06a4.42,4.42,0,0,0-2.87-.08c-.44-.18.21-.39.07-.64a21.44,21.44,0,0,0-4.07,1.09l-1.7-.42c1.25.48-.35,1-1.74,1.52.44.23.82.43,1.07.53l-2.23.34c-.26-.1,0-.32.33-.59l-.41.15c-.8-.23-.39-.6.18-1l.81.4c.55-.39,1.06-.82,1-1.2a2.49,2.49,0,0,1-.73.18c.14-.11.23-.2.17-.27s-.31.08-.68.24l-.5-.71-.13.28-2.91-.45c-2.09.72-3.9,1.78-7.21,2.07.82-.52.17-.85.22-1.47.9.65,2.56-.28,4.28-.15-.9-.07-.7-.36-.47-.46l-3.06.59c.07-.5-.65-.38-1.45-.59.6,1-2.28.67-3.53,1-.07-.34.22-.68,1.74-.6-1.67-.76-2.16,1.18-3.81.53.37,0,.57,0,.72-.12-.87.3-3,.06-2.49-.23h.37c-2.46-.12-7.49,0-7.86.84a3.9,3.9,0,0,1,.47-1.2l-4.39,2.87c.39-.73-1.1-2.47.94-2.89a6,6,0,0,0-2.55,0c.4.1,1,1,.45,1.12a13.4,13.4,0,0,0-2.89-1.13c.6.16-.06,1.3-1,1.27.15-.17-.08-1.13.27-1.25l-2.36,1.12c.59-.2.1-.95-.43-1.27.25.22-2,0-2.66.09l1,.26c-2.67-.17-2.63,1.58-5.28,1.52a.87.87,0,0,0-.55-1.57c-.62.58-2.72,2.77-5.06,3.22l-.45-.33-1.79.37a36.7,36.7,0,0,1,6-3.4c-1-.26-.28-.39-1.77-.36-.53-.31.81-.46,1.25-.48l-3.47-.2c.15.67-2.66.67-2.53,1.23l3.78-.69c.15.67-2.19,1.9-4.65,1.79-.62-.27.47-1.2.42-1.43a3.93,3.93,0,0,1-1.32.29,2.25,2.25,0,0,1-1.12,0l.92-.33a2.09,2.09,0,0,0-.83,0c-.25,0-.49.14-.75.17a1.7,1.7,0,0,1-1.65-.39,2.57,2.57,0,0,1-.68-.68c-.2-.28-.36-.47-.49-.31.29,1-.32,3.33-1.2,3.55a13.28,13.28,0,0,1-1.37-1.25,6,6,0,0,1-1.23-1.81c-.15-.54.37-.55.85-.58s1-.1.85-.51c-.13.13-.62,0-.81-.09-.27-.47.52-.24-.29-1-.67.33-1.35-1.87-.79,0a2.32,2.32,0,0,1-.69-1c-.06-.15-.12-.31-.21-.51a6.31,6.31,0,0,0-.32-.73c-.1.28-.6.19-1.09-.2a3.81,3.81,0,0,1-1.27-1.68c.18,0,.35-.29.43-.44a13.82,13.82,0,0,1,0-3.25c.09-1,.17-1.94.17-3.15.17-.22.36-1.39.66-.89a3.55,3.55,0,0,1-.37-1.42c.59-1.45.09,1.67.8.56-.39-.09-.55-1.93-.79-3-.61.33-.12,2.47.13,3.53-.85,0-1.73-1.85-2.12-4.39-.21-2,.54-.87.42-1.22.15-3.78-1.47-3.22-.86-6.36.54-1.25,1.07-.06,1.46-.34.2,1.64-.34,2.52-.32,3.63l.25-1.36a4.81,4.81,0,0,1,.16,2.21c.48-1,.09-6.39.54-9.31-.18-.52-.37-1.42-.58-1l.07.92c-.43.85-.6-1.74-.8-.57A10.53,10.53,0,0,1,34.53,89l.61-.33c-.18,0-.36,1.14-.18,1.63-.27-.73.83-2.67,0-3.47l-.42,1.22a11.87,11.87,0,0,1-.77-4.32c-.6.7.07.35-.64,1.45.88-1,0,4,.89,2.43-.82,1.12-.35,2-1,3.42.2,0,.39-.52.29.78a1.23,1.23,0,0,1,.18.28l0,.09,0-.07c0,.05,0,.06,0,0a1.61,1.61,0,0,1,.31-.66c.47.64.45,2.71.69,3.4-.09.77-.23-.32-.45.1l.36,1c-.45.1-.74,2-1,.23l0,1.63a7.5,7.5,0,0,0-.16,3.1c-.1.77.5,1.94.15,1.27l.27,2.56-.11,0c0,2.52.75,5.2-.06,8.09a12.49,12.49,0,0,1,.12,3.15l-.39.28c.07.46,0,1.55,0,2.47a3.42,3.42,0,0,0,.51,2c-.32.84.2,2.54,1.24,4a19.74,19.74,0,0,0,3.4,3.61l.38-.35a10.44,10.44,0,0,0,4.7,2.1l0-.46a7.71,7.71,0,0,1,1.38.24c.5.08,1,.26,1.63.34l.91.14.81.09a15.25,15.25,0,0,0,1.66.07c-.15.17-.72.13-1.12,0,2.68,1,5.64-.73,8.07,0a2.57,2.57,0,0,1,1.46,0l-.15,0h.25c.27.08.54.17.84.24a3.43,3.43,0,0,0-.7-.24,14.92,14.92,0,0,0,1.86-.18l.3.48h.16c.68.18.54-.23.18-.59a5.27,5.27,0,0,0,.92-.29c.55.77,1.81-.26,2.57.56.47-.4,3.48-.3,3.85-1.15,0,.11.23.16-.15.17a5,5,0,0,0,2.24,0l.33.62,1.69-.83c1,.38,1.45.59.43,1.07,2.45-.73,2-.28,4.08-1l-.1.4c.75,0,1.94-.55,2.39-.22,1.67.75,8.27.11,12.55.8-.83-1.16,2,.53,2.17-.38.25.28.84.43.15.67,2.19-.27,3.29.44,4.8-.32.25.28-.47.4-.25.57.18-.06.7-.24.93-.08s-.33.23-.67.35c2.23,0,2.46-.89,2.62-1.69a2.47,2.47,0,0,0,2.52-.2c.39.26,1,.54-.34.63.78,0,4.78.38,4.86-.26a2.45,2.45,0,0,0,1.29,0c1.76,0,1.91.09,3.63,0l-.47-.1a1.27,1.27,0,0,1,1.17-.41l.8.05a5.54,5.54,0,0,0,1-.11l0,.08a4.47,4.47,0,0,0,2.44-.53,7.07,7.07,0,0,1,.65-.31c.33-.14.84-.29,1.66-.63l-.42-.31c-.12-.51.55-.77,1.43-1.2a4.91,4.91,0,0,0,2.35-2.06l-.65.41a1.53,1.53,0,0,1,.62-.71,10.8,10.8,0,0,1,1-.69,5,5,0,0,0,1.76-1.62c.18-.22,0,.44-.08.82.87-1.4.7-1.59.47-1.65s-.59-.08-.39-1.19c.4-.37.75.74,1.07-.86a6.4,6.4,0,0,0-.25-2.72,6.32,6.32,0,0,1-.08-3.22c-.27.39-.53.79-.72-.12-.1-1.39,1-3.75.16-5,.07-.17.14-.24.21-.25-.22-1.06-.36-3.45-.8-4.09,1.65-1-.81-6.59.72-6.57l-.08-3.26.15.08a6,6,0,0,0-.63-3.56c.1-.48.25-.13.33-.09a10.72,10.72,0,0,0-.52-5.9l.49-.27c-.28-.69.78-4.41.2-7.4.06,0,.16.09.23.33-.59-3.37,1.37-8-.43-9.29l-.45-2.22c-.14,2.88-.78-.43-1.08.76-.11-1.13.54-2.92.64-1.54l-.09.22c.94.51.33-3.57,1-3.49,0-2.83.09-5.62.22-8.36,0-.69.07-1.37.1-2.05a14.51,14.51,0,0,0-.11-2.36,12.73,12.73,0,0,0-1.48-4.48s-.06.24-.15.49l-.17.48a12.27,12.27,0,0,0-1-1.79c-.2-.53,0-1,.88.32,0-.47-.52-.93-1-1.28a2.52,2.52,0,0,0-1-.44c-.93-1.12-.62-1.07-.07-.83s1.18.79.88.43l-.46-.46-.5-.41.16.26a8.82,8.82,0,0,0-1.15-.46,9.69,9.69,0,0,1-1.55-.86c-.91-.7-.3-.68-.7-.92,0,0-.11-.14-.64-.33l-1.28-.51-1.34-.37.47.41.45.42c-1.21-.07-2.42-.48-1.35.32a2.85,2.85,0,0,0-.86-.44,8.17,8.17,0,0,0-1.34-.26c-.92-.09-2-.11-3-.12a37.69,37.69,0,0,1-4.6-.07,14.63,14.63,0,0,1-4.63.36c.43.12.7.77-.83.69.56-1.34-2.78-.58-4-1.55,1.1.64-4.33.16-2.6,1.07-1.27-.11-.08-.5-1-.82-3,.52-6.67-.34-10.41-.16-.06.18.57.44-.23.71l-2-.88c-.74.08-.68,1-2,.4.19.15.48.37,0,.43-7.32-.86-15,.7-22.4-.91,1,.34.33.38-.44.39.5.08,0,.43.09.67l-3.12-.66c-.56.66-3.33,0-3.66.68l1-.12c-1.32.75,1.83,1.66,1.64,2.62,1.47-.85,3.87,1.26,6.28,0,.53.2-.45.31-.17.53a3.72,3.72,0,0,1,2.72-.31l-.16.1c3.84-.1,5.49.31,9.8.58l-.31-.48a5.3,5.3,0,0,1,1.55.33c1.07-.72-2.6,0-1.63-.83,1.23,1,6.53,0,7.37,1.11,1.42,0-.42-.55,1-.54l.38.29.36-.38c.94.07,1.41.44,1.44.69a5.47,5.47,0,0,0-.88.09c1.21.35,3.41-.12,3.83,0l-1.37-.18c3.89-.28,8.65.11,12.41-.49l-.29-.22c2.87-.42,2.3.24,5.45,0l-.11,0a6.89,6.89,0,0,1,2.33-.31c-.79.27,1.5.51.46.8,3.11-.44,1.54-.35,3.59-1.18l.48.37a4.13,4.13,0,0,1,2.33-.6c-1.29.31,1,.56-.44,1a8.88,8.88,0,0,0,3.88,0,6.71,6.71,0,0,1,1.36-.11,1.69,1.69,0,0,1,.6.12,1.41,1.41,0,0,1,.47.35c.66-.48.11-.66-.64-.73s-1.68,0-1.26-.09c-.35-.17,0-.36.49-.5a6,6,0,0,1,.91-.15,3.79,3.79,0,0,1,.84,0c.5,0,.88.45,1.37.87a8.17,8.17,0,0,0,2.06,1.4c-.19-.1-.24,0-.43-.13.6.55,1.62.45,2.16,1.43a1,1,0,0,1,.87.37c.2.2.38.35.74.15l-.25-.23a4.2,4.2,0,0,0-.57-.47,6.08,6.08,0,0,0-.88-.61c.28.14.58.24.87.38a5.17,5.17,0,0,1,1,.46,3.53,3.53,0,0,1,1.6,2,6.06,6.06,0,0,1-1-.75c.13.6.77.87.8,1.54-.19,0-.37-.07-.54-.28a5.78,5.78,0,0,1-.59-.79,3.62,3.62,0,0,0-1.7-1.47c.11.3.58.62.93.88s.49.5,0,.52c.7,0,1,.5,1.22,1.07a4.67,4.67,0,0,0,1,1.83l-.48,0a2.45,2.45,0,0,1,.52,1l-.36-.33-.39-.29c.79,1.06-.19,2.06.09,3.56,0-1.48.13-1.6.32-1.55s.43.25.58-.27a5.29,5.29,0,0,1,.15,1.06,3,3,0,0,1-.06.78,2.6,2.6,0,0,1-.43,1,4.52,4.52,0,0,0-.66,3.22c-.06-.55.29-2.05.51-1.2a8.36,8.36,0,0,1-.53,2.26c.1,2.67.49-.41.78.72-.58.92.23,1.32.42,2.49h-.48c-.31,3.05,1,.81.63,3.55l-.67-1.16.17,1.43-.55-.29a7.68,7.68,0,0,1,.15,3.56c.34-.35.88.2.89,1.55-.28.92-.46-.51-.39,1.4a1.42,1.42,0,0,1-.23-1.74c-.16-.08-.31-.42-.46-.51a10.13,10.13,0,0,0-.07,3.18,2.64,2.64,0,0,1,.11-.75l.67,2.78c-.18.43-.33.09-.47-.26,0,.57.27.95.31,1.78-.39-.21-.79-.16-1-1.33l.44,2.64c-.17.18-.47,1.36-.61,1-.23,1.46.76,3.59.45,5.53a1.64,1.64,0,0,1,.21.72c-.09,1.83-.57,3.44,0,5.61l-.7,1.22c.16,1.7.89-1.66,1.15,1.16.23,2-.6.75-.79,1.45a7.06,7.06,0,0,1,.5,4.56A11.75,11.75,0,0,1,122.79,96Zm.31,20.9c-.1-.41-.41-1.21-.13-1.51C123.53,115.85,123.26,116.21,123.1,116.9Zm-23,10.5a1.76,1.76,0,0,1,1.29.1A3.69,3.69,0,0,1,100.11,127.4ZM33.65,99.11s0,0,0,0C33.48,100.06,33.56,99.74,33.65,99.11Zm.21-1.88c-.07-.18-.14-.17-.2-.09a1.9,1.9,0,0,1,.09,1C33.88,98,34,97.79,33.86,97.23Zm85.62-58.77.33.3C118.89,38.47,119.19,38.48,119.48,38.46Z"/><path class="cls-1" d="M103.71,126.74a.43.43,0,0,1,.18.26C104.05,126.92,104.05,126.83,103.71,126.74Z"/><path class="cls-1" d="M122.54,83v-.07a.24.24,0,0,0-.09-.06Z"/><path class="cls-1" d="M40.94,123.85a1.65,1.65,0,0,1,.3.61C41.33,124.38,41.29,124.21,40.94,123.85Z"/><path class="cls-1" d="M33,87.29l.12,1.2a2.77,2.77,0,0,1,.16-1.08C33.21,87.44,33,87.67,33,87.29Z"/><path class="cls-1" d="M36,76.86c-.06-.17,0-.37-.06-.54l-.23,0C35.75,77.11,35.93,77.64,36,76.86Z"/><path class="cls-1" d="M34.64,86.18c.41-.1.27-.85.19-1.69a.75.75,0,0,1,0,.15C34.26,84.39,34.45,85.29,34.64,86.18Z"/><path class="cls-1" d="M34.82,84.29a5,5,0,0,1,0-.77C34.58,83.42,34.76,83.83,34.82,84.29Z"/><path class="cls-1" d="M33.59,94.86c.1-.4-.52-.26-.36-.48C32.72,93.93,33.86,97,33.59,94.86Z"/><polygon class="cls-1" points="35.98 85.5 35.48 85.8 35.88 86.27 35.98 85.5"/><path class="cls-1" d="M35.61,92.15l.14-1.35c-.09,0-.13-.15-.17-.36C35.56,91.27,35.46,92.18,35.61,92.15Z"/><path class="cls-1" d="M35.58,90.44a3.36,3.36,0,0,0-.09-1.08A9.76,9.76,0,0,0,35.58,90.44Z"/><polygon class="cls-1" points="36.13 87.34 36.02 87.73 35.99 88.69 36.13 87.34"/><path class="cls-1" d="M35.51,106.6l.15,1.47c.17.15.27-.25.21-.79C35.74,106.92,35.68,106.38,35.51,106.6Z"/><path class="cls-1" d="M36.88,102.16a1.26,1.26,0,0,1-.38.65l.62,0Z"/><path class="cls-1" d="M37,106.45c.17.14.49,2.13.46.27C37.31,106.57,37.17,105.1,37,106.45Z"/><path class="cls-1" d="M41.53,126.45l-.32-.19-.52.88.43-.34Z"/><path class="cls-1" d="M60.55,125.73c-1.74-.25-.42.62-2,.32-.41.24,1.29.25.87.46C60.48,126.25,61,126.4,60.55,125.73Z"/><path class="cls-1" d="M59.43,126.51l-.54.15A2.43,2.43,0,0,0,59.43,126.51Z"/><polygon class="cls-1" points="50.53 36.67 49.41 36.46 50.13 36.8 50.53 36.67"/><path class="cls-1" d="M48.38,37.43l-.26-.65-.67.59C47.7,37.34,48.19,37.28,48.38,37.43Z"/><path class="cls-1" d="M121.5,119.05l.14.1c.19-.08.27-.26.36-.62a3.45,3.45,0,0,1-.24.27Z"/><polygon class="cls-1" points="122.28 104.83 122.27 105.09 122.85 104.61 122.28 104.83"/><path class="cls-1" d="M121.53,92.1c0,.52.11,1.13.08,1.65C121.51,92.62,122.26,92,121.53,92.1Z"/></g></g></svg>