<svg xmlns="http://www.w3.org/2000/svg" viewBox="0 0 667.64 456.94"><defs><style>.cls-1{fill:#fffdf1;fill-rule:evenodd;}</style></defs><g id="Camada_2" data-name="Camada 2"><g id="Layer_1" data-name="Layer 1"><path class="cls-1" d="M441.17,176.44l3.47-5.81-2.91-4.3-4.85-1c-2.21-2.63-.14-4.43-.83-7.48-2.91-4.15-9-4.7-10.25-7.06,1.8,4.71,6.37,8.73,5.26,14.27l-5,2.49-7.62.28-8.45-.28-4.57,2.77h-8.86l-6.23-3-11.64-.41-9.41-1.11-9.14-5.13.27-5.12-2.77-3.74h-2.77l-1-1.25L352.4,144l-5.26-4.3,3.46-1.52v-2.49l-3.74-1-1.8-7.48-1.52-9.14L342,114.26l.28-7.62,2.49-4.71,3.05-7.75,2.08-4.57v-4.3l-2.77-3.74-.28-4.43,3.05,1.25,2.77-1.25L356.14,73l1-3.47,1.52-3.74,3.74,3.47,3.05-5.68L369.71,59l3.33-.69,4-6.79,2.49,2.22L386.05,50,384,47.5l.55-7.06,1-3.46,4.15-7.76,3.19-1.8-.69-3.88,2.91-4.43,4.15-5,.83-3.47L405.58,14l6.09-2.22h7.62l2.91-4.43,7.62-1.25,6.51-4.29L449.62,0l12.47,7.48,16.48-4.71,7.06,3.88,8,1.24,8,1.25,4.84,4.16.7,9.14,5.4,2.77,3.6,7.47,1.66.14-1.66,5.82,2.49,4.85,6,.27,5.95,3.47,2.77,4.15,8,3.19,1,.41,6.09,1.39,2.63,4.71-1.66,9.41.55.56,3.33,3.74-1.8,6.09,2.63,2.77-3.05,8.17,7.48,6.23-3.19,1.67,2.64,4.84.27,4.3,4,4.15,5,9.42-.69,1.8L571.36,137l-5.54,5.54-1.94,3.88.28,3.6-5.68,2.08h-4.57l-3.32,5.4-4.3-.28L540.2,162v.69l-4.71,5.82-3.32-1.25-5.54-3.6-7.07-1-5.26,1.39-3.18,1.52-6.38,3.19-4.84-.28-6.1-4.43-6.92.83-3.6,3.05-7.62.27h-9.83l-2.08-2.63H461l-1,2.63.42.69,2.49,5.13,1.25,3.6H464l-8,.28-2.21,1h-3.33l-1.1-.7-6.79-.27-1.39-1.53Zm33.87-76c-.73.76-.77,1.92-1.05,3.18A65.47,65.47,0,0,1,470.85,114c-5.1,12.33-13,8.08-15,20.94-2,13.34,0,24.22,10.61,8.29,1.13-1.71,1.6-4.36,2.52-6.39,3.08-6.89,6.33-11.21,7.21-19.67.34-3.31.18-14.33-1.19-16.71Zm-35.21,45.93,3.67-8.08c4.75-10.66,4.5-16.89,2.3-28.09-.23-1.19-.09-1.75-1-2.28-1.43,2.62-1.23,11.59-4.82,14.64-1.87,1.59-2.45.55-3.29,3.28-2.8,9.13,1.29,20,3.18,20.53Zm-6.26-37.18c1.5-.77,5.15-11.06,1.79-18.81-.65-1.5-1.23-2.68-1.8-4.13s-.72-3.22-1.41-4.55c-.78-1.5-3.8-5.75-6.39-5.27-3.14.58-6.1,13.15-.22,17.19,3.16,2.17,4.21,1.87,6,5.85,1.27,2.83,1.37,8.36,2.05,9.72Zm33.79-37.38a84.31,84.31,0,0,1-4.26,8.73c-6.59,11.27-4.77,4.85-7.8,18.53-.5,2.27-3.32,8.31-1,10.26,2.64,2.25,7.35-2.62,8.31-3.65a14.43,14.43,0,0,0,4-9.23c.21-4.4-.52-8.49-.37-12.86.13-3.84,1.26-8.32,1.12-11.78ZM329.41,203.73H583.69v6.37H329.41v-6.37ZM367.63,83.1c-4,7.2-5,15.23-5.81,23,4.57,13.29,14.82,21,22,31.57-8-17.17-15.65-35.31-16.21-54.56Zm15.52,10.66c-3.74-15.93.13-21.19,5.67-37.53C377.74,74.1,369.57,79.5,381.21,99c.41-2.21,1.8-5.4,1.94-5.26Zm138.63-6.37c.41,0,.55,1.94.83,2.91,17-29.78,6.51-23.13-1.11-38.64,5.54,16.48,7.9,23,.28,35.73Zm6.51,38.36c.41-.13-2.63,6.37-2.36,7.48C541.72,103.87,550,114,540.34,79.36c-.42,24.93-6.79,36.7-12.05,46.39ZM417.77,53.46c-4-2.22-4.85-3.32-6-17.87-8.31,23.13-.55,29.5,1.8,40,5.13-7.9,6.38-14.54,4.16-22.16Zm33.65,26.45c6.37-10.25,12.05-45.43,1.11-63.15,8.17,23.13-7.48,25.07-6.09,42-.83,5.13,6.92,2.49,5,21.19ZM492.56,64.4c-.83-12.46,5.95-16.9-5.27-37.12,3.74,27.43-6.23,18.56-6,32.69.83,5.68,5.54,26,11.22,4.43Zm-6.1,84.07c27.29-23.55,24.1-63.85,13.16-83.38,1.94,36.29-14.27,43.49-11.91,57.62,15.65,3.32-3.33,19.52-1.25,25.76Zm28.39-1.67c8.73-14.68,1.67-12.32,5.82-49.85C512.08,143.07,494.08,144,494.22,158c11.36-6.23,14.82-3.74,20.63-11.22Zm-94.59-25.34c-3.74-6.65-18-21.88-17.86-51.66-5.27,57.2,14.68,60.25,14.81,74.37,5.68-9.41,4.85-13.15,3.05-22.71Zm-10.94,42.38c4.85-12.74-19.67-27.28-22.3-62.46,1.8,36.56,0,54.43,10.25,56.78,7.9,2.36,8,1.25,12.05,5.68Zm67-7.48c3.74-6.65.28-3.88,1.11-17-2.49,9.83-2.22,8.86-5.12,13.43-2.5,4.15-2.22,12.19,4,3.6Zm-42-131.15c-1.25-4.85-3.46-5.41-4.29-16.62-1,12.74-5,11.21-3.33,20.91C425,42.66,436.19,31.3,434.39,25.21Z"/><path class="cls-1" d="M331.23,301.32c.3-3.68.54-7.63.69-11.86s.22-9.76.22-16.59c0-6.6-.06-12.13-.22-16.6s-.39-8.46-.69-12c1.19.15,2.4.27,3.61.36s2.42.14,3.65.14,2.43-.05,3.63-.14,2.38-.21,3.55-.36q-.48,5.34-.7,12.06c-.15,4.48-.22,10-.22,16.5q0,10.63.22,16.94t.65,11.51c-1.33-.14-2.58-.26-3.76-.32s-2.31-.1-3.37-.1-2.27,0-3.45.1S332.59,301.18,331.23,301.32Z"/><path class="cls-1" d="M409.87,298.37a111.58,111.58,0,0,1-13.11,3,74.34,74.34,0,0,1-11.85,1q-14,0-22-7.89t-8-21.58q0-13.82,8.72-21.73t24.1-7.9a50.22,50.22,0,0,1,11.71,1.27,34,34,0,0,1,9.65,3.86,50,50,0,0,0-1.69,5.25,38.73,38.73,0,0,0-.92,4.64h-.65a18.37,18.37,0,0,0-7.15-7.63A21.06,21.06,0,0,0,388,248.06q-9.5,0-14.64,6.44t-5.15,18.37q0,11.89,5.09,18.25c3.39,4.24,8.28,6.36,14.63,6.36a26,26,0,0,0,5.15-.48,19.32,19.32,0,0,0,4.51-1.44c.08-1.3.15-2.58.19-3.84s.06-2.55.06-3.86q0-3.47-.17-6.51c-.11-2-.27-4-.5-5.83,1.06.11,2.14.2,3.27.25s2.31.09,3.59.09,2.2,0,3.19-.09,1.9-.14,2.81-.25c-.11,1.94-.2,4-.25,6.1s-.09,4.43-.09,6.94c0,2.66,0,4.66,0,6S409.81,297.2,409.87,298.37Z"/><path class="cls-1" d="M433.09,271.6h.33c4.59,0,7.92-1,10-2.94s3.12-5.06,3.12-9.33c0-3.59-.91-6.2-2.73-7.86s-4.69-2.49-8.62-2.49c-.2,0-.49,0-.88,0s-.7,0-.92,0c-.11,1.71-.18,3.41-.22,5.12s-.07,3.35-.07,5V271.6Zm-13,29.72q.54-5.79.82-12.43c.18-4.43.26-9.78.26-16q0-8.83-.26-15.77t-.82-12.88c.79.11,1.55.2,2.32.25s1.49.09,2.17.09l5.4-.17c3.3-.11,6.47-.17,9.49-.17q10.14,0,15.12,3.55c3.32,2.36,5,6,5,10.79a13.23,13.23,0,0,1-3.4,9.38q-3.39,3.68-10.12,5.26l18.78,28.12c-1.34-.14-2.62-.26-3.86-.32s-2.43-.1-3.57-.1-2.28,0-3.51.1-2.53.18-3.92.32q-3.61-6.48-7.82-13.25c-2.8-4.51-5.79-9.12-9-13.88v11.28q0,3.61.17,7.54t.5,8.31c-1.2-.14-2.35-.26-3.48-.32s-2.2-.1-3.27-.1-2.11,0-3.27.1S421.43,301.18,420.07,301.32Z"/><path class="cls-1" d="M470.73,301.32c.37-2.94.63-6.29.78-10.09s.23-9.91.23-18.35v-4.2q0-9.45-.23-14.8c-.15-3.57-.41-6.75-.78-9.57q3.88.16,8,.25t8.62.08q4.53,0,8.27-.08t7.06-.25c-.14.91-.22,1.64-.26,2.15s-.07,1-.07,1.43,0,.89.07,1.37.12,1.19.26,2.14q-6.15-.42-10.65-.65c-3-.16-5.62-.24-7.85-.27-.1,1-.18,2.09-.22,3.23s-.06,2.82-.06,5v4l0,5.66,8.91-.32,9.5-.35c-.14.85-.22,1.52-.27,2s-.05,1-.05,1.49a31.37,31.37,0,0,0,.28,3.34,1.93,1.93,0,0,1,0,.24q-7.56-.44-11.52-.59c-2.63-.1-4.94-.16-6.93-.16v10q0,5.4.08,7.57c.06,1.43.13,2.64.24,3.63q3.78-.13,8.39-.45c3.08-.21,6.43-.47,10.07-.81q-.12.82-.18,1.62c0,.53-.07,1.08-.07,1.65s0,1.32.13,2.26.12,1.51.12,1.74q-8.29-.26-12.74-.34c-3-.05-5.37-.08-7.21-.08q-3.71,0-6.62.1C474.21,301.06,472.4,301.18,470.73,301.32Z"/><path class="cls-1" d="M504.23,314.5l-.69-3.42h.53a14.47,14.47,0,0,0,5.42-.87,7.32,7.32,0,0,0,3.33-2.63,13.86,13.86,0,0,0,1.51-5.53,121.88,121.88,0,0,0,.48-13.09q0-10.6-.27-21.78t-.74-22.87c1.06.11,2.18.19,3.33.25s2.38.08,3.69.08,2.57,0,3.72-.08,2.26-.14,3.29-.25q-.42,6.47-.63,13.81T527,273.77c0,2.23,0,5.2.13,9s.12,6.39.12,7.9q0,7.83-1.32,12a16.28,16.28,0,0,1-4.42,7.1,17.82,17.82,0,0,1-6.29,3.66,24,24,0,0,1-8.08,1.35q-.42,0-1.17-.06C505.46,314.66,504.89,314.59,504.23,314.5Z"/><path class="cls-1" d="M533.25,301.32q6.07-13.43,11.88-27.87t11.43-30.23q.88.12,1.71.18c.54,0,1.08.07,1.63.07s1,0,1.53-.07,1-.1,1.44-.18q5.05,13.86,10.84,28.38t12.38,29.72c-1.06-.12-2.18-.2-3.37-.26s-2.44-.08-3.81-.08-2.61,0-3.78.08-2.31.14-3.42.26c-.66-2.09-1.37-4.32-2.15-6.67s-1.89-5.72-3.35-10.11c-1.14-.06-2.39-.1-3.73-.13s-3.35,0-6,0-4.71,0-6.05,0-2.59.07-3.73.13q-2.4,7.06-3.64,10.54c-.82,2.31-1.59,4.39-2.26,6.24-.79-.12-1.46-.2-2-.26s-1.09-.08-1.57-.08a32.51,32.51,0,0,0-3.51.29,2.92,2.92,0,0,1-.45.05ZM549,279h.23c3.19.11,5.58.17,7.22.17.87,0,1.8,0,2.79,0s2.53-.07,4.63-.15q-1.64-5-3.45-9.77c-1.21-3.18-2.48-6.31-3.81-9.36q-2.07,4.44-4,9.22T549,279Z"/><path class="cls-1" d="M342.18,423.8c.2,0,.48,0,.87,0s.64,0,.8,0c4,0,6.9-.9,8.82-2.72s2.87-4.62,2.87-8.39c0-3-.86-5.36-2.59-7s-4.23-2.38-7.51-2.38h-1c-.34,0-.9.08-1.66.16a45.55,45.55,0,0,0-.48,4.67c-.08,1.71-.14,3.61-.14,5.68v9.85Zm.41,27.22a15.26,15.26,0,0,0,1.68.32,9.08,9.08,0,0,0,1.25.09c3.44,0,6.07-1,7.92-3s2.77-4.9,2.77-8.64-1-6.57-2.94-8.53-4.8-2.93-8.51-2.93h-1.48a8.21,8.21,0,0,0-1,.11v10.81c0,1.89,0,3.84.08,5.83s.14,4,.24,5.95Zm-13.34,4.83c.3-2.42.54-5.16.69-8.23s.22-7.34.22-12.79V427.4q0-12.87-.21-18.53c-.13-3.78-.37-7.12-.7-10q3.66.12,6.3.18c1.75,0,3.16.07,4.21.07s2.84,0,5-.12,3.71-.13,4.67-.13q9.17,0,13.77,3.28c3.08,2.19,4.61,5.46,4.61,9.84a11.28,11.28,0,0,1-4.42,9.31q-4.42,3.48-12.54,4v.45c6.21,0,10.81,1.17,13.84,3.5s4.54,5.93,4.54,10.77c0,5-1.74,8.89-5.2,11.69s-8.31,4.17-14.53,4.17c-1.52,0-3.89-.05-7.14-.17s-5.69-.16-7.37-.16c-1,0-2.68.09-5.05.29C329.61,455.84,329.38,455.85,329.25,455.85Z"/><path class="cls-1" d="M392.28,426.14h.33c4.6,0,7.92-1,10-2.94s3.12-5.06,3.12-9.34q0-5.37-2.73-7.85t-8.62-2.49c-.2,0-.49,0-.88,0l-.92,0c-.11,1.71-.18,3.41-.22,5.12s-.07,3.35-.07,5v12.44Zm-13,29.71c.36-3.85.64-8,.82-12.42s.26-9.78.26-16q0-8.82-.26-15.76t-.82-12.88c.79.11,1.56.19,2.32.25s1.49.08,2.17.08c.29,0,2.09,0,5.4-.17s6.47-.16,9.49-.16q10.14,0,15.12,3.55t5,10.79a13.28,13.28,0,0,1-3.39,9.38q-3.41,3.67-10.13,5.25L424,455.85c-1.34-.14-2.62-.25-3.85-.32s-2.44-.1-3.58-.1-2.28,0-3.51.1-2.53.18-3.92.32c-2.41-4.31-5-8.74-7.82-13.24s-5.78-9.13-9-13.89V440c0,2.4.06,4.92.17,7.54s.28,5.37.5,8.3c-1.2-.14-2.35-.25-3.48-.32s-2.19-.1-3.27-.1-2.11,0-3.26.1S380.62,455.71,379.26,455.85Z"/><path class="cls-1" d="M422.58,455.85q6.07-13.41,11.88-27.86t11.42-30.23c.6.08,1.17.13,1.71.18s1.09.07,1.63.07,1,0,1.53-.07,1-.1,1.45-.18q5,13.85,10.84,28.38t12.38,29.71c-1.06-.11-2.19-.19-3.37-.25s-2.45-.08-3.81-.08-2.62,0-3.79.08-2.3.14-3.42.25c-.65-2.08-1.36-4.31-2.14-6.66s-1.89-5.72-3.35-10.12c-1.14-.05-2.4-.09-3.73-.12s-3.35,0-6,0-4.72,0-6.05,0-2.59.07-3.73.12c-1.6,4.72-2.83,8.24-3.65,10.55s-1.58,4.38-2.25,6.23c-.79-.11-1.46-.19-2-.25s-1.08-.08-1.57-.08a30.41,30.41,0,0,0-3.51.29,2.73,2.73,0,0,1-.44,0Zm15.76-22.29h.24c3.18.12,5.58.17,7.22.17h2.78c1,0,2.53-.07,4.63-.16-1.08-3.31-2.24-6.56-3.45-9.76s-2.47-6.32-3.81-9.36q-2.07,4.44-4,9.22C440.72,426.85,439.51,430.14,438.34,433.56Z"/><path class="cls-1" d="M477.57,453c.49-1.72,1-3.54,1.44-5.44s.89-3.94,1.3-6.06h1.1a13.2,13.2,0,0,0,4.3,7.52,11.91,11.91,0,0,0,7.89,2.67,9.76,9.76,0,0,0,6.8-2.3,7.88,7.88,0,0,0,2.55-6.13,7.28,7.28,0,0,0-1.63-4.77c-1.1-1.33-3.74-3.13-8-5.42q-9.71-5.18-12.62-8.94a15,15,0,0,1-2.91-9.36,15.58,15.58,0,0,1,5.39-12.3q5.39-4.69,14.22-4.7a25.39,25.39,0,0,1,7.15,1,21.78,21.78,0,0,1,6.21,2.94c-.57,1.65-1.08,3.23-1.54,4.76s-.86,3-1.22,4.44h-.89a11.47,11.47,0,0,0-11.22-8,8.56,8.56,0,0,0-5.92,2,6.86,6.86,0,0,0-2.24,5.33,7,7,0,0,0,1.67,4.73q1.68,2,7.44,4.94c.83.46,2.06,1.07,3.67,1.84q6.68,3.3,8.52,5.17a15.21,15.21,0,0,1,3.32,5.09,17,17,0,0,1,1.09,6.2q0,8.46-5.71,13.63t-15.26,5.15a33.53,33.53,0,0,1-8.68-1A17.52,17.52,0,0,1,477.57,453Z"/><path class="cls-1" d="M522.88,455.85q.47-5.5.7-11.85t.22-16.6c0-6.59-.07-12.13-.22-16.59s-.39-8.46-.7-12c1.2.15,2.41.28,3.62.36s2.42.14,3.65.14,2.43,0,3.63-.14,2.38-.21,3.54-.36q-.48,5.34-.69,12.06c-.15,4.48-.22,10-.22,16.5,0,7.1.07,12.74.22,17s.36,8,.65,11.5c-1.33-.14-2.58-.25-3.77-.32s-2.31-.1-3.36-.1-2.27,0-3.45.1S524.25,455.71,522.88,455.85Z"/><path class="cls-1" d="M549.78,455.85c.33-3.82.58-8,.75-12.42s.25-9.8.25-16q0-9-.25-15.93c-.17-4.64-.42-8.86-.75-12.63,1.16.15,2.33.28,3.5.36s2.34.14,3.51.14,2.33,0,3.5-.14,2.34-.21,3.51-.36q-.52,5.78-.77,12.76t-.23,15.82q0,8.65.14,13.74t.41,8.76c3.44-.08,6.71-.22,9.84-.41s6.2-.45,9.22-.75c-.08.54-.14,1.11-.18,1.69s-.07,1.19-.07,1.81,0,1.16.07,1.74.1,1.2.18,1.85c-3.89-.22-7.19-.37-9.92-.46s-5.17-.12-7.37-.12c-2,0-4.17,0-6.57.12S553.23,455.63,549.78,455.85Z"/><path class="cls-1" d="M244.89,452.32c.72.12,1.43.2,2.11.25s1.31.09,1.91.09q7.71,0,11.6-4.33t3.88-12.93q0-8.67-3.61-12.5T249,419.07l-2.41.06-1.57.06q-.11,3.9-.16,8.45t-.06,10.06q0,5.87,0,8.92c0,2,0,3.93.09,5.7Zm-9.49,3.58c.21-1.7.38-3.64.49-5.81s.16-5.18.16-9v-8.43q0-6.53-.16-10.26c-.11-2.48-.28-4.72-.49-6.71.74.07,1.49.13,2.23.17s1.52.06,2.35.06c1.24,0,3.21,0,5.88-.12s4.72-.11,6.15-.11a39.6,39.6,0,0,1,9.32.86,15.57,15.57,0,0,1,6,2.85,16.38,16.38,0,0,1,4.88,6.51,22.78,22.78,0,0,1,1.71,9q0,10.49-6.07,15.76t-18.16,5.26c-1.44,0-3.28,0-5.5-.08s-3.73-.09-4.52-.09-1.84,0-3.2.12Z"/><path class="cls-1" d="M288,435.82q0,8.24,3.4,12.86a11.76,11.76,0,0,0,18.72,0c2.27-3.12,3.4-7.39,3.4-12.84s-1.13-9.84-3.4-13a11.7,11.7,0,0,0-18.71,0q-3.4,4.71-3.41,12.95Zm-9.48.56q0-10.06,6.07-15.77t16.84-5.72q10.35,0,16,5.44T323,435.81Q323,445.3,317,451t-16.21,5.69q-10.74,0-16.5-5.26T278.48,436.38Z"/><path class="cls-1" d="M14.79,351.6c5.07,0,8.71-1.12,11-3.34s3.36-5.84,3.36-10.88c0-4.13-.89-7.22-2.66-9.25s-4.47-3.06-8.11-3.06c-.59,0-1.48.05-2.68.15a1.58,1.58,0,0,1-.29,0c-.19,1.76-.33,3.53-.43,5.27s-.14,3.53-.14,5.3V351.6ZM0,385c.38-4.29.67-9,.86-14s.29-11.24.29-18.47q0-10.05-.29-18.05T0,319.83c1.15.12,2.27.22,3.37.28s2.21.1,3.29.1c1.31,0,3.72-.07,7.22-.19s6.39-.19,8.62-.19q11.24,0,16.46,4.11t5.21,13q0,10.08-6.47,15c-4.33,3.27-10.89,4.91-19.75,4.91-.36,0-.91,0-1.6,0s-1.21,0-1.56,0v14c0,.78.08,2.23.24,4.32s.43,5.43.81,9.89q-2.25-.24-4.2-.36c-1.32-.08-2.59-.11-3.83-.11s-2.47,0-3.74.11S1.43,384.82,0,385Z"/><path class="cls-1" d="M68.21,351h.38q7.88,0,11.42-3.35T83.57,337c0-4.1-1-7.09-3.12-9s-5.36-2.85-9.86-2.85c-.22,0-.55,0-1,.05s-.79,0-1,0c-.12,2-.2,3.89-.25,5.85s-.08,3.83-.08,5.69V351ZM53.33,385q.62-6.6.94-14.2t.3-18.31q0-10.1-.3-18c-.21-5.27-.53-10.19-.94-14.72.9.13,1.78.22,2.65.29s1.7.09,2.48.09c.34,0,2.39-.06,6.17-.19s7.4-.19,10.85-.19q11.58,0,17.28,4.06t5.69,12.33a15.14,15.14,0,0,1-3.88,10.72q-3.88,4.2-11.57,6L104.46,385c-1.53-.16-3-.28-4.4-.36s-2.79-.11-4.09-.11-2.61,0-4,.11-2.89.2-4.48.36c-2.75-4.92-5.74-10-8.94-15.13S71.93,359.42,68.3,354v12.89c0,2.75.07,5.63.2,8.62s.31,6.14.57,9.49c-1.37-.16-2.69-.28-4-.36s-2.51-.11-3.73-.11-2.42,0-3.74.11S54.89,384.82,53.33,385Z"/><path class="cls-1" d="M111.23,385c.42-3.35.72-7.18.89-11.52s.26-11.32.26-21v-4.8q0-10.8-.26-16.91c-.17-4.07-.47-7.71-.89-10.94,3,.12,6,.22,9.16.28s6.42.1,9.86.1,6.6,0,9.44-.1,5.55-.16,8.08-.28c-.16,1.05-.25,1.87-.3,2.46s-.08,1.15-.08,1.64,0,1,.08,1.56.14,1.36.3,2.45c-4.69-.32-8.74-.58-12.18-.75s-6.42-.27-9-.3c-.11,1.14-.2,2.38-.25,3.69s-.06,3.22-.06,5.77v4.58l0,6.47,10.18-.37,10.86-.4q-.24,1.46-.3,2.31c-.05.57-.07,1.14-.07,1.7a34.61,34.61,0,0,0,.32,3.82,1.38,1.38,0,0,1,0,.28q-8.64-.5-13.17-.68c-3-.11-5.64-.18-7.91-.18v11.44q0,6.17.09,8.65c.06,1.63.14,3,.27,4.15q4.32-.15,9.59-.51c3.51-.24,7.34-.54,11.51-.93-.09.62-.16,1.24-.21,1.85s-.08,1.24-.08,1.89.05,1.51.15,2.58.14,1.73.14,2q-9.5-.28-14.56-.38c-3.41-.06-6.14-.09-8.24-.09-2.83,0-5.36,0-7.57.11S113.14,384.82,111.23,385Z"/><path class="cls-1" d="M155.69,381.71c.56-2,1.1-4,1.64-6.22s1-4.5,1.49-6.92h1.26a15,15,0,0,0,4.91,8.59,13.57,13.57,0,0,0,9,3,11.16,11.16,0,0,0,7.77-2.62,9,9,0,0,0,2.91-7,8.34,8.34,0,0,0-1.86-5.45c-1.26-1.52-4.28-3.58-9.11-6.19Q162.64,353,159.3,348.72A17.05,17.05,0,0,1,156,338,17.83,17.83,0,0,1,162.13,324q6.15-5.37,16.25-5.37a29,29,0,0,1,8.17,1.09,25.32,25.32,0,0,1,7.11,3.38c-.66,1.87-1.24,3.68-1.77,5.43s-1,3.45-1.4,5.07h-1a13.1,13.1,0,0,0-12.82-9.15,9.73,9.73,0,0,0-6.77,2.3,7.85,7.85,0,0,0-2.56,6.09,8.07,8.07,0,0,0,1.9,5.41q1.94,2.24,8.51,5.64,1.42.79,4.2,2.1,7.63,3.76,9.73,5.92a17.32,17.32,0,0,1,3.8,5.81,19.24,19.24,0,0,1,1.24,7.08q0,9.67-6.52,15.58t-17.44,5.88a38.54,38.54,0,0,1-9.92-1.11A20,20,0,0,1,155.69,381.71Z"/><path class="cls-1" d="M222.17,348.35c.22,0,.54,0,1,0s.73.05.92.05q6.8,0,10.08-3.12t3.28-9.59c0-3.48-1-6.12-3-7.95s-4.83-2.72-8.58-2.72c-.34,0-.72,0-1.12,0s-1,.08-1.91.18c-.25,1.6-.42,3.38-.54,5.34s-.15,4.12-.15,6.48v11.26Zm.46,31.12c.78.17,1.41.3,1.92.36a10.12,10.12,0,0,0,1.43.1c3.93,0,6.93-1.15,9.05-3.45s3.16-5.6,3.16-9.88-1.11-7.5-3.35-9.74-5.49-3.36-9.73-3.36c-.72,0-1.28,0-1.69,0a7.22,7.22,0,0,0-1.16.13V366c0,2.16,0,4.39.1,6.66s.15,4.53.27,6.81ZM207.38,385c.35-2.76.62-5.89.79-9.41s.26-8.38.26-14.61v-8.49q0-14.72-.24-21.18t-.81-11.46q4.2.14,7.2.2c2,.05,3.61.08,4.82.08s3.24-.05,5.71-.14,4.24-.14,5.34-.14q10.47,0,15.74,3.75c3.51,2.5,5.26,6.23,5.26,11.24a12.86,12.86,0,0,1-5,10.64c-3.38,2.65-8.14,4.18-14.33,4.58v.51c7.09,0,12.35,1.33,15.82,4s5.18,6.77,5.18,12.31q0,8.58-5.94,13.35T230.53,385c-1.74,0-4.45-.06-8.16-.19s-6.5-.19-8.43-.19q-1.71,0-5.77.34C207.79,385,207.54,385,207.38,385Z"/><path class="cls-1" d="M264.73,385q.52-6.28.79-13.54c.18-4.85.26-11.16.26-19q0-11.31-.26-19c-.17-5.1-.44-9.67-.79-13.67,1.37.17,2.75.31,4.13.41s2.77.16,4.17.16,2.78,0,4.15-.16,2.72-.24,4.05-.41q-.54,6.1-.79,13.78c-.18,5.12-.26,11.42-.26,18.86q0,12.16.26,19.36t.74,13.15c-1.52-.16-2.95-.28-4.3-.36s-2.64-.11-3.85-.11-2.59,0-3.95.11S266.29,384.82,264.73,385Z"/><path class="cls-1" d="M307.86,385q.58-7.17.86-15.13c.19-5.31.29-11.12.29-17.38,0-2.15,0-5.49-.1-10.05s-.16-9.67-.28-15.34h-2c-2.91,0-5.71.09-8.38.28s-5.22.48-7.63.86c0-.35.08-1,.15-2s.13-1.83.13-2.45-.06-1.53-.19-2.75c0-.5-.06-.88-.09-1.16,5.15.23,9.76.41,13.81.51s7.89.15,11.5.15,7.49,0,11.57-.15,8.68-.28,13.77-.51c-.06.59-.13,1.22-.19,1.9s-.09,1.36-.09,2,0,1.4.08,2.13.11,1.51.2,2.35c-2.48-.38-5.05-.66-7.72-.86s-5.47-.28-8.38-.28h-1.88c-.16,2.41-.27,5-.33,7.87s-.1,7-.1,12.62q0,14.81.27,23c.18,5.43.43,10.24.78,14.43q-2.29-.24-4.32-.36c-1.36-.08-2.64-.11-3.85-.11s-2.48,0-3.77.11S309.29,384.82,307.86,385Z"/><path class="cls-1" d="M350.43,385c.41-3.35.71-7.18.89-11.52s.25-11.32.25-21v-4.8q0-10.8-.25-16.91c-.18-4.07-.48-7.71-.89-10.94,2.95.12,6,.22,9.15.28s6.43.1,9.86.1,6.6,0,9.45-.1,5.55-.16,8.07-.28c-.16,1.05-.25,1.87-.3,2.46s-.08,1.15-.08,1.64,0,1,.08,1.56.14,1.36.3,2.45c-4.69-.32-8.74-.58-12.18-.75s-6.42-.27-9-.3c-.11,1.14-.21,2.38-.26,3.69s-.06,3.22-.06,5.77v4.58l.05,6.47,10.17-.37,10.86-.4c-.16,1-.25,1.74-.3,2.31s-.06,1.14-.06,1.7a36.65,36.65,0,0,0,.31,3.82.91.91,0,0,1,.05.28q-8.62-.5-13.16-.68c-3-.11-5.65-.18-7.92-.18v11.44q0,6.17.09,8.65c.07,1.63.15,3,.27,4.15q4.32-.15,9.59-.51c3.52-.24,7.35-.54,11.51-.93-.09.62-.16,1.24-.2,1.85s-.08,1.24-.08,1.89,0,1.51.14,2.58.14,1.73.14,2q-9.48-.28-14.56-.38c-3.4-.06-6.14-.09-8.24-.09-2.83,0-5.35,0-7.56.11S352.33,384.82,350.43,385Z"/><path class="cls-1" d="M413.2,351h.38q7.88,0,11.42-3.35c2.36-2.24,3.56-5.79,3.56-10.67q0-6.15-3.12-9t-9.86-2.85c-.22,0-.55,0-1,.05s-.79,0-1.05,0c-.13,2-.2,3.89-.25,5.85s-.08,3.83-.08,5.69V351Zm-14.88,34c.41-4.4.73-9.14.93-14.2s.31-11.17.31-18.31q0-10.1-.31-18c-.2-5.27-.52-10.19-.93-14.72.9.13,1.78.22,2.65.29s1.7.09,2.48.09c.34,0,2.39-.06,6.17-.19s7.39-.19,10.84-.19q11.6,0,17.29,4.06t5.69,12.33a15.14,15.14,0,0,1-3.88,10.72c-2.59,2.8-6.46,4.8-11.58,6L449.45,385c-1.53-.16-3-.28-4.41-.36s-2.78-.11-4.08-.11-2.61,0-4,.11-2.89.2-4.48.36c-2.75-4.92-5.74-10-8.94-15.13s-6.61-10.43-10.24-15.87v12.89c0,2.75.07,5.63.19,8.62s.32,6.14.58,9.49c-1.37-.16-2.69-.28-4-.36s-2.51-.11-3.74-.11-2.41,0-3.73.11S399.87,384.82,398.32,385Z"/><path class="cls-1" d="M456.32,385q.53-6.28.79-13.54c.18-4.85.26-11.16.26-19q0-11.31-.26-19c-.17-5.1-.44-9.67-.79-13.67,1.36.17,2.75.31,4.13.41s2.77.16,4.17.16,2.78,0,4.15-.16,2.71-.24,4.05-.41c-.36,4.07-.64,8.66-.79,13.78s-.26,11.42-.26,18.86q0,12.16.26,19.36c.15,4.79.41,9.18.74,13.15-1.52-.16-2.95-.28-4.31-.36s-2.63-.11-3.84-.11-2.6,0-3.95.11S457.87,384.82,456.32,385Z"/><path class="cls-1" d="M478.66,385q6.93-15.33,13.57-31.84t13.06-34.55c.68.09,1.33.16,1.95.2s1.24.08,1.86.08,1.18,0,1.75-.08,1.11-.11,1.66-.2q5.76,15.82,12.38,32.43T539,385c-1.21-.12-2.49-.22-3.85-.28s-2.79-.1-4.35-.1-3,0-4.33.1-2.64.16-3.91.28c-.75-2.38-1.56-4.92-2.45-7.61s-2.16-6.54-3.83-11.56c-1.3-.06-2.73-.11-4.26-.14s-3.83-.05-6.87-.05-5.39,0-6.91.05-3,.08-4.27.14c-1.82,5.39-3.22,9.41-4.16,12.05s-1.81,5-2.58,7.12c-.9-.12-1.67-.22-2.3-.28a16.54,16.54,0,0,0-1.8-.1,34.76,34.76,0,0,0-4,.34,3.52,3.52,0,0,1-.5,0Zm18-25.47h.27c3.64.13,6.38.19,8.25.19h3.18c1.15,0,2.9-.08,5.3-.18q-1.86-5.67-3.95-11.16c-1.38-3.64-2.83-7.22-4.35-10.7q-2.37,5.09-4.53,10.54T496.67,359.51Z"/><path class="cls-1" d="M544.18,385q.48-6.84.76-14.77c.19-5.27.29-11,.29-17.2q0-8.76-.29-17.11t-.81-16.07c.78.08,1.59.14,2.43.2s1.77.08,2.77.08,1.88,0,2.72-.08,1.65-.11,2.43-.2q9.74,10.89,19.68,21.83t20.1,21.91V352.33q0-3.1-.09-12.1t-.29-20.4c.59.08,1.21.14,1.86.2s1.34.08,2,.08,1.54,0,2.21-.08,1.3-.12,1.89-.2q-.42,4.05-.59,12.51t-.17,27.22v5.26q0,7.67.17,12.13c.12,3,.31,5.66.59,8-.74-.16-1.44-.28-2.11-.36a16.82,16.82,0,0,0-2-.11,17.2,17.2,0,0,0-2,.11c-.7.08-1.45.2-2.23.36q-8.9-10.16-19-21.33T552,339.23v27.88q0,1.72.1,6.63t.28,11.24c-.81-.16-1.54-.28-2.21-.36a15.63,15.63,0,0,0-1.91-.11,15.81,15.81,0,0,0-1.9.11C545.69,384.7,545,384.82,544.18,385Z"/><path class="cls-1" d="M607.25,385q6.94-15.33,13.58-31.84t13-34.55c.69.09,1.34.16,2,.2s1.24.08,1.86.08,1.17,0,1.75-.08,1.11-.11,1.65-.2q5.77,15.82,12.39,32.43t14.15,34c-1.21-.12-2.5-.22-3.85-.28s-2.8-.1-4.36-.1-3,0-4.32.1-2.64.16-3.91.28c-.75-2.38-1.56-4.92-2.45-7.61s-2.16-6.54-3.83-11.56c-1.31-.06-2.74-.11-4.26-.14s-3.84-.05-6.87-.05-5.39,0-6.92.05-3,.08-4.26.14c-1.83,5.39-3.23,9.41-4.17,12.05s-1.81,5-2.57,7.12c-.91-.12-1.67-.22-2.31-.28a16.37,16.37,0,0,0-1.79-.1,34.59,34.59,0,0,0-4,.34,3.64,3.64,0,0,1-.51,0Zm18-25.47h.27c3.64.13,6.37.19,8.25.19H637c1.14,0,2.89-.08,5.29-.18q-1.86-5.67-3.94-11.16c-1.38-3.64-2.83-7.22-4.36-10.7q-2.36,5.09-4.53,10.54T625.27,359.51Z"/></g></g></svg>