<svg xmlns="http://www.w3.org/2000/svg" viewBox="0 0 381.37 372.54"><defs><style>.cls-1{fill:#fffdf1;}.cls-2{fill:none;stroke:#fffdf1;stroke-miterlimit:10;stroke-width:6px;}.cls-3,.cls-4{fill:#db7310;}.cls-4{fill-rule:evenodd;}</style></defs><g id="Camada_2" data-name="Camada 2"><g id="Layer_1" data-name="Layer 1"><ellipse class="cls-1" cx="190.92" cy="185.76" rx="178.06" ry="172.34"/><ellipse class="cls-2" cx="190.68" cy="186.27" rx="187.68" ry="183.27"/><path class="cls-3" d="M80.11,161.64l1.8,7.47,3.74,1v2.5l-3.46,1.52,5.26,4.29L89,184.9l1,1.25h2.77l2.77,3.74L95.21,195l9.14,5.13,9.41,1.1,11.64.42,6.23,3.05h8.86l4.57-2.77,8.45.27,7.62-.27,5-2.5c1.1-5.54-3.47-9.55-5.27-14.26,1.25,2.35,7.34,2.91,10.25,7.06.69,3-1.38,4.85.83,7.48l4.85,1,2.91,4.29-3.46,5.82,1.38,1.52,6.79.28,1.11.69h3.32l2.22-1,8-.27h.14l-1.25-3.6-2.49-5.13-.42-.69,1-2.63h2.77l2.08,2.63h9.83l7.62-.28,3.6-3,6.92-.84,6.1,4.44,4.85.27,6.37-3.18,3.18-1.53,5.26-1.38,7.07,1,5.54,3.6,3.32,1.25,4.71-5.82v-.69l6.09-4.85,4.3.28,3.32-5.4h4.57l5.68-2.08-.28-3.6,1.94-3.88,5.54-5.54-4.71-12.74.69-1.8-5-9.42-4-4.15-.27-4.3-2.64-4.85,3.19-1.66-7.48-6.23,3.05-8.17-2.63-2.77,1.8-6.09-3.33-3.74-.55-.56,1.66-9.42-2.63-4.7-6.09-1.39-1-.41-8-3.19-2.77-4.15-5.95-3.47-6-.27L251.29,73,253,67.18,251.29,67l-3.6-7.48-5.4-2.77-.69-9.14-4.85-4.15-8-1.25-8-1.24-7.06-3.88-16.48,4.71-12.47-7.48-13.29,1.8-6.51,4.29-7.62,1.25-2.91,4.43h-7.61l-6.1,2.22L135.09,45l-.83,3.46-4.15,5L127.2,57.9l.69,3.88-3.18,1.8-4.16,7.76-1,3.46L119,81.86l2.07,2.49-6.5,3.74-2.5-2.21-4,6.78-3.33.7-4.29,4.57-3,5.68-3.74-3.47-1.52,3.74-1,3.46-3.46,4.16L85,112.75l-3-1.25.28,4.43L85,119.67V124l-2.08,4.57-3,7.76L77.34,141l-.28,7.62,1.53,3.87Zm195.28-47.92c9.69,34.62,1.38,24.51-14.4,53.87-.28-1.11,2.77-7.62,2.35-7.48C268.6,150.42,275,138.64,275.39,113.72Zm-17.73,10.94c-.28-1-.41-2.91-.83-2.91,7.62-12.74,5.26-19.25-.28-35.73C264.17,101.53,274.7,94.88,257.66,124.66Zm-1.94,6.64c-4.15,37.54,2.91,35.18-5.81,49.86-5.82,7.48-9.28,5-20.64,11.22C229.13,178.39,247.14,177.42,255.72,131.3Zm-34.21,51.52c-2.07-6.23,16.9-22.43,1.25-25.75-2.35-14.13,13.85-21.33,11.91-57.62C245.61,119,248.8,159.28,221.51,182.82Zm.83-121.18c11.22,20.22,4.44,24.65,5.27,37.12-5.68,21.6-10.39,1.24-11.22-4.43C216.11,80.2,226.08,89.06,222.34,61.64ZM211.4,190.72c-6.23,8.59-6.51.55-4-3.6,2.91-4.57,2.63-3.6,5.12-13.44C211.68,186.84,215.14,184.07,211.4,190.72ZM209,138c.28-1.26.32-2.42,1.05-3.18,1.37,2.38,1.53,13.4,1.19,16.7-.88,8.47-4.13,12.79-7.21,19.68-.92,2-1.38,4.68-2.52,6.38-10.61,15.94-12.6,5.06-10.61-8.28,1.93-12.86,9.86-8.61,15-20.94A64.44,64.44,0,0,0,209,138Zm-10.89-23.08a84.31,84.31,0,0,0,4.26-8.73c.14,3.46-1,7.94-1.12,11.78-.15,4.37.58,8.46.37,12.86a14.43,14.43,0,0,1-4,9.23c-1,1-5.67,5.9-8.31,3.64-2.28-1.94.54-8,1.05-10.25C193.39,119.73,191.56,126.15,198.15,114.88ZM187.58,51.12c10.94,17.72,5.27,52.9-1.11,63.15,1.94-18.7-5.81-16.07-5-21.19C180.1,76.18,195.75,74.24,187.58,51.12ZM175,156.9c3.59-3.05,3.4-12,4.82-14.65.95.53.81,1.1,1,2.29,2.2,11.2,2.45,17.42-2.3,28.09l-3.67,8.07c-1.89-.5-6-11.39-3.17-20.52C172.55,157.44,173.12,158.49,175,156.9Zm-9.84-114c.83,11.22,3,11.78,4.29,16.62,1.8,6.1-9.42,17.45-7.62,4.3C160.16,54.16,164.18,55.69,165.15,42.94Zm-4.34,67.83c2.59-.48,5.61,3.77,6.39,5.27.69,1.33.86,3.15,1.41,4.54s1.15,2.64,1.8,4.14c3.36,7.75-.29,18-1.79,18.81-.68-1.36-.78-6.89-2-9.72-1.78-4-2.83-3.68-6-5.85C154.71,123.92,157.67,111.34,160.81,110.77ZM146.86,70c1.11,14.54,1.94,15.65,6,17.87,2.22,7.61,1,14.26-4.15,22.16C146.31,99.45,138.55,93.08,146.86,70Zm-9.41,34.21c-.14,29.78,14.12,45,17.86,51.66,1.8,9.55,2.63,13.29-3,22.71C152.13,164.4,132.18,161.36,137.45,104.16Zm6.92,94c-4-4.43-4.15-3.33-12.05-5.68-10.25-2.35-8.44-20.22-10.25-56.78C124.71,170.91,149.22,185.46,144.37,198.2ZM123.88,90.59c-5.55,16.34-9.42,21.6-5.68,37.53-.14-.14-1.53,3-1.94,5.26C104.62,113.85,112.8,108.45,123.88,90.59Zm-21.2,26.86c.56,19.26,8.18,37.4,16.21,54.57-7.2-10.52-17.45-18.28-22-31.57C97.7,132.69,98.67,124.66,102.68,117.45Z"/><path class="cls-4" d="M122,316.31q.52-6.29.8-13.52t.25-18.92q0-11.28-.25-18.92t-.8-13.64c1.37.17,2.75.32,4.13.41s2.76.16,4.15.16,2.78,0,4.14-.16,2.72-.24,4-.41q-.55,6.09-.79,13.75t-.26,18.81q0,12.13.26,19.32c.15,4.78.41,9.15.74,13.12-1.52-.16-3-.29-4.3-.37s-2.63-.11-3.84-.11-2.58,0-3.93.11S123.57,316.15,122,316.31Z"/><path class="cls-4" d="M234.66,279.76c.23,0,.54,0,1,.05s.73.05.92.05c4.52,0,7.86-1,10.05-3.11s3.27-5.27,3.27-9.56c0-3.48-1-6.11-2.95-7.93s-4.82-2.72-8.56-2.72c-.34,0-.72,0-1.11,0s-1,.08-1.91.17c-.25,1.6-.43,3.38-.54,5.33s-.16,4.11-.16,6.47v11.23Zm.46,31.05c.78.17,1.42.3,1.92.36a11.87,11.87,0,0,0,1.43.1c3.92,0,6.92-1.15,9-3.45s3.15-5.58,3.15-9.85-1.11-7.48-3.34-9.72-5.48-3.35-9.71-3.35c-.72,0-1.27,0-1.68,0a8.39,8.39,0,0,0-1.16.13v12.32q0,3.24.09,6.65c.07,2.25.16,4.52.27,6.79Zm-15.21,5.5q.53-4.14.8-9.39c.17-3.49.25-8.36.25-14.58v-8.47q0-14.67-.24-21.13t-.81-11.43q4.18.13,7.19.2c2,.05,3.6.08,4.8.08s3.24,0,5.7-.14,4.23-.14,5.33-.14q10.44,0,15.7,3.74c3.51,2.49,5.25,6.22,5.25,11.22a12.83,12.83,0,0,1-5,10.61c-3.37,2.65-8.12,4.17-14.29,4.57v.5q10.6,0,15.78,4t5.17,12.28c0,5.71-2,10.13-5.93,13.32s-9.47,4.76-16.56,4.76q-2.59,0-8.14-.19c-3.68-.13-6.49-.19-8.41-.19q-1.71,0-5.75.33Z"/><path class="cls-4" d="M177.4,282.19c4.85,0,8.32-1.11,10.46-3.33s3.21-5.82,3.21-10.85q0-6.18-2.54-9.23t-7.74-3c-.56,0-1.41.05-2.57.15a1.31,1.31,0,0,1-.27.05c-.18,1.76-.32,3.52-.41,5.26s-.14,3.52-.14,5.28v15.72ZM163.28,315.5q.56-6.42.82-14c.18-5.05.28-11.21.28-18.43,0-6.67-.1-12.69-.28-18s-.45-10.17-.82-14.56c1.1.13,2.17.22,3.22.29s2.11.09,3.14.09c1.25,0,3.56-.06,6.9-.19s6.1-.19,8.23-.19q10.72,0,15.71,4.11c3.33,2.74,5,7.06,5,12.94q0,10.06-6.18,15c-4.13,3.27-10.4,4.91-18.86,4.91-.34,0-.86,0-1.53-.05s-1.15-.05-1.49-.05v14c0,.78.08,2.22.23,4.31s.41,5.41.78,9.87c-1.43-.16-2.77-.29-4-.36s-2.48-.12-3.66-.12-2.36,0-3.57.12S164.65,315.34,163.28,315.5Z"/><rect class="cls-3" x="62.98" y="225.2" width="254.28" height="6.94"/></g></g></svg>