<svg xmlns="http://www.w3.org/2000/svg" viewBox="0 0 135 135"><defs><style>.cls-1{fill:#c60909;}.cls-2{fill:#db7301;}</style></defs><g id="Camada_2" data-name="Camada 2"><g id="Camada_1-2" data-name="Camada 1"><circle class="cls-1" cx="67.5" cy="67.5" r="67.5"/><path class="cls-2" d="M113.62,45.84a11.27,11.27,0,0,0-8-8C98.64,36,70.5,36,70.5,36s-28.14,0-35.16,1.88a11.27,11.27,0,0,0-8,8c-1.88,7-1.88,21.66-1.88,21.66s0,14.64,1.88,21.66a11.27,11.27,0,0,0,8,8C42.36,99,70.5,99,70.5,99s28.14,0,35.16-1.88a11.27,11.27,0,0,0,8-8c1.88-7,1.88-21.66,1.88-21.66S115.5,52.86,113.62,45.84ZM61.5,81V54L84.88,67.5Z"/></g></g></svg>